<mxfile host="Electron" modified="2024-04-28T20:08:37.227Z" agent="Mozilla/5.0 (X11; Linux x86_64) AppleWebKit/537.36 (KHTML, like Gecko) draw.io/22.1.2 Chrome/114.0.5735.289 Electron/25.9.4 Safari/537.36" etag="Uw2EVyaBVdy3pJmS0d2d" version="22.1.2" type="device">
  <diagram name="Page-1" id="bAog4Ph5rhsAuziSSEcY">
    <mxGraphModel dx="1674" dy="838" grid="1" gridSize="10" guides="1" tooltips="1" connect="1" arrows="1" fold="1" page="1" pageScale="1" pageWidth="850" pageHeight="1100" math="0" shadow="0">
      <root>
        <mxCell id="0" />
        <mxCell id="1" parent="0" />
        <mxCell id="60P3BRVn1bayOMwkvm1S-173" value="" style="rounded=0;whiteSpace=wrap;html=1;" vertex="1" parent="1">
          <mxGeometry x="2220" y="1360" width="440" height="520" as="geometry" />
        </mxCell>
        <mxCell id="L4q9XZSvd_akfMlWm6T2-446" value="" style="rounded=0;whiteSpace=wrap;html=1;" parent="1" vertex="1">
          <mxGeometry x="1480" y="260" width="470" height="500" as="geometry" />
        </mxCell>
        <mxCell id="L4q9XZSvd_akfMlWm6T2-445" value="" style="rounded=0;whiteSpace=wrap;html=1;" parent="1" vertex="1">
          <mxGeometry x="1960" y="280" width="720" height="760" as="geometry" />
        </mxCell>
        <mxCell id="1K4-Vqz8_YfSpJtlY94Z-13" value="" style="rounded=0;whiteSpace=wrap;html=1;" parent="1" vertex="1">
          <mxGeometry x="320" y="1000" width="960.71" height="280.27" as="geometry" />
        </mxCell>
        <mxCell id="Nt9SSNV7IdZdMpz9-7pT-155" value="" style="group" parent="1" vertex="1" connectable="0">
          <mxGeometry x="1050" y="330" width="420" height="400" as="geometry" />
        </mxCell>
        <mxCell id="Nt9SSNV7IdZdMpz9-7pT-68" value="" style="rounded=0;whiteSpace=wrap;html=1;" parent="Nt9SSNV7IdZdMpz9-7pT-155" vertex="1">
          <mxGeometry x="160" y="160" width="80" height="80" as="geometry" />
        </mxCell>
        <mxCell id="Nt9SSNV7IdZdMpz9-7pT-106" value="" style="rounded=0;whiteSpace=wrap;html=1;" parent="Nt9SSNV7IdZdMpz9-7pT-155" vertex="1">
          <mxGeometry y="160" width="80" height="80" as="geometry" />
        </mxCell>
        <mxCell id="Nt9SSNV7IdZdMpz9-7pT-61" value="" style="rounded=0;whiteSpace=wrap;html=1;" parent="Nt9SSNV7IdZdMpz9-7pT-155" vertex="1">
          <mxGeometry x="160" y="240" width="80" height="80" as="geometry" />
        </mxCell>
        <mxCell id="Nt9SSNV7IdZdMpz9-7pT-62" value="" style="rounded=0;whiteSpace=wrap;html=1;" parent="Nt9SSNV7IdZdMpz9-7pT-155" vertex="1">
          <mxGeometry x="80" y="160" width="80" height="80" as="geometry" />
        </mxCell>
        <mxCell id="Nt9SSNV7IdZdMpz9-7pT-63" value="" style="rounded=0;whiteSpace=wrap;html=1;" parent="Nt9SSNV7IdZdMpz9-7pT-155" vertex="1">
          <mxGeometry x="80" y="240" width="80" height="80" as="geometry" />
        </mxCell>
        <mxCell id="Nt9SSNV7IdZdMpz9-7pT-64" value="" style="rounded=0;whiteSpace=wrap;html=1;" parent="Nt9SSNV7IdZdMpz9-7pT-155" vertex="1">
          <mxGeometry x="80" y="320" width="80" height="80" as="geometry" />
        </mxCell>
        <mxCell id="Nt9SSNV7IdZdMpz9-7pT-65" value="" style="rounded=0;whiteSpace=wrap;html=1;" parent="Nt9SSNV7IdZdMpz9-7pT-155" vertex="1">
          <mxGeometry x="240" y="240" width="80" height="80" as="geometry" />
        </mxCell>
        <mxCell id="Nt9SSNV7IdZdMpz9-7pT-66" value="" style="rounded=0;whiteSpace=wrap;html=1;" parent="Nt9SSNV7IdZdMpz9-7pT-155" vertex="1">
          <mxGeometry x="320" y="240" width="80" height="80" as="geometry" />
        </mxCell>
        <mxCell id="Nt9SSNV7IdZdMpz9-7pT-67" value="" style="rounded=0;whiteSpace=wrap;html=1;" parent="Nt9SSNV7IdZdMpz9-7pT-155" vertex="1">
          <mxGeometry y="240" width="80" height="80" as="geometry" />
        </mxCell>
        <mxCell id="Nt9SSNV7IdZdMpz9-7pT-69" value="" style="rounded=0;whiteSpace=wrap;html=1;" parent="Nt9SSNV7IdZdMpz9-7pT-155" vertex="1">
          <mxGeometry x="80" y="80" width="80" height="80" as="geometry" />
        </mxCell>
        <mxCell id="Nt9SSNV7IdZdMpz9-7pT-70" value="" style="rounded=0;whiteSpace=wrap;html=1;" parent="Nt9SSNV7IdZdMpz9-7pT-155" vertex="1">
          <mxGeometry x="80" width="80" height="80" as="geometry" />
        </mxCell>
        <mxCell id="Nt9SSNV7IdZdMpz9-7pT-71" value="" style="shape=mxgraph.signs.transportation.airplane_5;html=1;pointerEvents=1;fillColor=#EA6B66;strokeColor=none;verticalLabelPosition=bottom;verticalAlign=top;align=center;rotation=-90;" parent="Nt9SSNV7IdZdMpz9-7pT-155" vertex="1">
          <mxGeometry x="341.25" y="256" width="37.5" height="48" as="geometry" />
        </mxCell>
        <mxCell id="Nt9SSNV7IdZdMpz9-7pT-72" value="" style="shape=mxgraph.signs.transportation.airplane_5;html=1;pointerEvents=1;fillColor=#0967FA;strokeColor=none;verticalLabelPosition=bottom;verticalAlign=top;align=center;rotation=-180;" parent="Nt9SSNV7IdZdMpz9-7pT-155" vertex="1">
          <mxGeometry x="100" y="16" width="37.5" height="48" as="geometry" />
        </mxCell>
        <mxCell id="Nt9SSNV7IdZdMpz9-7pT-73" value="" style="endArrow=none;dashed=1;html=1;rounded=0;entryX=0.5;entryY=0;entryDx=0;entryDy=0;entryPerimeter=0;fillColor=#0967FA;strokeColor=#0967FA;" parent="Nt9SSNV7IdZdMpz9-7pT-155" target="Nt9SSNV7IdZdMpz9-7pT-81" edge="1">
          <mxGeometry width="50" height="50" relative="1" as="geometry">
            <mxPoint x="120" y="360" as="sourcePoint" />
            <mxPoint x="119" y="64" as="targetPoint" />
          </mxGeometry>
        </mxCell>
        <mxCell id="Nt9SSNV7IdZdMpz9-7pT-74" value="" style="group" parent="Nt9SSNV7IdZdMpz9-7pT-155" vertex="1" connectable="0">
          <mxGeometry x="25" y="265" width="175" height="30" as="geometry" />
        </mxCell>
        <mxCell id="Nt9SSNV7IdZdMpz9-7pT-79" value="" style="ellipse;whiteSpace=wrap;html=1;aspect=fixed;fillColor=#EA6B66;strokeColor=#EA6B66;" parent="Nt9SSNV7IdZdMpz9-7pT-74" vertex="1">
          <mxGeometry width="30" height="30" as="geometry" />
        </mxCell>
        <mxCell id="Nt9SSNV7IdZdMpz9-7pT-80" value="" style="group" parent="Nt9SSNV7IdZdMpz9-7pT-155" vertex="1" connectable="0">
          <mxGeometry x="105" y="345" width="30" height="30" as="geometry" />
        </mxCell>
        <mxCell id="Nt9SSNV7IdZdMpz9-7pT-81" value="" style="ellipse;whiteSpace=wrap;html=1;aspect=fixed;fillColor=#0967FA;strokeColor=#0967FA;" parent="Nt9SSNV7IdZdMpz9-7pT-80" vertex="1">
          <mxGeometry width="30" height="30" as="geometry" />
        </mxCell>
        <mxCell id="Nt9SSNV7IdZdMpz9-7pT-82" value="" style="endArrow=none;dashed=1;html=1;rounded=0;entryX=0.5;entryY=0;entryDx=0;entryDy=0;entryPerimeter=0;fillColor=#0967FA;strokeColor=#0967FA;" parent="Nt9SSNV7IdZdMpz9-7pT-155" source="Nt9SSNV7IdZdMpz9-7pT-81" target="Nt9SSNV7IdZdMpz9-7pT-72" edge="1">
          <mxGeometry width="50" height="50" relative="1" as="geometry">
            <mxPoint x="-265" y="-305" as="sourcePoint" />
            <mxPoint x="-215" y="-485" as="targetPoint" />
          </mxGeometry>
        </mxCell>
        <mxCell id="Nt9SSNV7IdZdMpz9-7pT-83" value="" style="endArrow=none;dashed=1;html=1;rounded=0;strokeColor=#EA6B66;" parent="Nt9SSNV7IdZdMpz9-7pT-155" source="Nt9SSNV7IdZdMpz9-7pT-68" edge="1">
          <mxGeometry width="50" height="50" relative="1" as="geometry">
            <mxPoint x="200" y="270" as="sourcePoint" />
            <mxPoint x="200" y="210" as="targetPoint" />
          </mxGeometry>
        </mxCell>
        <mxCell id="Nt9SSNV7IdZdMpz9-7pT-84" value="&lt;font style=&quot;font-size: 10px;&quot; color=&quot;#ea6b66&quot;&gt;a1&lt;/font&gt;" style="text;html=1;align=center;verticalAlign=middle;resizable=0;points=[];autosize=1;strokeColor=none;fillColor=none;" parent="Nt9SSNV7IdZdMpz9-7pT-155" vertex="1">
          <mxGeometry x="370" y="240" width="30" height="30" as="geometry" />
        </mxCell>
        <mxCell id="Nt9SSNV7IdZdMpz9-7pT-85" value="&lt;font style=&quot;font-size: 10px;&quot; color=&quot;#ea6b66&quot;&gt;a2&lt;/font&gt;" style="text;html=1;align=center;verticalAlign=middle;resizable=0;points=[];autosize=1;strokeColor=none;fillColor=none;" parent="Nt9SSNV7IdZdMpz9-7pT-155" vertex="1">
          <mxGeometry x="290" y="240" width="30" height="30" as="geometry" />
        </mxCell>
        <mxCell id="Nt9SSNV7IdZdMpz9-7pT-86" value="&lt;font style=&quot;font-size: 10px;&quot; color=&quot;#ea6b66&quot;&gt;a3&lt;/font&gt;" style="text;html=1;align=center;verticalAlign=middle;resizable=0;points=[];autosize=1;strokeColor=none;fillColor=none;" parent="Nt9SSNV7IdZdMpz9-7pT-155" vertex="1">
          <mxGeometry x="210" y="240" width="30" height="30" as="geometry" />
        </mxCell>
        <mxCell id="Nt9SSNV7IdZdMpz9-7pT-87" value="&lt;font style=&quot;font-size: 10px;&quot; color=&quot;#ea6b66&quot;&gt;a4&lt;/font&gt;" style="text;html=1;align=center;verticalAlign=middle;resizable=0;points=[];autosize=1;strokeColor=none;fillColor=none;" parent="Nt9SSNV7IdZdMpz9-7pT-155" vertex="1">
          <mxGeometry x="129.99571428571426" y="239.99666666666667" width="30" height="30" as="geometry" />
        </mxCell>
        <mxCell id="Nt9SSNV7IdZdMpz9-7pT-88" value="&lt;font style=&quot;font-size: 10px;&quot; color=&quot;#ea6b66&quot;&gt;a5&lt;/font&gt;" style="text;html=1;align=center;verticalAlign=middle;resizable=0;points=[];autosize=1;strokeColor=none;fillColor=none;" parent="Nt9SSNV7IdZdMpz9-7pT-155" vertex="1">
          <mxGeometry x="50" y="240" width="30" height="30" as="geometry" />
        </mxCell>
        <mxCell id="Nt9SSNV7IdZdMpz9-7pT-89" value="&lt;font style=&quot;font-size: 10px;&quot; color=&quot;#ea6b66&quot;&gt;a6&lt;/font&gt;" style="text;html=1;align=center;verticalAlign=middle;resizable=0;points=[];autosize=1;strokeColor=none;fillColor=none;" parent="Nt9SSNV7IdZdMpz9-7pT-155" vertex="1">
          <mxGeometry x="210" y="160" width="30" height="30" as="geometry" />
        </mxCell>
        <mxCell id="Nt9SSNV7IdZdMpz9-7pT-90" value="&lt;font color=&quot;#007fff&quot;&gt;&lt;span style=&quot;font-size: 10px;&quot;&gt;b1&lt;/span&gt;&lt;/font&gt;" style="text;html=1;align=center;verticalAlign=middle;resizable=0;points=[];autosize=1;strokeColor=none;fillColor=none;" parent="Nt9SSNV7IdZdMpz9-7pT-155" vertex="1">
          <mxGeometry x="79.99571428571426" y="49.99666666666667" width="30" height="30" as="geometry" />
        </mxCell>
        <mxCell id="Nt9SSNV7IdZdMpz9-7pT-91" value="&lt;font color=&quot;#007fff&quot;&gt;&lt;span style=&quot;font-size: 10px;&quot;&gt;b2&lt;/span&gt;&lt;/font&gt;" style="text;html=1;align=center;verticalAlign=middle;resizable=0;points=[];autosize=1;strokeColor=none;fillColor=none;" parent="Nt9SSNV7IdZdMpz9-7pT-155" vertex="1">
          <mxGeometry x="79.99571428571426" y="129.99666666666667" width="30" height="30" as="geometry" />
        </mxCell>
        <mxCell id="Nt9SSNV7IdZdMpz9-7pT-92" value="&lt;font color=&quot;#007fff&quot;&gt;&lt;span style=&quot;font-size: 10px;&quot;&gt;b3&lt;/span&gt;&lt;/font&gt;" style="text;html=1;align=center;verticalAlign=middle;resizable=0;points=[];autosize=1;strokeColor=none;fillColor=none;" parent="Nt9SSNV7IdZdMpz9-7pT-155" vertex="1">
          <mxGeometry x="79.99571428571426" y="209.99666666666667" width="30" height="30" as="geometry" />
        </mxCell>
        <mxCell id="Nt9SSNV7IdZdMpz9-7pT-93" value="&lt;font color=&quot;#007fff&quot;&gt;&lt;span style=&quot;font-size: 10px;&quot;&gt;b4&lt;/span&gt;&lt;/font&gt;" style="text;html=1;align=center;verticalAlign=middle;resizable=0;points=[];autosize=1;strokeColor=none;fillColor=none;" parent="Nt9SSNV7IdZdMpz9-7pT-155" vertex="1">
          <mxGeometry x="79.99571428571426" y="289.99666666666667" width="30" height="30" as="geometry" />
        </mxCell>
        <mxCell id="Nt9SSNV7IdZdMpz9-7pT-94" value="&lt;font color=&quot;#007fff&quot;&gt;&lt;span style=&quot;font-size: 10px;&quot;&gt;b5&lt;/span&gt;&lt;/font&gt;" style="text;html=1;align=center;verticalAlign=middle;resizable=0;points=[];autosize=1;strokeColor=none;fillColor=none;" parent="Nt9SSNV7IdZdMpz9-7pT-155" vertex="1">
          <mxGeometry x="79.99571428571426" y="369.99666666666667" width="30" height="30" as="geometry" />
        </mxCell>
        <mxCell id="Nt9SSNV7IdZdMpz9-7pT-95" value="" style="group" parent="Nt9SSNV7IdZdMpz9-7pT-155" vertex="1" connectable="0">
          <mxGeometry x="170" y="180" width="60" height="50" as="geometry" />
        </mxCell>
        <mxCell id="Nt9SSNV7IdZdMpz9-7pT-96" value="" style="verticalLabelPosition=bottom;verticalAlign=top;html=1;shape=mxgraph.basic.flash;fillColor=#FFFF00;" parent="Nt9SSNV7IdZdMpz9-7pT-95" vertex="1">
          <mxGeometry x="12.857142857142856" y="22.727272727272727" width="12.857142857142856" height="22.727272727272727" as="geometry" />
        </mxCell>
        <mxCell id="Nt9SSNV7IdZdMpz9-7pT-97" value="" style="verticalLabelPosition=bottom;verticalAlign=top;html=1;shape=mxgraph.basic.flash;fillColor=#FFFF00;" parent="Nt9SSNV7IdZdMpz9-7pT-95" vertex="1">
          <mxGeometry x="30" y="27.272727272727273" width="12.857142857142856" height="22.727272727272727" as="geometry" />
        </mxCell>
        <mxCell id="Nt9SSNV7IdZdMpz9-7pT-98" value="" style="ellipse;shape=cloud;whiteSpace=wrap;html=1;fillColor=#CCCCCC;" parent="Nt9SSNV7IdZdMpz9-7pT-95" vertex="1">
          <mxGeometry width="51.42857142857142" height="36.36363636363636" as="geometry" />
        </mxCell>
        <mxCell id="Nt9SSNV7IdZdMpz9-7pT-100" value="" style="endArrow=none;dashed=1;html=1;rounded=0;strokeColor=#EA6B66;exitX=0.5;exitY=0;exitDx=0;exitDy=0;exitPerimeter=0;entryX=1;entryY=0.5;entryDx=0;entryDy=0;" parent="Nt9SSNV7IdZdMpz9-7pT-155" source="Nt9SSNV7IdZdMpz9-7pT-71" target="Nt9SSNV7IdZdMpz9-7pT-79" edge="1">
          <mxGeometry width="50" height="50" relative="1" as="geometry">
            <mxPoint x="210" y="300" as="sourcePoint" />
            <mxPoint x="210" y="210" as="targetPoint" />
          </mxGeometry>
        </mxCell>
        <mxCell id="Nt9SSNV7IdZdMpz9-7pT-101" value="" style="endArrow=none;dashed=1;html=1;rounded=0;edgeStyle=orthogonalEdgeStyle;curved=1;strokeColor=#EA6B66;" parent="Nt9SSNV7IdZdMpz9-7pT-155" edge="1">
          <mxGeometry width="50" height="50" relative="1" as="geometry">
            <mxPoint x="210" y="280" as="sourcePoint" />
            <mxPoint x="200" y="270" as="targetPoint" />
          </mxGeometry>
        </mxCell>
        <mxCell id="Nt9SSNV7IdZdMpz9-7pT-103" value="" style="endArrow=none;dashed=1;html=1;rounded=0;strokeColor=#EA6B66;" parent="Nt9SSNV7IdZdMpz9-7pT-155" edge="1">
          <mxGeometry width="50" height="50" relative="1" as="geometry">
            <mxPoint x="50" y="200" as="sourcePoint" />
            <mxPoint x="190" y="200" as="targetPoint" />
          </mxGeometry>
        </mxCell>
        <mxCell id="Nt9SSNV7IdZdMpz9-7pT-104" value="" style="endArrow=none;dashed=1;html=1;rounded=0;strokeColor=#EA6B66;edgeStyle=orthogonalEdgeStyle;curved=1;" parent="Nt9SSNV7IdZdMpz9-7pT-155" edge="1">
          <mxGeometry width="50" height="50" relative="1" as="geometry">
            <mxPoint x="190" y="200" as="sourcePoint" />
            <mxPoint x="200" y="210" as="targetPoint" />
          </mxGeometry>
        </mxCell>
        <mxCell id="Nt9SSNV7IdZdMpz9-7pT-105" value="&lt;font style=&quot;font-size: 10px;&quot; color=&quot;#ea6b66&quot;&gt;a7&lt;/font&gt;" style="text;html=1;align=center;verticalAlign=middle;resizable=0;points=[];autosize=1;strokeColor=none;fillColor=none;" parent="Nt9SSNV7IdZdMpz9-7pT-155" vertex="1">
          <mxGeometry x="130" y="160" width="30" height="30" as="geometry" />
        </mxCell>
        <mxCell id="Nt9SSNV7IdZdMpz9-7pT-107" value="" style="endArrow=none;dashed=1;html=1;rounded=0;strokeColor=#EA6B66;exitX=0.5;exitY=0;exitDx=0;exitDy=0;" parent="Nt9SSNV7IdZdMpz9-7pT-155" source="Nt9SSNV7IdZdMpz9-7pT-79" edge="1">
          <mxGeometry width="50" height="50" relative="1" as="geometry">
            <mxPoint x="-30" y="255" as="sourcePoint" />
            <mxPoint x="40" y="210" as="targetPoint" />
          </mxGeometry>
        </mxCell>
        <mxCell id="Nt9SSNV7IdZdMpz9-7pT-108" value="" style="endArrow=none;dashed=1;html=1;rounded=0;strokeColor=#EA6B66;edgeStyle=orthogonalEdgeStyle;curved=1;" parent="Nt9SSNV7IdZdMpz9-7pT-155" edge="1">
          <mxGeometry width="50" height="50" relative="1" as="geometry">
            <mxPoint x="50" y="200" as="sourcePoint" />
            <mxPoint x="40" y="210" as="targetPoint" />
          </mxGeometry>
        </mxCell>
        <mxCell id="Nt9SSNV7IdZdMpz9-7pT-109" value="" style="endArrow=none;dashed=1;html=1;rounded=0;strokeColor=#EA6B66;" parent="Nt9SSNV7IdZdMpz9-7pT-155" target="Nt9SSNV7IdZdMpz9-7pT-68" edge="1">
          <mxGeometry width="50" height="50" relative="1" as="geometry">
            <mxPoint x="200" y="270" as="sourcePoint" />
            <mxPoint x="200" y="210" as="targetPoint" />
          </mxGeometry>
        </mxCell>
        <mxCell id="Nt9SSNV7IdZdMpz9-7pT-110" value="&lt;font style=&quot;font-size: 10px;&quot; color=&quot;#ea6b66&quot;&gt;a8&lt;/font&gt;" style="text;html=1;align=center;verticalAlign=middle;resizable=0;points=[];autosize=1;strokeColor=none;fillColor=none;" parent="Nt9SSNV7IdZdMpz9-7pT-155" vertex="1">
          <mxGeometry x="50" y="160" width="30" height="30" as="geometry" />
        </mxCell>
        <mxCell id="Nt9SSNV7IdZdMpz9-7pT-211" value="" style="shape=mxgraph.signs.transportation.airplane_5;html=1;pointerEvents=1;fillColor=#0967FA;strokeColor=none;verticalLabelPosition=bottom;verticalAlign=top;align=center;rotation=-180;" parent="Nt9SSNV7IdZdMpz9-7pT-155" vertex="1">
          <mxGeometry x="225" y="10" width="37.5" height="48" as="geometry" />
        </mxCell>
        <mxCell id="Nt9SSNV7IdZdMpz9-7pT-213" value="" style="shape=mxgraph.signs.transportation.airplane_5;html=1;pointerEvents=1;fillColor=#EA6B66;strokeColor=none;verticalLabelPosition=bottom;verticalAlign=top;align=center;rotation=-90;" parent="Nt9SSNV7IdZdMpz9-7pT-155" vertex="1">
          <mxGeometry x="225" y="64" width="37.5" height="48" as="geometry" />
        </mxCell>
        <mxCell id="Nt9SSNV7IdZdMpz9-7pT-222" value="&lt;font color=&quot;#ea6b66&quot;&gt;Actions: Acc, Brk, Trn&lt;br&gt;Acc: P(move | Acc) : .85&lt;br&gt;Acc: P(stay&amp;nbsp; &amp;nbsp;| Acc) : .14&lt;br style=&quot;border-color: var(--border-color);&quot;&gt;Acc:&amp;nbsp;P(turn&amp;nbsp; &amp;nbsp;| Acc) : .01&lt;br style=&quot;border-color: var(--border-color);&quot;&gt;Brk: P(move | Brk) : .21&lt;br&gt;Brk:&amp;nbsp;P(stay&amp;nbsp; &amp;nbsp;| Brk) : .78&lt;br&gt;Brk:&amp;nbsp;P(turn&amp;nbsp; &amp;nbsp;| Brk) : .01&lt;br style=&quot;border-color: var(--border-color);&quot;&gt;Trn: P(move | Trn) : .05&lt;br style=&quot;border-color: var(--border-color);&quot;&gt;Trn: P(stay&amp;nbsp; &amp;nbsp;| Trn) : .05&lt;br&gt;Trn: P(turn&amp;nbsp; &amp;nbsp;| Trn) : .90&lt;/font&gt;" style="text;html=1;align=left;verticalAlign=middle;resizable=0;points=[];autosize=1;strokeColor=none;fillColor=none;" parent="Nt9SSNV7IdZdMpz9-7pT-155" vertex="1">
          <mxGeometry x="270" y="60" width="150" height="160" as="geometry" />
        </mxCell>
        <mxCell id="Nt9SSNV7IdZdMpz9-7pT-156" value="" style="group" parent="1" vertex="1" connectable="0">
          <mxGeometry x="280" y="320" width="240" height="480" as="geometry" />
        </mxCell>
        <mxCell id="Nt9SSNV7IdZdMpz9-7pT-5" value="" style="rounded=0;whiteSpace=wrap;html=1;" parent="Nt9SSNV7IdZdMpz9-7pT-156" vertex="1">
          <mxGeometry x="160" y="240" width="80" height="80" as="geometry" />
        </mxCell>
        <mxCell id="Nt9SSNV7IdZdMpz9-7pT-6" value="" style="rounded=0;whiteSpace=wrap;html=1;" parent="Nt9SSNV7IdZdMpz9-7pT-156" vertex="1">
          <mxGeometry x="80" y="160" width="80" height="80" as="geometry" />
        </mxCell>
        <mxCell id="Nt9SSNV7IdZdMpz9-7pT-7" value="" style="rounded=0;whiteSpace=wrap;html=1;" parent="Nt9SSNV7IdZdMpz9-7pT-156" vertex="1">
          <mxGeometry x="80" y="240" width="80" height="80" as="geometry" />
        </mxCell>
        <mxCell id="Nt9SSNV7IdZdMpz9-7pT-8" value="" style="rounded=0;whiteSpace=wrap;html=1;" parent="Nt9SSNV7IdZdMpz9-7pT-156" vertex="1">
          <mxGeometry x="80" y="320" width="80" height="80" as="geometry" />
        </mxCell>
        <mxCell id="Nt9SSNV7IdZdMpz9-7pT-9" value="" style="rounded=0;whiteSpace=wrap;html=1;" parent="Nt9SSNV7IdZdMpz9-7pT-156" vertex="1">
          <mxGeometry x="160" y="320" width="80" height="80" as="geometry" />
        </mxCell>
        <mxCell id="Nt9SSNV7IdZdMpz9-7pT-10" value="" style="rounded=0;whiteSpace=wrap;html=1;" parent="Nt9SSNV7IdZdMpz9-7pT-156" vertex="1">
          <mxGeometry x="160" y="400" width="80" height="80" as="geometry" />
        </mxCell>
        <mxCell id="Nt9SSNV7IdZdMpz9-7pT-11" value="" style="rounded=0;whiteSpace=wrap;html=1;" parent="Nt9SSNV7IdZdMpz9-7pT-156" vertex="1">
          <mxGeometry y="240" width="80" height="80" as="geometry" />
        </mxCell>
        <mxCell id="Nt9SSNV7IdZdMpz9-7pT-12" value="" style="rounded=0;whiteSpace=wrap;html=1;" parent="Nt9SSNV7IdZdMpz9-7pT-156" vertex="1">
          <mxGeometry x="160" y="160" width="80" height="80" as="geometry" />
        </mxCell>
        <mxCell id="Nt9SSNV7IdZdMpz9-7pT-13" value="" style="rounded=0;whiteSpace=wrap;html=1;" parent="Nt9SSNV7IdZdMpz9-7pT-156" vertex="1">
          <mxGeometry x="80" y="80" width="80" height="80" as="geometry" />
        </mxCell>
        <mxCell id="Nt9SSNV7IdZdMpz9-7pT-14" value="" style="rounded=0;whiteSpace=wrap;html=1;" parent="Nt9SSNV7IdZdMpz9-7pT-156" vertex="1">
          <mxGeometry x="80" width="80" height="80" as="geometry" />
        </mxCell>
        <mxCell id="Nt9SSNV7IdZdMpz9-7pT-2" value="" style="shape=mxgraph.signs.transportation.airplane_5;html=1;pointerEvents=1;fillColor=#EA6B66;strokeColor=none;verticalLabelPosition=bottom;verticalAlign=top;align=center;" parent="Nt9SSNV7IdZdMpz9-7pT-156" vertex="1">
          <mxGeometry x="181.25" y="416" width="37.5" height="48" as="geometry" />
        </mxCell>
        <mxCell id="Nt9SSNV7IdZdMpz9-7pT-15" value="" style="shape=mxgraph.signs.transportation.airplane_5;html=1;pointerEvents=1;fillColor=#0967FA;strokeColor=none;verticalLabelPosition=bottom;verticalAlign=top;align=center;rotation=-180;" parent="Nt9SSNV7IdZdMpz9-7pT-156" vertex="1">
          <mxGeometry x="100" y="16" width="37.5" height="48" as="geometry" />
        </mxCell>
        <mxCell id="Nt9SSNV7IdZdMpz9-7pT-44" value="" style="endArrow=none;dashed=1;html=1;rounded=0;entryX=0.5;entryY=0;entryDx=0;entryDy=0;entryPerimeter=0;fillColor=#0967FA;strokeColor=#0967FA;" parent="Nt9SSNV7IdZdMpz9-7pT-156" target="Nt9SSNV7IdZdMpz9-7pT-43" edge="1">
          <mxGeometry width="50" height="50" relative="1" as="geometry">
            <mxPoint x="120" y="360" as="sourcePoint" />
            <mxPoint x="119" y="64" as="targetPoint" />
          </mxGeometry>
        </mxCell>
        <mxCell id="Nt9SSNV7IdZdMpz9-7pT-45" value="" style="group" parent="Nt9SSNV7IdZdMpz9-7pT-156" vertex="1" connectable="0">
          <mxGeometry x="25" y="265" width="175" height="30" as="geometry" />
        </mxCell>
        <mxCell id="Nt9SSNV7IdZdMpz9-7pT-38" value="" style="group" parent="Nt9SSNV7IdZdMpz9-7pT-45" vertex="1" connectable="0">
          <mxGeometry x="165" y="15" width="10" height="10" as="geometry" />
        </mxCell>
        <mxCell id="Nt9SSNV7IdZdMpz9-7pT-34" value="" style="endArrow=none;dashed=1;html=1;rounded=0;strokeColor=#EA6B66;" parent="Nt9SSNV7IdZdMpz9-7pT-38" edge="1">
          <mxGeometry width="50" height="50" relative="1" as="geometry">
            <mxPoint x="-150" as="sourcePoint" />
            <mxPoint as="targetPoint" />
          </mxGeometry>
        </mxCell>
        <mxCell id="Nt9SSNV7IdZdMpz9-7pT-35" value="" style="endArrow=none;dashed=1;html=1;rounded=0;exitX=0.5;exitY=0;exitDx=0;exitDy=0;exitPerimeter=0;strokeColor=#EA6B66;" parent="Nt9SSNV7IdZdMpz9-7pT-38" source="Nt9SSNV7IdZdMpz9-7pT-2" edge="1">
          <mxGeometry width="50" height="50" relative="1" as="geometry">
            <mxPoint x="-70" y="40" as="sourcePoint" />
            <mxPoint x="10" y="10" as="targetPoint" />
          </mxGeometry>
        </mxCell>
        <mxCell id="Nt9SSNV7IdZdMpz9-7pT-37" value="" style="endArrow=none;dashed=1;html=1;rounded=0;edgeStyle=orthogonalEdgeStyle;curved=1;strokeColor=#EA6B66;" parent="Nt9SSNV7IdZdMpz9-7pT-38" edge="1">
          <mxGeometry width="50" height="50" relative="1" as="geometry">
            <mxPoint x="10" y="10" as="sourcePoint" />
            <mxPoint as="targetPoint" />
            <Array as="points">
              <mxPoint x="10" />
            </Array>
          </mxGeometry>
        </mxCell>
        <mxCell id="Nt9SSNV7IdZdMpz9-7pT-41" value="" style="ellipse;whiteSpace=wrap;html=1;aspect=fixed;fillColor=#EA6B66;strokeColor=#EA6B66;" parent="Nt9SSNV7IdZdMpz9-7pT-45" vertex="1">
          <mxGeometry width="30" height="30" as="geometry" />
        </mxCell>
        <mxCell id="Nt9SSNV7IdZdMpz9-7pT-46" value="" style="group" parent="Nt9SSNV7IdZdMpz9-7pT-156" vertex="1" connectable="0">
          <mxGeometry x="105" y="345" width="30" height="30" as="geometry" />
        </mxCell>
        <mxCell id="Nt9SSNV7IdZdMpz9-7pT-43" value="" style="ellipse;whiteSpace=wrap;html=1;aspect=fixed;fillColor=#0967FA;strokeColor=#0967FA;" parent="Nt9SSNV7IdZdMpz9-7pT-46" vertex="1">
          <mxGeometry width="30" height="30" as="geometry" />
        </mxCell>
        <mxCell id="Nt9SSNV7IdZdMpz9-7pT-39" value="" style="endArrow=none;dashed=1;html=1;rounded=0;entryX=0.5;entryY=0;entryDx=0;entryDy=0;entryPerimeter=0;fillColor=#0967FA;strokeColor=#0967FA;" parent="Nt9SSNV7IdZdMpz9-7pT-156" source="Nt9SSNV7IdZdMpz9-7pT-43" target="Nt9SSNV7IdZdMpz9-7pT-15" edge="1">
          <mxGeometry width="50" height="50" relative="1" as="geometry">
            <mxPoint x="-265" y="-305" as="sourcePoint" />
            <mxPoint x="-215" y="-485" as="targetPoint" />
          </mxGeometry>
        </mxCell>
        <mxCell id="Nt9SSNV7IdZdMpz9-7pT-48" value="" style="endArrow=none;dashed=1;html=1;rounded=0;strokeColor=#EA6B66;" parent="Nt9SSNV7IdZdMpz9-7pT-156" edge="1">
          <mxGeometry width="50" height="50" relative="1" as="geometry">
            <mxPoint x="200" y="290" as="sourcePoint" />
            <mxPoint x="200" y="200" as="targetPoint" />
          </mxGeometry>
        </mxCell>
        <mxCell id="Nt9SSNV7IdZdMpz9-7pT-49" value="&lt;font style=&quot;font-size: 10px;&quot; color=&quot;#ea6b66&quot;&gt;a1&lt;/font&gt;" style="text;html=1;align=center;verticalAlign=middle;resizable=0;points=[];autosize=1;strokeColor=none;fillColor=none;" parent="Nt9SSNV7IdZdMpz9-7pT-156" vertex="1">
          <mxGeometry x="210" y="400" width="30" height="30" as="geometry" />
        </mxCell>
        <mxCell id="Nt9SSNV7IdZdMpz9-7pT-50" value="&lt;font style=&quot;font-size: 10px;&quot; color=&quot;#ea6b66&quot;&gt;a2&lt;/font&gt;" style="text;html=1;align=center;verticalAlign=middle;resizable=0;points=[];autosize=1;strokeColor=none;fillColor=none;" parent="Nt9SSNV7IdZdMpz9-7pT-156" vertex="1">
          <mxGeometry x="210" y="320" width="30" height="30" as="geometry" />
        </mxCell>
        <mxCell id="Nt9SSNV7IdZdMpz9-7pT-51" value="&lt;font style=&quot;font-size: 10px;&quot; color=&quot;#ea6b66&quot;&gt;a3&lt;/font&gt;" style="text;html=1;align=center;verticalAlign=middle;resizable=0;points=[];autosize=1;strokeColor=none;fillColor=none;" parent="Nt9SSNV7IdZdMpz9-7pT-156" vertex="1">
          <mxGeometry x="210" y="240" width="30" height="30" as="geometry" />
        </mxCell>
        <mxCell id="Nt9SSNV7IdZdMpz9-7pT-52" value="&lt;font style=&quot;font-size: 10px;&quot; color=&quot;#ea6b66&quot;&gt;a4&lt;/font&gt;" style="text;html=1;align=center;verticalAlign=middle;resizable=0;points=[];autosize=1;strokeColor=none;fillColor=none;" parent="Nt9SSNV7IdZdMpz9-7pT-156" vertex="1">
          <mxGeometry x="209.99571428571426" y="159.99666666666667" width="30" height="30" as="geometry" />
        </mxCell>
        <mxCell id="Nt9SSNV7IdZdMpz9-7pT-53" value="&lt;font style=&quot;font-size: 10px;&quot; color=&quot;#ea6b66&quot;&gt;a5&lt;/font&gt;" style="text;html=1;align=center;verticalAlign=middle;resizable=0;points=[];autosize=1;strokeColor=none;fillColor=none;" parent="Nt9SSNV7IdZdMpz9-7pT-156" vertex="1">
          <mxGeometry x="130" y="240" width="30" height="30" as="geometry" />
        </mxCell>
        <mxCell id="Nt9SSNV7IdZdMpz9-7pT-54" value="&lt;font style=&quot;font-size: 10px;&quot; color=&quot;#ea6b66&quot;&gt;a6&lt;/font&gt;" style="text;html=1;align=center;verticalAlign=middle;resizable=0;points=[];autosize=1;strokeColor=none;fillColor=none;" parent="Nt9SSNV7IdZdMpz9-7pT-156" vertex="1">
          <mxGeometry x="50" y="240" width="30" height="30" as="geometry" />
        </mxCell>
        <mxCell id="Nt9SSNV7IdZdMpz9-7pT-55" value="&lt;font color=&quot;#007fff&quot;&gt;&lt;span style=&quot;font-size: 10px;&quot;&gt;b1&lt;/span&gt;&lt;/font&gt;" style="text;html=1;align=center;verticalAlign=middle;resizable=0;points=[];autosize=1;strokeColor=none;fillColor=none;" parent="Nt9SSNV7IdZdMpz9-7pT-156" vertex="1">
          <mxGeometry x="79.99571428571426" y="49.99666666666667" width="30" height="30" as="geometry" />
        </mxCell>
        <mxCell id="Nt9SSNV7IdZdMpz9-7pT-56" value="&lt;font color=&quot;#007fff&quot;&gt;&lt;span style=&quot;font-size: 10px;&quot;&gt;b2&lt;/span&gt;&lt;/font&gt;" style="text;html=1;align=center;verticalAlign=middle;resizable=0;points=[];autosize=1;strokeColor=none;fillColor=none;" parent="Nt9SSNV7IdZdMpz9-7pT-156" vertex="1">
          <mxGeometry x="79.99571428571426" y="129.99666666666667" width="30" height="30" as="geometry" />
        </mxCell>
        <mxCell id="Nt9SSNV7IdZdMpz9-7pT-57" value="&lt;font color=&quot;#007fff&quot;&gt;&lt;span style=&quot;font-size: 10px;&quot;&gt;b3&lt;/span&gt;&lt;/font&gt;" style="text;html=1;align=center;verticalAlign=middle;resizable=0;points=[];autosize=1;strokeColor=none;fillColor=none;" parent="Nt9SSNV7IdZdMpz9-7pT-156" vertex="1">
          <mxGeometry x="79.99571428571426" y="209.99666666666667" width="30" height="30" as="geometry" />
        </mxCell>
        <mxCell id="Nt9SSNV7IdZdMpz9-7pT-58" value="&lt;font color=&quot;#007fff&quot;&gt;&lt;span style=&quot;font-size: 10px;&quot;&gt;b4&lt;/span&gt;&lt;/font&gt;" style="text;html=1;align=center;verticalAlign=middle;resizable=0;points=[];autosize=1;strokeColor=none;fillColor=none;" parent="Nt9SSNV7IdZdMpz9-7pT-156" vertex="1">
          <mxGeometry x="79.99571428571426" y="289.99666666666667" width="30" height="30" as="geometry" />
        </mxCell>
        <mxCell id="Nt9SSNV7IdZdMpz9-7pT-59" value="&lt;font color=&quot;#007fff&quot;&gt;&lt;span style=&quot;font-size: 10px;&quot;&gt;b5&lt;/span&gt;&lt;/font&gt;" style="text;html=1;align=center;verticalAlign=middle;resizable=0;points=[];autosize=1;strokeColor=none;fillColor=none;" parent="Nt9SSNV7IdZdMpz9-7pT-156" vertex="1">
          <mxGeometry x="79.99571428571426" y="369.99666666666667" width="30" height="30" as="geometry" />
        </mxCell>
        <mxCell id="Nt9SSNV7IdZdMpz9-7pT-23" value="" style="group" parent="Nt9SSNV7IdZdMpz9-7pT-156" vertex="1" connectable="0">
          <mxGeometry x="170" y="180" width="60" height="50" as="geometry" />
        </mxCell>
        <mxCell id="Nt9SSNV7IdZdMpz9-7pT-18" value="" style="verticalLabelPosition=bottom;verticalAlign=top;html=1;shape=mxgraph.basic.flash;fillColor=#FFFF00;" parent="Nt9SSNV7IdZdMpz9-7pT-23" vertex="1">
          <mxGeometry x="12.857142857142856" y="22.727272727272727" width="12.857142857142856" height="22.727272727272727" as="geometry" />
        </mxCell>
        <mxCell id="Nt9SSNV7IdZdMpz9-7pT-20" value="" style="verticalLabelPosition=bottom;verticalAlign=top;html=1;shape=mxgraph.basic.flash;fillColor=#FFFF00;" parent="Nt9SSNV7IdZdMpz9-7pT-23" vertex="1">
          <mxGeometry x="30" y="27.272727272727273" width="12.857142857142856" height="22.727272727272727" as="geometry" />
        </mxCell>
        <mxCell id="Nt9SSNV7IdZdMpz9-7pT-19" value="" style="ellipse;shape=cloud;whiteSpace=wrap;html=1;fillColor=#CCCCCC;" parent="Nt9SSNV7IdZdMpz9-7pT-23" vertex="1">
          <mxGeometry width="51.42857142857142" height="36.36363636363636" as="geometry" />
        </mxCell>
        <mxCell id="Nt9SSNV7IdZdMpz9-7pT-157" value="" style="group" parent="1" vertex="1" connectable="0">
          <mxGeometry x="600" y="330" width="400" height="400" as="geometry" />
        </mxCell>
        <mxCell id="Nt9SSNV7IdZdMpz9-7pT-111" value="" style="rounded=0;whiteSpace=wrap;html=1;" parent="Nt9SSNV7IdZdMpz9-7pT-157" vertex="1">
          <mxGeometry x="160" y="160" width="80" height="80" as="geometry" />
        </mxCell>
        <mxCell id="Nt9SSNV7IdZdMpz9-7pT-113" value="" style="rounded=0;whiteSpace=wrap;html=1;" parent="Nt9SSNV7IdZdMpz9-7pT-157" vertex="1">
          <mxGeometry x="160" y="240" width="80" height="80" as="geometry" />
        </mxCell>
        <mxCell id="Nt9SSNV7IdZdMpz9-7pT-114" value="" style="rounded=0;whiteSpace=wrap;html=1;" parent="Nt9SSNV7IdZdMpz9-7pT-157" vertex="1">
          <mxGeometry x="80" y="160" width="80" height="80" as="geometry" />
        </mxCell>
        <mxCell id="Nt9SSNV7IdZdMpz9-7pT-115" value="" style="rounded=0;whiteSpace=wrap;html=1;" parent="Nt9SSNV7IdZdMpz9-7pT-157" vertex="1">
          <mxGeometry x="80" y="240" width="80" height="80" as="geometry" />
        </mxCell>
        <mxCell id="Nt9SSNV7IdZdMpz9-7pT-116" value="" style="rounded=0;whiteSpace=wrap;html=1;" parent="Nt9SSNV7IdZdMpz9-7pT-157" vertex="1">
          <mxGeometry x="80" y="320" width="80" height="80" as="geometry" />
        </mxCell>
        <mxCell id="Nt9SSNV7IdZdMpz9-7pT-117" value="" style="rounded=0;whiteSpace=wrap;html=1;" parent="Nt9SSNV7IdZdMpz9-7pT-157" vertex="1">
          <mxGeometry x="240" y="240" width="80" height="80" as="geometry" />
        </mxCell>
        <mxCell id="Nt9SSNV7IdZdMpz9-7pT-118" value="" style="rounded=0;whiteSpace=wrap;html=1;" parent="Nt9SSNV7IdZdMpz9-7pT-157" vertex="1">
          <mxGeometry x="320" y="240" width="80" height="80" as="geometry" />
        </mxCell>
        <mxCell id="Nt9SSNV7IdZdMpz9-7pT-119" value="" style="rounded=0;whiteSpace=wrap;html=1;" parent="Nt9SSNV7IdZdMpz9-7pT-157" vertex="1">
          <mxGeometry y="240" width="80" height="80" as="geometry" />
        </mxCell>
        <mxCell id="Nt9SSNV7IdZdMpz9-7pT-120" value="" style="rounded=0;whiteSpace=wrap;html=1;" parent="Nt9SSNV7IdZdMpz9-7pT-157" vertex="1">
          <mxGeometry x="80" y="80" width="80" height="80" as="geometry" />
        </mxCell>
        <mxCell id="Nt9SSNV7IdZdMpz9-7pT-121" value="" style="rounded=0;whiteSpace=wrap;html=1;" parent="Nt9SSNV7IdZdMpz9-7pT-157" vertex="1">
          <mxGeometry x="80" width="80" height="80" as="geometry" />
        </mxCell>
        <mxCell id="Nt9SSNV7IdZdMpz9-7pT-122" value="" style="shape=mxgraph.signs.transportation.airplane_5;html=1;pointerEvents=1;fillColor=#EA6B66;strokeColor=none;verticalLabelPosition=bottom;verticalAlign=top;align=center;rotation=-90;" parent="Nt9SSNV7IdZdMpz9-7pT-157" vertex="1">
          <mxGeometry x="341.25" y="256" width="37.5" height="48" as="geometry" />
        </mxCell>
        <mxCell id="Nt9SSNV7IdZdMpz9-7pT-123" value="" style="shape=mxgraph.signs.transportation.airplane_5;html=1;pointerEvents=1;fillColor=#0967FA;strokeColor=none;verticalLabelPosition=bottom;verticalAlign=top;align=center;rotation=-180;" parent="Nt9SSNV7IdZdMpz9-7pT-157" vertex="1">
          <mxGeometry x="100" y="16" width="37.5" height="48" as="geometry" />
        </mxCell>
        <mxCell id="Nt9SSNV7IdZdMpz9-7pT-124" value="" style="endArrow=none;dashed=1;html=1;rounded=0;entryX=0.5;entryY=0;entryDx=0;entryDy=0;entryPerimeter=0;fillColor=#0967FA;strokeColor=#0967FA;" parent="Nt9SSNV7IdZdMpz9-7pT-157" target="Nt9SSNV7IdZdMpz9-7pT-128" edge="1">
          <mxGeometry width="50" height="50" relative="1" as="geometry">
            <mxPoint x="120" y="360" as="sourcePoint" />
            <mxPoint x="119" y="64" as="targetPoint" />
          </mxGeometry>
        </mxCell>
        <mxCell id="Nt9SSNV7IdZdMpz9-7pT-125" value="" style="group" parent="Nt9SSNV7IdZdMpz9-7pT-157" vertex="1" connectable="0">
          <mxGeometry x="25" y="265" width="175" height="30" as="geometry" />
        </mxCell>
        <mxCell id="Nt9SSNV7IdZdMpz9-7pT-126" value="" style="ellipse;whiteSpace=wrap;html=1;aspect=fixed;fillColor=#EA6B66;strokeColor=#EA6B66;" parent="Nt9SSNV7IdZdMpz9-7pT-125" vertex="1">
          <mxGeometry width="30" height="30" as="geometry" />
        </mxCell>
        <mxCell id="Nt9SSNV7IdZdMpz9-7pT-127" value="" style="group" parent="Nt9SSNV7IdZdMpz9-7pT-157" vertex="1" connectable="0">
          <mxGeometry x="105" y="345" width="30" height="30" as="geometry" />
        </mxCell>
        <mxCell id="Nt9SSNV7IdZdMpz9-7pT-128" value="" style="ellipse;whiteSpace=wrap;html=1;aspect=fixed;fillColor=#0967FA;strokeColor=#0967FA;" parent="Nt9SSNV7IdZdMpz9-7pT-127" vertex="1">
          <mxGeometry width="30" height="30" as="geometry" />
        </mxCell>
        <mxCell id="Nt9SSNV7IdZdMpz9-7pT-129" value="" style="endArrow=none;dashed=1;html=1;rounded=0;entryX=0.5;entryY=0;entryDx=0;entryDy=0;entryPerimeter=0;fillColor=#0967FA;strokeColor=#0967FA;" parent="Nt9SSNV7IdZdMpz9-7pT-157" source="Nt9SSNV7IdZdMpz9-7pT-128" target="Nt9SSNV7IdZdMpz9-7pT-123" edge="1">
          <mxGeometry width="50" height="50" relative="1" as="geometry">
            <mxPoint x="-265" y="-305" as="sourcePoint" />
            <mxPoint x="-215" y="-485" as="targetPoint" />
          </mxGeometry>
        </mxCell>
        <mxCell id="Nt9SSNV7IdZdMpz9-7pT-130" value="" style="endArrow=none;dashed=1;html=1;rounded=0;strokeColor=#EA6B66;" parent="Nt9SSNV7IdZdMpz9-7pT-157" source="Nt9SSNV7IdZdMpz9-7pT-111" edge="1">
          <mxGeometry width="50" height="50" relative="1" as="geometry">
            <mxPoint x="200" y="270" as="sourcePoint" />
            <mxPoint x="200" y="210" as="targetPoint" />
          </mxGeometry>
        </mxCell>
        <mxCell id="Nt9SSNV7IdZdMpz9-7pT-131" value="&lt;font style=&quot;font-size: 10px;&quot; color=&quot;#ea6b66&quot;&gt;a1&lt;/font&gt;" style="text;html=1;align=center;verticalAlign=middle;resizable=0;points=[];autosize=1;strokeColor=none;fillColor=none;" parent="Nt9SSNV7IdZdMpz9-7pT-157" vertex="1">
          <mxGeometry x="370" y="240" width="30" height="30" as="geometry" />
        </mxCell>
        <mxCell id="Nt9SSNV7IdZdMpz9-7pT-132" value="&lt;font style=&quot;font-size: 10px;&quot; color=&quot;#ea6b66&quot;&gt;a2&lt;/font&gt;" style="text;html=1;align=center;verticalAlign=middle;resizable=0;points=[];autosize=1;strokeColor=none;fillColor=none;" parent="Nt9SSNV7IdZdMpz9-7pT-157" vertex="1">
          <mxGeometry x="290" y="240" width="30" height="30" as="geometry" />
        </mxCell>
        <mxCell id="Nt9SSNV7IdZdMpz9-7pT-133" value="&lt;font style=&quot;font-size: 10px;&quot; color=&quot;#ea6b66&quot;&gt;a3&lt;/font&gt;" style="text;html=1;align=center;verticalAlign=middle;resizable=0;points=[];autosize=1;strokeColor=none;fillColor=none;" parent="Nt9SSNV7IdZdMpz9-7pT-157" vertex="1">
          <mxGeometry x="210" y="240" width="30" height="30" as="geometry" />
        </mxCell>
        <mxCell id="Nt9SSNV7IdZdMpz9-7pT-134" value="&lt;font style=&quot;font-size: 10px;&quot; color=&quot;#ea6b66&quot;&gt;a4&lt;/font&gt;" style="text;html=1;align=center;verticalAlign=middle;resizable=0;points=[];autosize=1;strokeColor=none;fillColor=none;" parent="Nt9SSNV7IdZdMpz9-7pT-157" vertex="1">
          <mxGeometry x="129.99571428571426" y="239.99666666666667" width="30" height="30" as="geometry" />
        </mxCell>
        <mxCell id="Nt9SSNV7IdZdMpz9-7pT-135" value="&lt;font style=&quot;font-size: 10px;&quot; color=&quot;#ea6b66&quot;&gt;a5&lt;/font&gt;" style="text;html=1;align=center;verticalAlign=middle;resizable=0;points=[];autosize=1;strokeColor=none;fillColor=none;" parent="Nt9SSNV7IdZdMpz9-7pT-157" vertex="1">
          <mxGeometry x="50" y="240" width="30" height="30" as="geometry" />
        </mxCell>
        <mxCell id="Nt9SSNV7IdZdMpz9-7pT-136" value="&lt;font style=&quot;font-size: 10px;&quot; color=&quot;#ea6b66&quot;&gt;a6&lt;/font&gt;" style="text;html=1;align=center;verticalAlign=middle;resizable=0;points=[];autosize=1;strokeColor=none;fillColor=none;" parent="Nt9SSNV7IdZdMpz9-7pT-157" vertex="1">
          <mxGeometry x="210" y="160" width="30" height="30" as="geometry" />
        </mxCell>
        <mxCell id="Nt9SSNV7IdZdMpz9-7pT-137" value="&lt;font color=&quot;#007fff&quot;&gt;&lt;span style=&quot;font-size: 10px;&quot;&gt;b1&lt;/span&gt;&lt;/font&gt;" style="text;html=1;align=center;verticalAlign=middle;resizable=0;points=[];autosize=1;strokeColor=none;fillColor=none;" parent="Nt9SSNV7IdZdMpz9-7pT-157" vertex="1">
          <mxGeometry x="79.99571428571426" y="49.99666666666667" width="30" height="30" as="geometry" />
        </mxCell>
        <mxCell id="Nt9SSNV7IdZdMpz9-7pT-138" value="&lt;font color=&quot;#007fff&quot;&gt;&lt;span style=&quot;font-size: 10px;&quot;&gt;b2&lt;/span&gt;&lt;/font&gt;" style="text;html=1;align=center;verticalAlign=middle;resizable=0;points=[];autosize=1;strokeColor=none;fillColor=none;" parent="Nt9SSNV7IdZdMpz9-7pT-157" vertex="1">
          <mxGeometry x="79.99571428571426" y="129.99666666666667" width="30" height="30" as="geometry" />
        </mxCell>
        <mxCell id="Nt9SSNV7IdZdMpz9-7pT-139" value="&lt;font color=&quot;#007fff&quot;&gt;&lt;span style=&quot;font-size: 10px;&quot;&gt;b3&lt;/span&gt;&lt;/font&gt;" style="text;html=1;align=center;verticalAlign=middle;resizable=0;points=[];autosize=1;strokeColor=none;fillColor=none;" parent="Nt9SSNV7IdZdMpz9-7pT-157" vertex="1">
          <mxGeometry x="79.99571428571426" y="209.99666666666667" width="30" height="30" as="geometry" />
        </mxCell>
        <mxCell id="Nt9SSNV7IdZdMpz9-7pT-140" value="&lt;font color=&quot;#007fff&quot;&gt;&lt;span style=&quot;font-size: 10px;&quot;&gt;b4&lt;/span&gt;&lt;/font&gt;" style="text;html=1;align=center;verticalAlign=middle;resizable=0;points=[];autosize=1;strokeColor=none;fillColor=none;" parent="Nt9SSNV7IdZdMpz9-7pT-157" vertex="1">
          <mxGeometry x="79.99571428571426" y="289.99666666666667" width="30" height="30" as="geometry" />
        </mxCell>
        <mxCell id="Nt9SSNV7IdZdMpz9-7pT-141" value="&lt;font color=&quot;#007fff&quot;&gt;&lt;span style=&quot;font-size: 10px;&quot;&gt;b5&lt;/span&gt;&lt;/font&gt;" style="text;html=1;align=center;verticalAlign=middle;resizable=0;points=[];autosize=1;strokeColor=none;fillColor=none;" parent="Nt9SSNV7IdZdMpz9-7pT-157" vertex="1">
          <mxGeometry x="79.99571428571426" y="369.99666666666667" width="30" height="30" as="geometry" />
        </mxCell>
        <mxCell id="Nt9SSNV7IdZdMpz9-7pT-142" value="" style="group" parent="Nt9SSNV7IdZdMpz9-7pT-157" vertex="1" connectable="0">
          <mxGeometry x="170" y="180" width="60" height="50" as="geometry" />
        </mxCell>
        <mxCell id="Nt9SSNV7IdZdMpz9-7pT-143" value="" style="verticalLabelPosition=bottom;verticalAlign=top;html=1;shape=mxgraph.basic.flash;fillColor=#FFFF00;" parent="Nt9SSNV7IdZdMpz9-7pT-142" vertex="1">
          <mxGeometry x="12.857142857142856" y="22.727272727272727" width="12.857142857142856" height="22.727272727272727" as="geometry" />
        </mxCell>
        <mxCell id="Nt9SSNV7IdZdMpz9-7pT-144" value="" style="verticalLabelPosition=bottom;verticalAlign=top;html=1;shape=mxgraph.basic.flash;fillColor=#FFFF00;" parent="Nt9SSNV7IdZdMpz9-7pT-142" vertex="1">
          <mxGeometry x="30" y="27.272727272727273" width="12.857142857142856" height="22.727272727272727" as="geometry" />
        </mxCell>
        <mxCell id="Nt9SSNV7IdZdMpz9-7pT-145" value="" style="ellipse;shape=cloud;whiteSpace=wrap;html=1;fillColor=#CCCCCC;" parent="Nt9SSNV7IdZdMpz9-7pT-142" vertex="1">
          <mxGeometry width="51.42857142857142" height="36.36363636363636" as="geometry" />
        </mxCell>
        <mxCell id="Nt9SSNV7IdZdMpz9-7pT-146" value="" style="endArrow=none;dashed=1;html=1;rounded=0;strokeColor=#EA6B66;exitX=0.5;exitY=0;exitDx=0;exitDy=0;exitPerimeter=0;entryX=1;entryY=0.5;entryDx=0;entryDy=0;" parent="Nt9SSNV7IdZdMpz9-7pT-157" source="Nt9SSNV7IdZdMpz9-7pT-122" target="Nt9SSNV7IdZdMpz9-7pT-126" edge="1">
          <mxGeometry width="50" height="50" relative="1" as="geometry">
            <mxPoint x="210" y="300" as="sourcePoint" />
            <mxPoint x="210" y="210" as="targetPoint" />
          </mxGeometry>
        </mxCell>
        <mxCell id="Nt9SSNV7IdZdMpz9-7pT-147" value="" style="endArrow=none;dashed=1;html=1;rounded=0;edgeStyle=orthogonalEdgeStyle;curved=1;strokeColor=#EA6B66;" parent="Nt9SSNV7IdZdMpz9-7pT-157" edge="1">
          <mxGeometry width="50" height="50" relative="1" as="geometry">
            <mxPoint x="210" y="280" as="sourcePoint" />
            <mxPoint x="200" y="270" as="targetPoint" />
          </mxGeometry>
        </mxCell>
        <mxCell id="Nt9SSNV7IdZdMpz9-7pT-153" value="" style="endArrow=none;dashed=1;html=1;rounded=0;strokeColor=#EA6B66;" parent="Nt9SSNV7IdZdMpz9-7pT-157" target="Nt9SSNV7IdZdMpz9-7pT-111" edge="1">
          <mxGeometry width="50" height="50" relative="1" as="geometry">
            <mxPoint x="200" y="270" as="sourcePoint" />
            <mxPoint x="200" y="210" as="targetPoint" />
          </mxGeometry>
        </mxCell>
        <mxCell id="Nt9SSNV7IdZdMpz9-7pT-161" value="OLD" style="text;html=1;align=center;verticalAlign=middle;resizable=0;points=[];autosize=1;strokeColor=none;fillColor=none;" parent="1" vertex="1">
          <mxGeometry x="275" y="278" width="50" height="30" as="geometry" />
        </mxCell>
        <mxCell id="Nt9SSNV7IdZdMpz9-7pT-162" value="A" style="text;html=1;align=center;verticalAlign=middle;resizable=0;points=[];autosize=1;strokeColor=none;fillColor=none;" parent="1" vertex="1">
          <mxGeometry x="635" y="288" width="30" height="30" as="geometry" />
        </mxCell>
        <mxCell id="Nt9SSNV7IdZdMpz9-7pT-163" value="B" style="text;html=1;align=center;verticalAlign=middle;resizable=0;points=[];autosize=1;strokeColor=none;fillColor=none;" parent="1" vertex="1">
          <mxGeometry x="1095" y="278" width="30" height="30" as="geometry" />
        </mxCell>
        <mxCell id="Nt9SSNV7IdZdMpz9-7pT-212" value="&lt;font color=&quot;#3399ff&quot;&gt;P(move) : .80&lt;br&gt;P(stay)&amp;nbsp; &amp;nbsp;: .20&lt;/font&gt;" style="text;html=1;align=left;verticalAlign=middle;resizable=0;points=[];autosize=1;strokeColor=none;fillColor=none;" parent="1" vertex="1">
          <mxGeometry x="1322.5" y="340" width="100" height="40" as="geometry" />
        </mxCell>
        <mxCell id="Nt9SSNV7IdZdMpz9-7pT-223" value="" style="group" parent="1" vertex="1" connectable="0">
          <mxGeometry x="600" y="1040" width="640" height="212" as="geometry" />
        </mxCell>
        <mxCell id="Nt9SSNV7IdZdMpz9-7pT-165" value="" style="rounded=0;whiteSpace=wrap;html=1;" parent="Nt9SSNV7IdZdMpz9-7pT-223" vertex="1">
          <mxGeometry x="160" y="52" width="80" height="80" as="geometry" />
        </mxCell>
        <mxCell id="Nt9SSNV7IdZdMpz9-7pT-166" value="" style="rounded=0;whiteSpace=wrap;html=1;" parent="Nt9SSNV7IdZdMpz9-7pT-223" vertex="1">
          <mxGeometry y="52" width="80" height="80" as="geometry" />
        </mxCell>
        <mxCell id="Nt9SSNV7IdZdMpz9-7pT-167" value="" style="rounded=0;whiteSpace=wrap;html=1;" parent="Nt9SSNV7IdZdMpz9-7pT-223" vertex="1">
          <mxGeometry x="160" y="132" width="80" height="80" as="geometry" />
        </mxCell>
        <mxCell id="Nt9SSNV7IdZdMpz9-7pT-168" value="" style="rounded=0;whiteSpace=wrap;html=1;" parent="Nt9SSNV7IdZdMpz9-7pT-223" vertex="1">
          <mxGeometry x="80" y="52" width="80" height="80" as="geometry" />
        </mxCell>
        <mxCell id="Nt9SSNV7IdZdMpz9-7pT-169" value="" style="rounded=0;whiteSpace=wrap;html=1;" parent="Nt9SSNV7IdZdMpz9-7pT-223" vertex="1">
          <mxGeometry x="80" y="132" width="80" height="80" as="geometry" />
        </mxCell>
        <mxCell id="Nt9SSNV7IdZdMpz9-7pT-171" value="" style="rounded=0;whiteSpace=wrap;html=1;" parent="Nt9SSNV7IdZdMpz9-7pT-223" vertex="1">
          <mxGeometry x="240" y="132" width="80" height="80" as="geometry" />
        </mxCell>
        <mxCell id="Nt9SSNV7IdZdMpz9-7pT-172" value="" style="rounded=0;whiteSpace=wrap;html=1;" parent="Nt9SSNV7IdZdMpz9-7pT-223" vertex="1">
          <mxGeometry x="320" y="132" width="80" height="80" as="geometry" />
        </mxCell>
        <mxCell id="Nt9SSNV7IdZdMpz9-7pT-173" value="" style="rounded=0;whiteSpace=wrap;html=1;" parent="Nt9SSNV7IdZdMpz9-7pT-223" vertex="1">
          <mxGeometry y="132" width="80" height="80" as="geometry" />
        </mxCell>
        <mxCell id="Nt9SSNV7IdZdMpz9-7pT-176" value="" style="shape=mxgraph.signs.transportation.airplane_5;html=1;pointerEvents=1;fillColor=#EA6B66;strokeColor=none;verticalLabelPosition=bottom;verticalAlign=top;align=center;rotation=-90;" parent="Nt9SSNV7IdZdMpz9-7pT-223" vertex="1">
          <mxGeometry x="341.25" y="148" width="37.5" height="48" as="geometry" />
        </mxCell>
        <mxCell id="Nt9SSNV7IdZdMpz9-7pT-179" value="" style="group" parent="Nt9SSNV7IdZdMpz9-7pT-223" vertex="1" connectable="0">
          <mxGeometry x="25" y="157" width="175" height="41" as="geometry" />
        </mxCell>
        <mxCell id="Nt9SSNV7IdZdMpz9-7pT-180" value="" style="ellipse;whiteSpace=wrap;html=1;aspect=fixed;fillColor=#EA6B66;strokeColor=#EA6B66;" parent="Nt9SSNV7IdZdMpz9-7pT-179" vertex="1">
          <mxGeometry width="30" height="30" as="geometry" />
        </mxCell>
        <mxCell id="Nt9SSNV7IdZdMpz9-7pT-196" value="" style="group" parent="Nt9SSNV7IdZdMpz9-7pT-179" vertex="1" connectable="0">
          <mxGeometry x="65" y="-9" width="60" height="50" as="geometry" />
        </mxCell>
        <mxCell id="Nt9SSNV7IdZdMpz9-7pT-197" value="" style="verticalLabelPosition=bottom;verticalAlign=top;html=1;shape=mxgraph.basic.flash;fillColor=#FFFF00;" parent="Nt9SSNV7IdZdMpz9-7pT-196" vertex="1">
          <mxGeometry x="12.857142857142856" y="22.727272727272727" width="12.857142857142856" height="22.727272727272727" as="geometry" />
        </mxCell>
        <mxCell id="Nt9SSNV7IdZdMpz9-7pT-198" value="" style="verticalLabelPosition=bottom;verticalAlign=top;html=1;shape=mxgraph.basic.flash;fillColor=#FFFF00;" parent="Nt9SSNV7IdZdMpz9-7pT-196" vertex="1">
          <mxGeometry x="30" y="27.272727272727273" width="12.857142857142856" height="22.727272727272727" as="geometry" />
        </mxCell>
        <mxCell id="Nt9SSNV7IdZdMpz9-7pT-199" value="&lt;font color=&quot;#7f00ff&quot;&gt;???&lt;/font&gt;" style="ellipse;shape=cloud;whiteSpace=wrap;html=1;fillColor=#CCCCCC;" parent="Nt9SSNV7IdZdMpz9-7pT-196" vertex="1">
          <mxGeometry width="51.42857142857142" height="36.36363636363636" as="geometry" />
        </mxCell>
        <mxCell id="Nt9SSNV7IdZdMpz9-7pT-184" value="" style="endArrow=none;dashed=1;html=1;rounded=0;strokeColor=#EA6B66;" parent="Nt9SSNV7IdZdMpz9-7pT-223" source="Nt9SSNV7IdZdMpz9-7pT-165" edge="1">
          <mxGeometry width="50" height="50" relative="1" as="geometry">
            <mxPoint x="200" y="162" as="sourcePoint" />
            <mxPoint x="200" y="102" as="targetPoint" />
          </mxGeometry>
        </mxCell>
        <mxCell id="Nt9SSNV7IdZdMpz9-7pT-185" value="&lt;font style=&quot;font-size: 10px;&quot; color=&quot;#ea6b66&quot;&gt;a1&lt;/font&gt;" style="text;html=1;align=center;verticalAlign=middle;resizable=0;points=[];autosize=1;strokeColor=none;fillColor=none;" parent="Nt9SSNV7IdZdMpz9-7pT-223" vertex="1">
          <mxGeometry x="370" y="132" width="30" height="30" as="geometry" />
        </mxCell>
        <mxCell id="Nt9SSNV7IdZdMpz9-7pT-186" value="&lt;font style=&quot;font-size: 10px;&quot; color=&quot;#ea6b66&quot;&gt;a2&lt;/font&gt;" style="text;html=1;align=center;verticalAlign=middle;resizable=0;points=[];autosize=1;strokeColor=none;fillColor=none;" parent="Nt9SSNV7IdZdMpz9-7pT-223" vertex="1">
          <mxGeometry x="290" y="132" width="30" height="30" as="geometry" />
        </mxCell>
        <mxCell id="Nt9SSNV7IdZdMpz9-7pT-187" value="&lt;font style=&quot;font-size: 10px;&quot; color=&quot;#ea6b66&quot;&gt;a3&lt;/font&gt;" style="text;html=1;align=center;verticalAlign=middle;resizable=0;points=[];autosize=1;strokeColor=none;fillColor=none;" parent="Nt9SSNV7IdZdMpz9-7pT-223" vertex="1">
          <mxGeometry x="210" y="132" width="30" height="30" as="geometry" />
        </mxCell>
        <mxCell id="Nt9SSNV7IdZdMpz9-7pT-188" value="&lt;font style=&quot;font-size: 10px;&quot; color=&quot;#ea6b66&quot;&gt;a4&lt;/font&gt;" style="text;html=1;align=center;verticalAlign=middle;resizable=0;points=[];autosize=1;strokeColor=none;fillColor=none;" parent="Nt9SSNV7IdZdMpz9-7pT-223" vertex="1">
          <mxGeometry x="129.99571428571426" y="131.99666666666667" width="30" height="30" as="geometry" />
        </mxCell>
        <mxCell id="Nt9SSNV7IdZdMpz9-7pT-189" value="&lt;font style=&quot;font-size: 10px;&quot; color=&quot;#ea6b66&quot;&gt;a5&lt;/font&gt;" style="text;html=1;align=center;verticalAlign=middle;resizable=0;points=[];autosize=1;strokeColor=none;fillColor=none;" parent="Nt9SSNV7IdZdMpz9-7pT-223" vertex="1">
          <mxGeometry x="50" y="132" width="30" height="30" as="geometry" />
        </mxCell>
        <mxCell id="Nt9SSNV7IdZdMpz9-7pT-190" value="&lt;font style=&quot;font-size: 10px;&quot; color=&quot;#ea6b66&quot;&gt;a6&lt;/font&gt;" style="text;html=1;align=center;verticalAlign=middle;resizable=0;points=[];autosize=1;strokeColor=none;fillColor=none;" parent="Nt9SSNV7IdZdMpz9-7pT-223" vertex="1">
          <mxGeometry x="210" y="52" width="30" height="30" as="geometry" />
        </mxCell>
        <mxCell id="Nt9SSNV7IdZdMpz9-7pT-200" value="" style="endArrow=none;dashed=1;html=1;rounded=0;strokeColor=#EA6B66;exitX=0.5;exitY=0;exitDx=0;exitDy=0;exitPerimeter=0;entryX=1;entryY=0.5;entryDx=0;entryDy=0;" parent="Nt9SSNV7IdZdMpz9-7pT-223" source="Nt9SSNV7IdZdMpz9-7pT-176" target="Nt9SSNV7IdZdMpz9-7pT-180" edge="1">
          <mxGeometry width="50" height="50" relative="1" as="geometry">
            <mxPoint x="210" y="192" as="sourcePoint" />
            <mxPoint x="210" y="102" as="targetPoint" />
            <Array as="points" />
          </mxGeometry>
        </mxCell>
        <mxCell id="Nt9SSNV7IdZdMpz9-7pT-201" value="" style="endArrow=none;dashed=1;html=1;rounded=0;edgeStyle=orthogonalEdgeStyle;curved=1;strokeColor=#EA6B66;" parent="Nt9SSNV7IdZdMpz9-7pT-223" edge="1">
          <mxGeometry width="50" height="50" relative="1" as="geometry">
            <mxPoint x="210" y="172" as="sourcePoint" />
            <mxPoint x="200" y="162" as="targetPoint" />
          </mxGeometry>
        </mxCell>
        <mxCell id="Nt9SSNV7IdZdMpz9-7pT-202" value="" style="endArrow=none;dashed=1;html=1;rounded=0;strokeColor=#EA6B66;" parent="Nt9SSNV7IdZdMpz9-7pT-223" edge="1">
          <mxGeometry width="50" height="50" relative="1" as="geometry">
            <mxPoint x="50" y="92" as="sourcePoint" />
            <mxPoint x="190" y="92" as="targetPoint" />
          </mxGeometry>
        </mxCell>
        <mxCell id="Nt9SSNV7IdZdMpz9-7pT-203" value="" style="endArrow=none;dashed=1;html=1;rounded=0;strokeColor=#EA6B66;edgeStyle=orthogonalEdgeStyle;curved=1;" parent="Nt9SSNV7IdZdMpz9-7pT-223" edge="1">
          <mxGeometry width="50" height="50" relative="1" as="geometry">
            <mxPoint x="190" y="92" as="sourcePoint" />
            <mxPoint x="200" y="102" as="targetPoint" />
          </mxGeometry>
        </mxCell>
        <mxCell id="Nt9SSNV7IdZdMpz9-7pT-204" value="&lt;font style=&quot;font-size: 10px;&quot; color=&quot;#ea6b66&quot;&gt;a7&lt;/font&gt;" style="text;html=1;align=center;verticalAlign=middle;resizable=0;points=[];autosize=1;strokeColor=none;fillColor=none;" parent="Nt9SSNV7IdZdMpz9-7pT-223" vertex="1">
          <mxGeometry x="130" y="52" width="30" height="30" as="geometry" />
        </mxCell>
        <mxCell id="Nt9SSNV7IdZdMpz9-7pT-205" value="" style="endArrow=none;dashed=1;html=1;rounded=0;strokeColor=#EA6B66;exitX=0.5;exitY=0;exitDx=0;exitDy=0;" parent="Nt9SSNV7IdZdMpz9-7pT-223" source="Nt9SSNV7IdZdMpz9-7pT-180" edge="1">
          <mxGeometry width="50" height="50" relative="1" as="geometry">
            <mxPoint x="-30" y="147" as="sourcePoint" />
            <mxPoint x="40" y="102" as="targetPoint" />
          </mxGeometry>
        </mxCell>
        <mxCell id="Nt9SSNV7IdZdMpz9-7pT-206" value="" style="endArrow=none;dashed=1;html=1;rounded=0;strokeColor=#EA6B66;edgeStyle=orthogonalEdgeStyle;curved=1;" parent="Nt9SSNV7IdZdMpz9-7pT-223" edge="1">
          <mxGeometry width="50" height="50" relative="1" as="geometry">
            <mxPoint x="50" y="92" as="sourcePoint" />
            <mxPoint x="40" y="102" as="targetPoint" />
          </mxGeometry>
        </mxCell>
        <mxCell id="Nt9SSNV7IdZdMpz9-7pT-207" value="" style="endArrow=none;dashed=1;html=1;rounded=0;strokeColor=#EA6B66;" parent="Nt9SSNV7IdZdMpz9-7pT-223" target="Nt9SSNV7IdZdMpz9-7pT-165" edge="1">
          <mxGeometry width="50" height="50" relative="1" as="geometry">
            <mxPoint x="200" y="162" as="sourcePoint" />
            <mxPoint x="200" y="102" as="targetPoint" />
          </mxGeometry>
        </mxCell>
        <mxCell id="Nt9SSNV7IdZdMpz9-7pT-208" value="&lt;font style=&quot;font-size: 10px;&quot; color=&quot;#ea6b66&quot;&gt;a8&lt;/font&gt;" style="text;html=1;align=center;verticalAlign=middle;resizable=0;points=[];autosize=1;strokeColor=none;fillColor=none;" parent="Nt9SSNV7IdZdMpz9-7pT-223" vertex="1">
          <mxGeometry x="50" y="52" width="30" height="30" as="geometry" />
        </mxCell>
        <mxCell id="Nt9SSNV7IdZdMpz9-7pT-215" value="&lt;font color=&quot;#9933ff&quot;&gt;P(stay) : .90&lt;br&gt;P(change): .10&lt;br&gt;&lt;/font&gt;" style="text;html=1;align=left;verticalAlign=middle;resizable=0;points=[];autosize=1;strokeColor=none;fillColor=none;" parent="Nt9SSNV7IdZdMpz9-7pT-223" vertex="1">
          <mxGeometry x="480" y="-5" width="100" height="40" as="geometry" />
        </mxCell>
        <mxCell id="Nt9SSNV7IdZdMpz9-7pT-216" value="" style="group" parent="Nt9SSNV7IdZdMpz9-7pT-223" vertex="1" connectable="0">
          <mxGeometry x="420" width="60" height="50" as="geometry" />
        </mxCell>
        <mxCell id="Nt9SSNV7IdZdMpz9-7pT-217" value="" style="verticalLabelPosition=bottom;verticalAlign=top;html=1;shape=mxgraph.basic.flash;fillColor=#FFFF00;" parent="Nt9SSNV7IdZdMpz9-7pT-216" vertex="1">
          <mxGeometry x="12.857142857142856" y="22.727272727272727" width="12.857142857142856" height="22.727272727272727" as="geometry" />
        </mxCell>
        <mxCell id="Nt9SSNV7IdZdMpz9-7pT-218" value="" style="verticalLabelPosition=bottom;verticalAlign=top;html=1;shape=mxgraph.basic.flash;fillColor=#FFFF00;" parent="Nt9SSNV7IdZdMpz9-7pT-216" vertex="1">
          <mxGeometry x="30" y="27.272727272727273" width="12.857142857142856" height="22.727272727272727" as="geometry" />
        </mxCell>
        <mxCell id="Nt9SSNV7IdZdMpz9-7pT-219" value="&lt;font color=&quot;#7f00ff&quot;&gt;???&lt;/font&gt;" style="ellipse;shape=cloud;whiteSpace=wrap;html=1;fillColor=#CCCCCC;" parent="Nt9SSNV7IdZdMpz9-7pT-216" vertex="1">
          <mxGeometry width="51.42857142857142" height="36.36363636363636" as="geometry" />
        </mxCell>
        <mxCell id="Nt9SSNV7IdZdMpz9-7pT-220" value="" style="shape=mxgraph.signs.transportation.airplane_5;html=1;pointerEvents=1;fillColor=#EA6B66;strokeColor=none;verticalLabelPosition=bottom;verticalAlign=top;align=center;rotation=-90;" parent="Nt9SSNV7IdZdMpz9-7pT-223" vertex="1">
          <mxGeometry x="431.25" y="60" width="37.5" height="48" as="geometry" />
        </mxCell>
        <mxCell id="Nt9SSNV7IdZdMpz9-7pT-221" value="&lt;font color=&quot;#ea6b66&quot;&gt;Actions: GO, TRN&lt;br&gt;GO:&amp;nbsp; &amp;nbsp;P(move | GO)&amp;nbsp; &amp;nbsp;: .85&lt;br&gt;GO:&amp;nbsp; &amp;nbsp;P(stay&amp;nbsp; &amp;nbsp;| GO)&amp;nbsp; &amp;nbsp;: .15&lt;br&gt;GO:&amp;nbsp; &amp;nbsp;P(turn&amp;nbsp; &amp;nbsp;| GO)&amp;nbsp; &amp;nbsp;: .00&lt;br style=&quot;border-color: var(--border-color);&quot;&gt;TRN: P(move | TRN) : .05&lt;br style=&quot;border-color: var(--border-color);&quot;&gt;TRN:&amp;nbsp;P(stay&amp;nbsp; &amp;nbsp;| TRN) : .05&lt;br&gt;TRN:&amp;nbsp;P(turn&amp;nbsp; &amp;nbsp;| TRN) : .90&lt;br&gt;&lt;/font&gt;" style="text;html=1;align=left;verticalAlign=middle;resizable=0;points=[];autosize=1;strokeColor=none;fillColor=none;" parent="Nt9SSNV7IdZdMpz9-7pT-223" vertex="1">
          <mxGeometry x="480" y="60" width="160" height="110" as="geometry" />
        </mxCell>
        <mxCell id="1K4-Vqz8_YfSpJtlY94Z-12" value="" style="group" parent="1" vertex="1" connectable="0">
          <mxGeometry x="360" y="1055" width="920" height="226.26999999999998" as="geometry" />
        </mxCell>
        <mxCell id="1K4-Vqz8_YfSpJtlY94Z-10" value="" style="rounded=0;whiteSpace=wrap;html=1;" parent="1K4-Vqz8_YfSpJtlY94Z-12" vertex="1">
          <mxGeometry y="37" width="200" height="160" as="geometry" />
        </mxCell>
        <mxCell id="1K4-Vqz8_YfSpJtlY94Z-1" value="" style="ellipse;whiteSpace=wrap;html=1;aspect=fixed;fillColor=#EA6B66;strokeColor=#EA6B66;" parent="1K4-Vqz8_YfSpJtlY94Z-12" vertex="1">
          <mxGeometry x="10" y="49" width="30" height="30" as="geometry" />
        </mxCell>
        <mxCell id="1K4-Vqz8_YfSpJtlY94Z-2" value="&lt;font color=&quot;#ea6b66&quot;&gt;Aircraft destination&lt;/font&gt;" style="text;html=1;align=left;verticalAlign=middle;resizable=0;points=[];autosize=1;strokeColor=none;fillColor=none;" parent="1K4-Vqz8_YfSpJtlY94Z-12" vertex="1">
          <mxGeometry x="58.75" y="49" width="120" height="30" as="geometry" />
        </mxCell>
        <mxCell id="1K4-Vqz8_YfSpJtlY94Z-3" value="" style="shape=mxgraph.signs.transportation.airplane_5;html=1;pointerEvents=1;fillColor=#EA6B66;strokeColor=none;verticalLabelPosition=bottom;verticalAlign=top;align=center;rotation=-90;" parent="1K4-Vqz8_YfSpJtlY94Z-12" vertex="1">
          <mxGeometry x="10" y="89" width="37.5" height="48" as="geometry" />
        </mxCell>
        <mxCell id="1K4-Vqz8_YfSpJtlY94Z-4" value="&lt;font color=&quot;#ea6b66&quot;&gt;Aircraft&lt;/font&gt;" style="text;html=1;align=left;verticalAlign=middle;resizable=0;points=[];autosize=1;strokeColor=none;fillColor=none;" parent="1K4-Vqz8_YfSpJtlY94Z-12" vertex="1">
          <mxGeometry x="60" y="97" width="60" height="30" as="geometry" />
        </mxCell>
        <mxCell id="1K4-Vqz8_YfSpJtlY94Z-5" value="" style="group" parent="1K4-Vqz8_YfSpJtlY94Z-12" vertex="1" connectable="0">
          <mxGeometry y="139" width="920" height="87.26999999999998" as="geometry" />
        </mxCell>
        <mxCell id="1K4-Vqz8_YfSpJtlY94Z-6" value="" style="verticalLabelPosition=bottom;verticalAlign=top;html=1;shape=mxgraph.basic.flash;fillColor=#FFFF00;" parent="1K4-Vqz8_YfSpJtlY94Z-5" vertex="1">
          <mxGeometry x="12.857142857142856" y="22.727272727272727" width="12.857142857142856" height="22.727272727272727" as="geometry" />
        </mxCell>
        <mxCell id="1K4-Vqz8_YfSpJtlY94Z-7" value="" style="verticalLabelPosition=bottom;verticalAlign=top;html=1;shape=mxgraph.basic.flash;fillColor=#FFFF00;" parent="1K4-Vqz8_YfSpJtlY94Z-5" vertex="1">
          <mxGeometry x="30" y="27.272727272727273" width="12.857142857142856" height="22.727272727272727" as="geometry" />
        </mxCell>
        <mxCell id="1K4-Vqz8_YfSpJtlY94Z-8" value="&lt;font color=&quot;#7f00ff&quot;&gt;???&lt;/font&gt;" style="ellipse;shape=cloud;whiteSpace=wrap;html=1;fillColor=#CCCCCC;" parent="1K4-Vqz8_YfSpJtlY94Z-5" vertex="1">
          <mxGeometry width="51.42857142857142" height="36.36363636363636" as="geometry" />
        </mxCell>
        <mxCell id="1K4-Vqz8_YfSpJtlY94Z-9" value="&lt;font color=&quot;#9933ff&quot;&gt;Storm&lt;/font&gt;" style="text;html=1;align=left;verticalAlign=middle;resizable=0;points=[];autosize=1;strokeColor=none;fillColor=none;" parent="1K4-Vqz8_YfSpJtlY94Z-12" vertex="1">
          <mxGeometry x="58.75" y="149" width="60" height="30" as="geometry" />
        </mxCell>
        <mxCell id="1K4-Vqz8_YfSpJtlY94Z-11" value="&lt;font style=&quot;font-size: 18px;&quot;&gt;&lt;b&gt;Key&lt;/b&gt;&lt;/font&gt;" style="text;html=1;align=left;verticalAlign=middle;resizable=0;points=[];autosize=1;strokeColor=none;fillColor=none;" parent="1K4-Vqz8_YfSpJtlY94Z-12" vertex="1">
          <mxGeometry width="60" height="40" as="geometry" />
        </mxCell>
        <mxCell id="Nt9SSNV7IdZdMpz9-7pT-209" value="&lt;h1&gt;Model C&lt;/h1&gt;" style="text;html=1;align=center;verticalAlign=middle;resizable=0;points=[];autosize=1;strokeColor=none;fillColor=none;" parent="1" vertex="1">
          <mxGeometry x="320" y="1000" width="120" height="70" as="geometry" />
        </mxCell>
        <mxCell id="L4q9XZSvd_akfMlWm6T2-1" value="" style="group" parent="1" vertex="1" connectable="0">
          <mxGeometry x="1510" y="340" width="490" height="400" as="geometry" />
        </mxCell>
        <mxCell id="L4q9XZSvd_akfMlWm6T2-2" value="" style="rounded=0;whiteSpace=wrap;html=1;" parent="L4q9XZSvd_akfMlWm6T2-1" vertex="1">
          <mxGeometry x="160" y="160" width="80" height="80" as="geometry" />
        </mxCell>
        <mxCell id="L4q9XZSvd_akfMlWm6T2-3" value="" style="rounded=0;whiteSpace=wrap;html=1;" parent="L4q9XZSvd_akfMlWm6T2-1" vertex="1">
          <mxGeometry y="160" width="80" height="80" as="geometry" />
        </mxCell>
        <mxCell id="L4q9XZSvd_akfMlWm6T2-4" value="" style="rounded=0;whiteSpace=wrap;html=1;" parent="L4q9XZSvd_akfMlWm6T2-1" vertex="1">
          <mxGeometry x="160" y="240" width="80" height="80" as="geometry" />
        </mxCell>
        <mxCell id="L4q9XZSvd_akfMlWm6T2-5" value="" style="rounded=0;whiteSpace=wrap;html=1;" parent="L4q9XZSvd_akfMlWm6T2-1" vertex="1">
          <mxGeometry x="80" y="160" width="80" height="80" as="geometry" />
        </mxCell>
        <mxCell id="L4q9XZSvd_akfMlWm6T2-6" value="" style="rounded=0;whiteSpace=wrap;html=1;" parent="L4q9XZSvd_akfMlWm6T2-1" vertex="1">
          <mxGeometry x="80" y="240" width="80" height="80" as="geometry" />
        </mxCell>
        <mxCell id="L4q9XZSvd_akfMlWm6T2-7" value="" style="rounded=0;whiteSpace=wrap;html=1;" parent="L4q9XZSvd_akfMlWm6T2-1" vertex="1">
          <mxGeometry x="80" y="320" width="80" height="80" as="geometry" />
        </mxCell>
        <mxCell id="L4q9XZSvd_akfMlWm6T2-8" value="" style="rounded=0;whiteSpace=wrap;html=1;" parent="L4q9XZSvd_akfMlWm6T2-1" vertex="1">
          <mxGeometry x="240" y="240" width="80" height="80" as="geometry" />
        </mxCell>
        <mxCell id="L4q9XZSvd_akfMlWm6T2-9" value="" style="rounded=0;whiteSpace=wrap;html=1;" parent="L4q9XZSvd_akfMlWm6T2-1" vertex="1">
          <mxGeometry x="320" y="240" width="80" height="80" as="geometry" />
        </mxCell>
        <mxCell id="L4q9XZSvd_akfMlWm6T2-10" value="" style="rounded=0;whiteSpace=wrap;html=1;" parent="L4q9XZSvd_akfMlWm6T2-1" vertex="1">
          <mxGeometry y="240" width="80" height="80" as="geometry" />
        </mxCell>
        <mxCell id="L4q9XZSvd_akfMlWm6T2-11" value="" style="rounded=0;whiteSpace=wrap;html=1;" parent="L4q9XZSvd_akfMlWm6T2-1" vertex="1">
          <mxGeometry x="80" y="80" width="80" height="80" as="geometry" />
        </mxCell>
        <mxCell id="L4q9XZSvd_akfMlWm6T2-12" value="" style="rounded=0;whiteSpace=wrap;html=1;" parent="L4q9XZSvd_akfMlWm6T2-1" vertex="1">
          <mxGeometry x="80" width="80" height="80" as="geometry" />
        </mxCell>
        <mxCell id="L4q9XZSvd_akfMlWm6T2-13" value="" style="shape=mxgraph.signs.transportation.airplane_5;html=1;pointerEvents=1;fillColor=#EA6B66;strokeColor=none;verticalLabelPosition=bottom;verticalAlign=top;align=center;rotation=-90;" parent="L4q9XZSvd_akfMlWm6T2-1" vertex="1">
          <mxGeometry x="341.25" y="256" width="37.5" height="48" as="geometry" />
        </mxCell>
        <mxCell id="L4q9XZSvd_akfMlWm6T2-14" value="" style="shape=mxgraph.signs.transportation.airplane_5;html=1;pointerEvents=1;fillColor=#0967FA;strokeColor=none;verticalLabelPosition=bottom;verticalAlign=top;align=center;rotation=-180;" parent="L4q9XZSvd_akfMlWm6T2-1" vertex="1">
          <mxGeometry x="101.25" y="16" width="37.5" height="48" as="geometry" />
        </mxCell>
        <mxCell id="L4q9XZSvd_akfMlWm6T2-15" value="" style="endArrow=none;dashed=1;html=1;rounded=0;entryX=0.5;entryY=0;entryDx=0;entryDy=0;entryPerimeter=0;fillColor=#0967FA;strokeColor=#0967FA;" parent="L4q9XZSvd_akfMlWm6T2-1" target="L4q9XZSvd_akfMlWm6T2-19" edge="1">
          <mxGeometry width="50" height="50" relative="1" as="geometry">
            <mxPoint x="120" y="360" as="sourcePoint" />
            <mxPoint x="119" y="64" as="targetPoint" />
          </mxGeometry>
        </mxCell>
        <mxCell id="L4q9XZSvd_akfMlWm6T2-16" value="" style="group" parent="L4q9XZSvd_akfMlWm6T2-1" vertex="1" connectable="0">
          <mxGeometry x="25" y="265" width="175" height="30" as="geometry" />
        </mxCell>
        <mxCell id="L4q9XZSvd_akfMlWm6T2-17" value="" style="ellipse;whiteSpace=wrap;html=1;aspect=fixed;fillColor=#EA6B66;strokeColor=#EA6B66;" parent="L4q9XZSvd_akfMlWm6T2-16" vertex="1">
          <mxGeometry width="30" height="30" as="geometry" />
        </mxCell>
        <mxCell id="L4q9XZSvd_akfMlWm6T2-18" value="" style="group" parent="L4q9XZSvd_akfMlWm6T2-1" vertex="1" connectable="0">
          <mxGeometry x="105" y="345" width="30" height="30" as="geometry" />
        </mxCell>
        <mxCell id="L4q9XZSvd_akfMlWm6T2-19" value="" style="ellipse;whiteSpace=wrap;html=1;aspect=fixed;fillColor=#0967FA;strokeColor=#0967FA;" parent="L4q9XZSvd_akfMlWm6T2-18" vertex="1">
          <mxGeometry width="30" height="30" as="geometry" />
        </mxCell>
        <mxCell id="L4q9XZSvd_akfMlWm6T2-20" value="" style="endArrow=none;dashed=1;html=1;rounded=0;entryX=0.5;entryY=0;entryDx=0;entryDy=0;entryPerimeter=0;fillColor=#0967FA;strokeColor=#0967FA;" parent="L4q9XZSvd_akfMlWm6T2-1" source="L4q9XZSvd_akfMlWm6T2-19" target="L4q9XZSvd_akfMlWm6T2-14" edge="1">
          <mxGeometry width="50" height="50" relative="1" as="geometry">
            <mxPoint x="-265" y="-305" as="sourcePoint" />
            <mxPoint x="-215" y="-485" as="targetPoint" />
          </mxGeometry>
        </mxCell>
        <mxCell id="L4q9XZSvd_akfMlWm6T2-21" value="" style="endArrow=none;dashed=1;html=1;rounded=0;strokeColor=#EA6B66;" parent="L4q9XZSvd_akfMlWm6T2-1" edge="1">
          <mxGeometry width="50" height="50" relative="1" as="geometry">
            <mxPoint x="190" y="240" as="sourcePoint" />
            <mxPoint x="190" y="220" as="targetPoint" />
          </mxGeometry>
        </mxCell>
        <mxCell id="L4q9XZSvd_akfMlWm6T2-22" value="&lt;font style=&quot;font-size: 10px;&quot; color=&quot;#ea6b66&quot;&gt;a1&lt;/font&gt;" style="text;html=1;align=center;verticalAlign=middle;resizable=0;points=[];autosize=1;strokeColor=none;fillColor=none;" parent="L4q9XZSvd_akfMlWm6T2-1" vertex="1">
          <mxGeometry x="370" y="240" width="30" height="30" as="geometry" />
        </mxCell>
        <mxCell id="L4q9XZSvd_akfMlWm6T2-23" value="&lt;font style=&quot;font-size: 10px;&quot; color=&quot;#ea6b66&quot;&gt;a2&lt;/font&gt;" style="text;html=1;align=center;verticalAlign=middle;resizable=0;points=[];autosize=1;strokeColor=none;fillColor=none;" parent="L4q9XZSvd_akfMlWm6T2-1" vertex="1">
          <mxGeometry x="290" y="240" width="30" height="30" as="geometry" />
        </mxCell>
        <mxCell id="L4q9XZSvd_akfMlWm6T2-24" value="&lt;font style=&quot;font-size: 10px;&quot; color=&quot;#ea6b66&quot;&gt;a3&lt;/font&gt;" style="text;html=1;align=center;verticalAlign=middle;resizable=0;points=[];autosize=1;strokeColor=none;fillColor=none;" parent="L4q9XZSvd_akfMlWm6T2-1" vertex="1">
          <mxGeometry x="210" y="240" width="30" height="30" as="geometry" />
        </mxCell>
        <mxCell id="L4q9XZSvd_akfMlWm6T2-25" value="&lt;font style=&quot;font-size: 10px;&quot; color=&quot;#ea6b66&quot;&gt;a4&lt;/font&gt;" style="text;html=1;align=center;verticalAlign=middle;resizable=0;points=[];autosize=1;strokeColor=none;fillColor=none;" parent="L4q9XZSvd_akfMlWm6T2-1" vertex="1">
          <mxGeometry x="129.99571428571426" y="239.99666666666667" width="30" height="30" as="geometry" />
        </mxCell>
        <mxCell id="L4q9XZSvd_akfMlWm6T2-26" value="&lt;font style=&quot;font-size: 10px;&quot; color=&quot;#ea6b66&quot;&gt;a5&lt;/font&gt;" style="text;html=1;align=center;verticalAlign=middle;resizable=0;points=[];autosize=1;strokeColor=none;fillColor=none;" parent="L4q9XZSvd_akfMlWm6T2-1" vertex="1">
          <mxGeometry x="50" y="240" width="30" height="30" as="geometry" />
        </mxCell>
        <mxCell id="L4q9XZSvd_akfMlWm6T2-27" value="&lt;font style=&quot;font-size: 10px;&quot; color=&quot;#ea6b66&quot;&gt;a6&lt;/font&gt;" style="text;html=1;align=center;verticalAlign=middle;resizable=0;points=[];autosize=1;strokeColor=none;fillColor=none;" parent="L4q9XZSvd_akfMlWm6T2-1" vertex="1">
          <mxGeometry x="210" y="160" width="30" height="30" as="geometry" />
        </mxCell>
        <mxCell id="L4q9XZSvd_akfMlWm6T2-28" value="&lt;font color=&quot;#007fff&quot;&gt;&lt;span style=&quot;font-size: 10px;&quot;&gt;b1&lt;/span&gt;&lt;/font&gt;" style="text;html=1;align=center;verticalAlign=middle;resizable=0;points=[];autosize=1;strokeColor=none;fillColor=none;" parent="L4q9XZSvd_akfMlWm6T2-1" vertex="1">
          <mxGeometry x="79.99571428571426" y="49.99666666666667" width="30" height="30" as="geometry" />
        </mxCell>
        <mxCell id="L4q9XZSvd_akfMlWm6T2-29" value="&lt;font color=&quot;#007fff&quot;&gt;&lt;span style=&quot;font-size: 10px;&quot;&gt;b2&lt;/span&gt;&lt;/font&gt;" style="text;html=1;align=center;verticalAlign=middle;resizable=0;points=[];autosize=1;strokeColor=none;fillColor=none;" parent="L4q9XZSvd_akfMlWm6T2-1" vertex="1">
          <mxGeometry x="79.99571428571426" y="129.99666666666667" width="30" height="30" as="geometry" />
        </mxCell>
        <mxCell id="L4q9XZSvd_akfMlWm6T2-30" value="&lt;font color=&quot;#007fff&quot;&gt;&lt;span style=&quot;font-size: 10px;&quot;&gt;b3&lt;/span&gt;&lt;/font&gt;" style="text;html=1;align=center;verticalAlign=middle;resizable=0;points=[];autosize=1;strokeColor=none;fillColor=none;" parent="L4q9XZSvd_akfMlWm6T2-1" vertex="1">
          <mxGeometry x="79.99571428571426" y="209.99666666666667" width="30" height="30" as="geometry" />
        </mxCell>
        <mxCell id="L4q9XZSvd_akfMlWm6T2-31" value="&lt;font color=&quot;#007fff&quot;&gt;&lt;span style=&quot;font-size: 10px;&quot;&gt;b4&lt;/span&gt;&lt;/font&gt;" style="text;html=1;align=center;verticalAlign=middle;resizable=0;points=[];autosize=1;strokeColor=none;fillColor=none;" parent="L4q9XZSvd_akfMlWm6T2-1" vertex="1">
          <mxGeometry x="79.99571428571426" y="289.99666666666667" width="30" height="30" as="geometry" />
        </mxCell>
        <mxCell id="L4q9XZSvd_akfMlWm6T2-32" value="&lt;font color=&quot;#007fff&quot;&gt;&lt;span style=&quot;font-size: 10px;&quot;&gt;b5&lt;/span&gt;&lt;/font&gt;" style="text;html=1;align=center;verticalAlign=middle;resizable=0;points=[];autosize=1;strokeColor=none;fillColor=none;" parent="L4q9XZSvd_akfMlWm6T2-1" vertex="1">
          <mxGeometry x="79.99571428571426" y="369.99666666666667" width="30" height="30" as="geometry" />
        </mxCell>
        <mxCell id="L4q9XZSvd_akfMlWm6T2-37" value="" style="endArrow=none;dashed=1;html=1;rounded=0;strokeColor=#EA6B66;exitX=0.5;exitY=0;exitDx=0;exitDy=0;exitPerimeter=0;entryX=1;entryY=0.5;entryDx=0;entryDy=0;" parent="L4q9XZSvd_akfMlWm6T2-1" source="L4q9XZSvd_akfMlWm6T2-13" target="L4q9XZSvd_akfMlWm6T2-17" edge="1">
          <mxGeometry width="50" height="50" relative="1" as="geometry">
            <mxPoint x="210" y="300" as="sourcePoint" />
            <mxPoint x="210" y="210" as="targetPoint" />
          </mxGeometry>
        </mxCell>
        <mxCell id="L4q9XZSvd_akfMlWm6T2-38" value="" style="endArrow=none;dashed=1;html=1;rounded=0;edgeStyle=orthogonalEdgeStyle;curved=1;strokeColor=#EA6B66;" parent="L4q9XZSvd_akfMlWm6T2-1" edge="1">
          <mxGeometry width="50" height="50" relative="1" as="geometry">
            <mxPoint x="200" y="280" as="sourcePoint" />
            <mxPoint x="190" y="270" as="targetPoint" />
          </mxGeometry>
        </mxCell>
        <mxCell id="L4q9XZSvd_akfMlWm6T2-39" value="" style="endArrow=none;dashed=1;html=1;rounded=0;strokeColor=#EA6B66;entryX=0.719;entryY=0;entryDx=0;entryDy=0;entryPerimeter=0;" parent="L4q9XZSvd_akfMlWm6T2-1" target="L4q9XZSvd_akfMlWm6T2-53" edge="1">
          <mxGeometry width="50" height="50" relative="1" as="geometry">
            <mxPoint x="50" y="209.89" as="sourcePoint" />
            <mxPoint x="140" y="210" as="targetPoint" />
          </mxGeometry>
        </mxCell>
        <mxCell id="L4q9XZSvd_akfMlWm6T2-40" value="" style="endArrow=none;dashed=1;html=1;rounded=0;strokeColor=#EA6B66;edgeStyle=orthogonalEdgeStyle;curved=1;" parent="L4q9XZSvd_akfMlWm6T2-1" edge="1">
          <mxGeometry width="50" height="50" relative="1" as="geometry">
            <mxPoint x="180" y="210" as="sourcePoint" />
            <mxPoint x="190" y="220" as="targetPoint" />
          </mxGeometry>
        </mxCell>
        <mxCell id="L4q9XZSvd_akfMlWm6T2-41" value="&lt;font style=&quot;font-size: 10px;&quot; color=&quot;#ea6b66&quot;&gt;a7&lt;/font&gt;" style="text;html=1;align=center;verticalAlign=middle;resizable=0;points=[];autosize=1;strokeColor=none;fillColor=none;" parent="L4q9XZSvd_akfMlWm6T2-1" vertex="1">
          <mxGeometry x="130" y="160" width="30" height="30" as="geometry" />
        </mxCell>
        <mxCell id="L4q9XZSvd_akfMlWm6T2-42" value="" style="endArrow=none;dashed=1;html=1;rounded=0;strokeColor=#EA6B66;exitX=0.5;exitY=0;exitDx=0;exitDy=0;" parent="L4q9XZSvd_akfMlWm6T2-1" source="L4q9XZSvd_akfMlWm6T2-17" edge="1">
          <mxGeometry width="50" height="50" relative="1" as="geometry">
            <mxPoint x="-30" y="255" as="sourcePoint" />
            <mxPoint x="40" y="220" as="targetPoint" />
          </mxGeometry>
        </mxCell>
        <mxCell id="L4q9XZSvd_akfMlWm6T2-43" value="" style="endArrow=none;dashed=1;html=1;rounded=0;strokeColor=#EA6B66;edgeStyle=orthogonalEdgeStyle;curved=1;" parent="L4q9XZSvd_akfMlWm6T2-1" edge="1">
          <mxGeometry width="50" height="50" relative="1" as="geometry">
            <mxPoint x="50" y="210" as="sourcePoint" />
            <mxPoint x="40" y="220" as="targetPoint" />
          </mxGeometry>
        </mxCell>
        <mxCell id="L4q9XZSvd_akfMlWm6T2-44" value="" style="endArrow=none;dashed=1;html=1;rounded=0;strokeColor=#EA6B66;" parent="L4q9XZSvd_akfMlWm6T2-1" edge="1">
          <mxGeometry width="50" height="50" relative="1" as="geometry">
            <mxPoint x="190" y="270" as="sourcePoint" />
            <mxPoint x="190" y="240" as="targetPoint" />
          </mxGeometry>
        </mxCell>
        <mxCell id="L4q9XZSvd_akfMlWm6T2-45" value="&lt;font style=&quot;font-size: 10px;&quot; color=&quot;#ea6b66&quot;&gt;a8&lt;/font&gt;" style="text;html=1;align=center;verticalAlign=middle;resizable=0;points=[];autosize=1;strokeColor=none;fillColor=none;" parent="L4q9XZSvd_akfMlWm6T2-1" vertex="1">
          <mxGeometry x="50" y="160" width="30" height="30" as="geometry" />
        </mxCell>
        <mxCell id="L4q9XZSvd_akfMlWm6T2-52" value="&lt;font color=&quot;#007fff&quot;&gt;&lt;span style=&quot;font-size: 10px;&quot;&gt;b7&lt;/span&gt;&lt;/font&gt;" style="text;html=1;align=center;verticalAlign=middle;resizable=0;points=[];autosize=1;strokeColor=none;fillColor=none;" parent="L4q9XZSvd_akfMlWm6T2-1" vertex="1">
          <mxGeometry x="159.99571428571426" y="289.99666666666667" width="30" height="30" as="geometry" />
        </mxCell>
        <mxCell id="L4q9XZSvd_akfMlWm6T2-53" value="&lt;font color=&quot;#007fff&quot;&gt;&lt;span style=&quot;font-size: 10px;&quot;&gt;b6&lt;/span&gt;&lt;/font&gt;" style="text;html=1;align=center;verticalAlign=middle;resizable=0;points=[];autosize=1;strokeColor=none;fillColor=none;" parent="L4q9XZSvd_akfMlWm6T2-1" vertex="1">
          <mxGeometry x="159.99571428571426" y="209.99666666666667" width="30" height="30" as="geometry" />
        </mxCell>
        <mxCell id="L4q9XZSvd_akfMlWm6T2-54" value="" style="rounded=0;whiteSpace=wrap;html=1;" parent="L4q9XZSvd_akfMlWm6T2-1" vertex="1">
          <mxGeometry x="160" y="320" width="80" height="80" as="geometry" />
        </mxCell>
        <mxCell id="L4q9XZSvd_akfMlWm6T2-55" value="&lt;font color=&quot;#007fff&quot;&gt;&lt;span style=&quot;font-size: 10px;&quot;&gt;b8&lt;/span&gt;&lt;/font&gt;" style="text;html=1;align=center;verticalAlign=middle;resizable=0;points=[];autosize=1;strokeColor=none;fillColor=none;" parent="L4q9XZSvd_akfMlWm6T2-1" vertex="1">
          <mxGeometry x="159.99571428571426" y="369.99666666666667" width="30" height="30" as="geometry" />
        </mxCell>
        <mxCell id="L4q9XZSvd_akfMlWm6T2-56" value="" style="endArrow=none;dashed=1;html=1;rounded=0;fillColor=#0967FA;strokeColor=#0967FA;" parent="L4q9XZSvd_akfMlWm6T2-1" edge="1">
          <mxGeometry width="50" height="50" relative="1" as="geometry">
            <mxPoint x="200" y="190" as="sourcePoint" />
            <mxPoint x="130" y="190" as="targetPoint" />
          </mxGeometry>
        </mxCell>
        <mxCell id="L4q9XZSvd_akfMlWm6T2-60" value="" style="endArrow=none;dashed=1;html=1;rounded=0;strokeColor=#0967FA;edgeStyle=orthogonalEdgeStyle;curved=1;" parent="L4q9XZSvd_akfMlWm6T2-1" edge="1">
          <mxGeometry width="50" height="50" relative="1" as="geometry">
            <mxPoint x="200" y="190" as="sourcePoint" />
            <mxPoint x="210" y="200" as="targetPoint" />
          </mxGeometry>
        </mxCell>
        <mxCell id="L4q9XZSvd_akfMlWm6T2-62" value="" style="endArrow=none;dashed=1;html=1;rounded=0;fillColor=#0967FA;strokeColor=#0967FA;" parent="L4q9XZSvd_akfMlWm6T2-1" edge="1">
          <mxGeometry width="50" height="50" relative="1" as="geometry">
            <mxPoint x="200" y="360" as="sourcePoint" />
            <mxPoint x="135" y="360" as="targetPoint" />
          </mxGeometry>
        </mxCell>
        <mxCell id="L4q9XZSvd_akfMlWm6T2-63" value="" style="endArrow=none;dashed=1;html=1;rounded=0;strokeColor=#0967FA;edgeStyle=orthogonalEdgeStyle;curved=1;" parent="L4q9XZSvd_akfMlWm6T2-1" edge="1">
          <mxGeometry width="50" height="50" relative="1" as="geometry">
            <mxPoint x="210" y="350" as="sourcePoint" />
            <mxPoint x="200" y="360" as="targetPoint" />
            <Array as="points">
              <mxPoint x="210" y="360" />
            </Array>
          </mxGeometry>
        </mxCell>
        <mxCell id="L4q9XZSvd_akfMlWm6T2-65" value="" style="endArrow=none;dashed=1;html=1;rounded=0;strokeColor=#0967FA;edgeStyle=orthogonalEdgeStyle;curved=1;exitX=0.015;exitY=1.005;exitDx=0;exitDy=0;exitPerimeter=0;" parent="L4q9XZSvd_akfMlWm6T2-1" source="L4q9XZSvd_akfMlWm6T2-41" edge="1">
          <mxGeometry width="50" height="50" relative="1" as="geometry">
            <mxPoint x="115" y="190" as="sourcePoint" />
            <mxPoint x="120" y="180" as="targetPoint" />
            <Array as="points">
              <mxPoint x="120" y="190" />
            </Array>
          </mxGeometry>
        </mxCell>
        <mxCell id="L4q9XZSvd_akfMlWm6T2-49" value="&lt;h1&gt;model_x&lt;/h1&gt;" style="text;html=1;align=center;verticalAlign=middle;resizable=0;points=[];autosize=1;strokeColor=none;fillColor=none;" parent="1" vertex="1">
          <mxGeometry x="1830" y="258" width="120" height="70" as="geometry" />
        </mxCell>
        <mxCell id="L4q9XZSvd_akfMlWm6T2-59" value="" style="endArrow=none;dashed=1;html=1;rounded=0;fillColor=#0967FA;strokeColor=#0967FA;" parent="1" edge="1">
          <mxGeometry width="50" height="50" relative="1" as="geometry">
            <mxPoint x="1720" y="540" as="sourcePoint" />
            <mxPoint x="1720" y="690" as="targetPoint" />
          </mxGeometry>
        </mxCell>
        <mxCell id="L4q9XZSvd_akfMlWm6T2-118" value="&lt;h1&gt;Through The Storm&lt;/h1&gt;" style="text;html=1;align=center;verticalAlign=middle;resizable=0;points=[];autosize=1;strokeColor=none;fillColor=none;" parent="1" vertex="1">
          <mxGeometry x="1960" y="278" width="250" height="70" as="geometry" />
        </mxCell>
        <mxCell id="L4q9XZSvd_akfMlWm6T2-244" value="model_xxx" style="text;html=1;align=center;verticalAlign=middle;resizable=0;points=[];autosize=1;strokeColor=none;fillColor=none;" parent="1" vertex="1">
          <mxGeometry x="2910" y="300" width="80" height="30" as="geometry" />
        </mxCell>
        <mxCell id="L4q9XZSvd_akfMlWm6T2-245" value="" style="group;fillColor=default;" parent="1" vertex="1" connectable="0">
          <mxGeometry x="2920" y="362" width="800" height="800.27" as="geometry" />
        </mxCell>
        <mxCell id="L4q9XZSvd_akfMlWm6T2-246" value="" style="rounded=0;whiteSpace=wrap;html=1;" parent="L4q9XZSvd_akfMlWm6T2-245" vertex="1">
          <mxGeometry x="80" y="80" width="80" height="80" as="geometry" />
        </mxCell>
        <mxCell id="L4q9XZSvd_akfMlWm6T2-247" value="" style="rounded=0;whiteSpace=wrap;html=1;" parent="L4q9XZSvd_akfMlWm6T2-245" vertex="1">
          <mxGeometry x="160" y="80" width="80" height="80" as="geometry" />
        </mxCell>
        <mxCell id="L4q9XZSvd_akfMlWm6T2-248" value="" style="rounded=0;whiteSpace=wrap;html=1;" parent="L4q9XZSvd_akfMlWm6T2-245" vertex="1">
          <mxGeometry x="240" y="80" width="80" height="80" as="geometry" />
        </mxCell>
        <mxCell id="L4q9XZSvd_akfMlWm6T2-249" value="" style="rounded=0;whiteSpace=wrap;html=1;" parent="L4q9XZSvd_akfMlWm6T2-245" vertex="1">
          <mxGeometry y="80" width="80" height="80" as="geometry" />
        </mxCell>
        <mxCell id="L4q9XZSvd_akfMlWm6T2-250" value="" style="rounded=0;whiteSpace=wrap;html=1;" parent="L4q9XZSvd_akfMlWm6T2-245" vertex="1">
          <mxGeometry x="320" y="80" width="80" height="80" as="geometry" />
        </mxCell>
        <mxCell id="L4q9XZSvd_akfMlWm6T2-251" value="" style="rounded=0;whiteSpace=wrap;html=1;" parent="L4q9XZSvd_akfMlWm6T2-245" vertex="1">
          <mxGeometry x="400" y="80" width="80" height="80" as="geometry" />
        </mxCell>
        <mxCell id="L4q9XZSvd_akfMlWm6T2-252" value="" style="rounded=0;whiteSpace=wrap;html=1;" parent="L4q9XZSvd_akfMlWm6T2-245" vertex="1">
          <mxGeometry x="480" y="80" width="80" height="80" as="geometry" />
        </mxCell>
        <mxCell id="L4q9XZSvd_akfMlWm6T2-253" value="" style="rounded=0;whiteSpace=wrap;html=1;" parent="L4q9XZSvd_akfMlWm6T2-245" vertex="1">
          <mxGeometry x="560" y="80" width="80" height="80" as="geometry" />
        </mxCell>
        <mxCell id="L4q9XZSvd_akfMlWm6T2-254" value="" style="rounded=0;whiteSpace=wrap;html=1;" parent="L4q9XZSvd_akfMlWm6T2-245" vertex="1">
          <mxGeometry x="720" y="80" width="80" height="80" as="geometry" />
        </mxCell>
        <mxCell id="L4q9XZSvd_akfMlWm6T2-255" value="" style="rounded=0;whiteSpace=wrap;html=1;" parent="L4q9XZSvd_akfMlWm6T2-245" vertex="1">
          <mxGeometry x="640" y="80" width="80" height="80" as="geometry" />
        </mxCell>
        <mxCell id="L4q9XZSvd_akfMlWm6T2-256" value="" style="rounded=0;whiteSpace=wrap;html=1;" parent="L4q9XZSvd_akfMlWm6T2-245" vertex="1">
          <mxGeometry x="80" width="80" height="80" as="geometry" />
        </mxCell>
        <mxCell id="L4q9XZSvd_akfMlWm6T2-257" value="" style="rounded=0;whiteSpace=wrap;html=1;" parent="L4q9XZSvd_akfMlWm6T2-245" vertex="1">
          <mxGeometry x="160" width="80" height="80" as="geometry" />
        </mxCell>
        <mxCell id="L4q9XZSvd_akfMlWm6T2-258" value="" style="rounded=0;whiteSpace=wrap;html=1;" parent="L4q9XZSvd_akfMlWm6T2-245" vertex="1">
          <mxGeometry x="240" width="80" height="80" as="geometry" />
        </mxCell>
        <mxCell id="L4q9XZSvd_akfMlWm6T2-259" value="" style="rounded=0;whiteSpace=wrap;html=1;" parent="L4q9XZSvd_akfMlWm6T2-245" vertex="1">
          <mxGeometry width="80" height="80" as="geometry" />
        </mxCell>
        <mxCell id="L4q9XZSvd_akfMlWm6T2-260" value="" style="rounded=0;whiteSpace=wrap;html=1;" parent="L4q9XZSvd_akfMlWm6T2-245" vertex="1">
          <mxGeometry x="320" width="80" height="80" as="geometry" />
        </mxCell>
        <mxCell id="L4q9XZSvd_akfMlWm6T2-261" value="" style="rounded=0;whiteSpace=wrap;html=1;" parent="L4q9XZSvd_akfMlWm6T2-245" vertex="1">
          <mxGeometry x="400" width="80" height="80" as="geometry" />
        </mxCell>
        <mxCell id="L4q9XZSvd_akfMlWm6T2-262" value="" style="rounded=0;whiteSpace=wrap;html=1;" parent="L4q9XZSvd_akfMlWm6T2-245" vertex="1">
          <mxGeometry x="480" width="80" height="80" as="geometry" />
        </mxCell>
        <mxCell id="L4q9XZSvd_akfMlWm6T2-263" value="" style="rounded=0;whiteSpace=wrap;html=1;" parent="L4q9XZSvd_akfMlWm6T2-245" vertex="1">
          <mxGeometry x="560" width="80" height="80" as="geometry" />
        </mxCell>
        <mxCell id="L4q9XZSvd_akfMlWm6T2-264" value="" style="rounded=0;whiteSpace=wrap;html=1;" parent="L4q9XZSvd_akfMlWm6T2-245" vertex="1">
          <mxGeometry x="720" width="80" height="80" as="geometry" />
        </mxCell>
        <mxCell id="L4q9XZSvd_akfMlWm6T2-265" value="" style="rounded=0;whiteSpace=wrap;html=1;" parent="L4q9XZSvd_akfMlWm6T2-245" vertex="1">
          <mxGeometry x="640" width="80" height="80" as="geometry" />
        </mxCell>
        <mxCell id="L4q9XZSvd_akfMlWm6T2-266" value="" style="rounded=0;whiteSpace=wrap;html=1;" parent="L4q9XZSvd_akfMlWm6T2-245" vertex="1">
          <mxGeometry x="80" y="240" width="80" height="80" as="geometry" />
        </mxCell>
        <mxCell id="L4q9XZSvd_akfMlWm6T2-267" value="" style="rounded=0;whiteSpace=wrap;html=1;" parent="L4q9XZSvd_akfMlWm6T2-245" vertex="1">
          <mxGeometry x="160" y="240" width="80" height="80" as="geometry" />
        </mxCell>
        <mxCell id="L4q9XZSvd_akfMlWm6T2-268" value="" style="rounded=0;whiteSpace=wrap;html=1;" parent="L4q9XZSvd_akfMlWm6T2-245" vertex="1">
          <mxGeometry x="240" y="240" width="80" height="80" as="geometry" />
        </mxCell>
        <mxCell id="L4q9XZSvd_akfMlWm6T2-269" value="" style="rounded=0;whiteSpace=wrap;html=1;" parent="L4q9XZSvd_akfMlWm6T2-245" vertex="1">
          <mxGeometry y="240" width="80" height="80" as="geometry" />
        </mxCell>
        <mxCell id="L4q9XZSvd_akfMlWm6T2-270" value="" style="rounded=0;whiteSpace=wrap;html=1;" parent="L4q9XZSvd_akfMlWm6T2-245" vertex="1">
          <mxGeometry x="320" y="240" width="80" height="80" as="geometry" />
        </mxCell>
        <mxCell id="L4q9XZSvd_akfMlWm6T2-271" value="" style="rounded=0;whiteSpace=wrap;html=1;" parent="L4q9XZSvd_akfMlWm6T2-245" vertex="1">
          <mxGeometry x="400" y="240" width="80" height="80" as="geometry" />
        </mxCell>
        <mxCell id="L4q9XZSvd_akfMlWm6T2-272" value="" style="rounded=0;whiteSpace=wrap;html=1;" parent="L4q9XZSvd_akfMlWm6T2-245" vertex="1">
          <mxGeometry x="480" y="240" width="80" height="80" as="geometry" />
        </mxCell>
        <mxCell id="L4q9XZSvd_akfMlWm6T2-273" value="" style="rounded=0;whiteSpace=wrap;html=1;" parent="L4q9XZSvd_akfMlWm6T2-245" vertex="1">
          <mxGeometry x="560" y="240" width="80" height="80" as="geometry" />
        </mxCell>
        <mxCell id="L4q9XZSvd_akfMlWm6T2-274" value="" style="rounded=0;whiteSpace=wrap;html=1;" parent="L4q9XZSvd_akfMlWm6T2-245" vertex="1">
          <mxGeometry x="720" y="240" width="80" height="80" as="geometry" />
        </mxCell>
        <mxCell id="L4q9XZSvd_akfMlWm6T2-275" value="" style="rounded=0;whiteSpace=wrap;html=1;" parent="L4q9XZSvd_akfMlWm6T2-245" vertex="1">
          <mxGeometry x="640" y="240" width="80" height="80" as="geometry" />
        </mxCell>
        <mxCell id="L4q9XZSvd_akfMlWm6T2-276" value="" style="rounded=0;whiteSpace=wrap;html=1;" parent="L4q9XZSvd_akfMlWm6T2-245" vertex="1">
          <mxGeometry x="80" y="160" width="80" height="80" as="geometry" />
        </mxCell>
        <mxCell id="L4q9XZSvd_akfMlWm6T2-277" value="" style="rounded=0;whiteSpace=wrap;html=1;" parent="L4q9XZSvd_akfMlWm6T2-245" vertex="1">
          <mxGeometry x="160" y="160" width="80" height="80" as="geometry" />
        </mxCell>
        <mxCell id="L4q9XZSvd_akfMlWm6T2-278" value="" style="rounded=0;whiteSpace=wrap;html=1;" parent="L4q9XZSvd_akfMlWm6T2-245" vertex="1">
          <mxGeometry x="240" y="160" width="80" height="80" as="geometry" />
        </mxCell>
        <mxCell id="L4q9XZSvd_akfMlWm6T2-279" value="" style="rounded=0;whiteSpace=wrap;html=1;" parent="L4q9XZSvd_akfMlWm6T2-245" vertex="1">
          <mxGeometry y="160" width="80" height="80" as="geometry" />
        </mxCell>
        <mxCell id="L4q9XZSvd_akfMlWm6T2-280" value="" style="rounded=0;whiteSpace=wrap;html=1;" parent="L4q9XZSvd_akfMlWm6T2-245" vertex="1">
          <mxGeometry x="320" y="160" width="80" height="80" as="geometry" />
        </mxCell>
        <mxCell id="L4q9XZSvd_akfMlWm6T2-281" value="" style="rounded=0;whiteSpace=wrap;html=1;" parent="L4q9XZSvd_akfMlWm6T2-245" vertex="1">
          <mxGeometry x="400" y="160" width="80" height="80" as="geometry" />
        </mxCell>
        <mxCell id="L4q9XZSvd_akfMlWm6T2-282" value="" style="rounded=0;whiteSpace=wrap;html=1;" parent="L4q9XZSvd_akfMlWm6T2-245" vertex="1">
          <mxGeometry x="480" y="160" width="80" height="80" as="geometry" />
        </mxCell>
        <mxCell id="L4q9XZSvd_akfMlWm6T2-283" value="" style="rounded=0;whiteSpace=wrap;html=1;" parent="L4q9XZSvd_akfMlWm6T2-245" vertex="1">
          <mxGeometry x="560" y="160" width="80" height="80" as="geometry" />
        </mxCell>
        <mxCell id="L4q9XZSvd_akfMlWm6T2-284" value="" style="rounded=0;whiteSpace=wrap;html=1;" parent="L4q9XZSvd_akfMlWm6T2-245" vertex="1">
          <mxGeometry x="720" y="160" width="80" height="80" as="geometry" />
        </mxCell>
        <mxCell id="L4q9XZSvd_akfMlWm6T2-285" value="" style="rounded=0;whiteSpace=wrap;html=1;" parent="L4q9XZSvd_akfMlWm6T2-245" vertex="1">
          <mxGeometry x="640" y="160" width="80" height="80" as="geometry" />
        </mxCell>
        <mxCell id="L4q9XZSvd_akfMlWm6T2-286" value="" style="rounded=0;whiteSpace=wrap;html=1;" parent="L4q9XZSvd_akfMlWm6T2-245" vertex="1">
          <mxGeometry x="80" y="320" width="80" height="80" as="geometry" />
        </mxCell>
        <mxCell id="L4q9XZSvd_akfMlWm6T2-287" value="" style="rounded=0;whiteSpace=wrap;html=1;" parent="L4q9XZSvd_akfMlWm6T2-245" vertex="1">
          <mxGeometry x="160" y="320" width="80" height="80" as="geometry" />
        </mxCell>
        <mxCell id="L4q9XZSvd_akfMlWm6T2-288" value="" style="rounded=0;whiteSpace=wrap;html=1;" parent="L4q9XZSvd_akfMlWm6T2-245" vertex="1">
          <mxGeometry x="240" y="320" width="80" height="80" as="geometry" />
        </mxCell>
        <mxCell id="L4q9XZSvd_akfMlWm6T2-289" value="" style="rounded=0;whiteSpace=wrap;html=1;" parent="L4q9XZSvd_akfMlWm6T2-245" vertex="1">
          <mxGeometry y="320" width="80" height="80" as="geometry" />
        </mxCell>
        <mxCell id="L4q9XZSvd_akfMlWm6T2-290" value="" style="rounded=0;whiteSpace=wrap;html=1;" parent="L4q9XZSvd_akfMlWm6T2-245" vertex="1">
          <mxGeometry x="320" y="320" width="80" height="80" as="geometry" />
        </mxCell>
        <mxCell id="L4q9XZSvd_akfMlWm6T2-291" value="" style="rounded=0;whiteSpace=wrap;html=1;" parent="L4q9XZSvd_akfMlWm6T2-245" vertex="1">
          <mxGeometry x="400" y="320" width="80" height="80" as="geometry" />
        </mxCell>
        <mxCell id="L4q9XZSvd_akfMlWm6T2-292" value="" style="rounded=0;whiteSpace=wrap;html=1;" parent="L4q9XZSvd_akfMlWm6T2-245" vertex="1">
          <mxGeometry x="480" y="320" width="80" height="80" as="geometry" />
        </mxCell>
        <mxCell id="L4q9XZSvd_akfMlWm6T2-293" value="" style="rounded=0;whiteSpace=wrap;html=1;" parent="L4q9XZSvd_akfMlWm6T2-245" vertex="1">
          <mxGeometry x="560" y="320" width="80" height="80" as="geometry" />
        </mxCell>
        <mxCell id="L4q9XZSvd_akfMlWm6T2-294" value="" style="rounded=0;whiteSpace=wrap;html=1;" parent="L4q9XZSvd_akfMlWm6T2-245" vertex="1">
          <mxGeometry x="720" y="320" width="80" height="80" as="geometry" />
        </mxCell>
        <mxCell id="L4q9XZSvd_akfMlWm6T2-295" value="" style="rounded=0;whiteSpace=wrap;html=1;" parent="L4q9XZSvd_akfMlWm6T2-245" vertex="1">
          <mxGeometry x="640" y="320" width="80" height="80" as="geometry" />
        </mxCell>
        <mxCell id="L4q9XZSvd_akfMlWm6T2-296" value="" style="rounded=0;whiteSpace=wrap;html=1;" parent="L4q9XZSvd_akfMlWm6T2-245" vertex="1">
          <mxGeometry x="80" y="480.27" width="80" height="80" as="geometry" />
        </mxCell>
        <mxCell id="L4q9XZSvd_akfMlWm6T2-297" value="" style="rounded=0;whiteSpace=wrap;html=1;" parent="L4q9XZSvd_akfMlWm6T2-245" vertex="1">
          <mxGeometry x="160" y="480.27" width="80" height="80" as="geometry" />
        </mxCell>
        <mxCell id="L4q9XZSvd_akfMlWm6T2-298" value="" style="rounded=0;whiteSpace=wrap;html=1;" parent="L4q9XZSvd_akfMlWm6T2-245" vertex="1">
          <mxGeometry x="240" y="480.27" width="80" height="80" as="geometry" />
        </mxCell>
        <mxCell id="L4q9XZSvd_akfMlWm6T2-299" value="" style="rounded=0;whiteSpace=wrap;html=1;" parent="L4q9XZSvd_akfMlWm6T2-245" vertex="1">
          <mxGeometry y="480.27" width="80" height="80" as="geometry" />
        </mxCell>
        <mxCell id="L4q9XZSvd_akfMlWm6T2-300" value="" style="rounded=0;whiteSpace=wrap;html=1;" parent="L4q9XZSvd_akfMlWm6T2-245" vertex="1">
          <mxGeometry x="320" y="480.27" width="80" height="80" as="geometry" />
        </mxCell>
        <mxCell id="L4q9XZSvd_akfMlWm6T2-301" value="" style="rounded=0;whiteSpace=wrap;html=1;" parent="L4q9XZSvd_akfMlWm6T2-245" vertex="1">
          <mxGeometry x="400" y="480.27" width="80" height="80" as="geometry" />
        </mxCell>
        <mxCell id="L4q9XZSvd_akfMlWm6T2-302" value="" style="rounded=0;whiteSpace=wrap;html=1;" parent="L4q9XZSvd_akfMlWm6T2-245" vertex="1">
          <mxGeometry x="480" y="480.27" width="80" height="80" as="geometry" />
        </mxCell>
        <mxCell id="L4q9XZSvd_akfMlWm6T2-303" value="" style="rounded=0;whiteSpace=wrap;html=1;" parent="L4q9XZSvd_akfMlWm6T2-245" vertex="1">
          <mxGeometry x="560" y="480.27" width="80" height="80" as="geometry" />
        </mxCell>
        <mxCell id="L4q9XZSvd_akfMlWm6T2-304" value="" style="rounded=0;whiteSpace=wrap;html=1;" parent="L4q9XZSvd_akfMlWm6T2-245" vertex="1">
          <mxGeometry x="720" y="480.27" width="80" height="80" as="geometry" />
        </mxCell>
        <mxCell id="L4q9XZSvd_akfMlWm6T2-305" value="" style="rounded=0;whiteSpace=wrap;html=1;" parent="L4q9XZSvd_akfMlWm6T2-245" vertex="1">
          <mxGeometry x="640" y="480.27" width="80" height="80" as="geometry" />
        </mxCell>
        <mxCell id="L4q9XZSvd_akfMlWm6T2-306" value="" style="rounded=0;whiteSpace=wrap;html=1;" parent="L4q9XZSvd_akfMlWm6T2-245" vertex="1">
          <mxGeometry x="80" y="400.27" width="80" height="80" as="geometry" />
        </mxCell>
        <mxCell id="L4q9XZSvd_akfMlWm6T2-307" value="" style="rounded=0;whiteSpace=wrap;html=1;" parent="L4q9XZSvd_akfMlWm6T2-245" vertex="1">
          <mxGeometry x="160" y="400.27" width="80" height="80" as="geometry" />
        </mxCell>
        <mxCell id="L4q9XZSvd_akfMlWm6T2-308" value="" style="rounded=0;whiteSpace=wrap;html=1;" parent="L4q9XZSvd_akfMlWm6T2-245" vertex="1">
          <mxGeometry x="240" y="400.27" width="80" height="80" as="geometry" />
        </mxCell>
        <mxCell id="L4q9XZSvd_akfMlWm6T2-309" value="" style="rounded=0;whiteSpace=wrap;html=1;" parent="L4q9XZSvd_akfMlWm6T2-245" vertex="1">
          <mxGeometry y="400.27" width="80" height="80" as="geometry" />
        </mxCell>
        <mxCell id="L4q9XZSvd_akfMlWm6T2-310" value="" style="rounded=0;whiteSpace=wrap;html=1;" parent="L4q9XZSvd_akfMlWm6T2-245" vertex="1">
          <mxGeometry x="320" y="400.27" width="80" height="80" as="geometry" />
        </mxCell>
        <mxCell id="L4q9XZSvd_akfMlWm6T2-311" value="" style="rounded=0;whiteSpace=wrap;html=1;" parent="L4q9XZSvd_akfMlWm6T2-245" vertex="1">
          <mxGeometry x="400" y="400.27" width="80" height="80" as="geometry" />
        </mxCell>
        <mxCell id="L4q9XZSvd_akfMlWm6T2-312" value="" style="rounded=0;whiteSpace=wrap;html=1;" parent="L4q9XZSvd_akfMlWm6T2-245" vertex="1">
          <mxGeometry x="480" y="400.27" width="80" height="80" as="geometry" />
        </mxCell>
        <mxCell id="L4q9XZSvd_akfMlWm6T2-313" value="" style="rounded=0;whiteSpace=wrap;html=1;" parent="L4q9XZSvd_akfMlWm6T2-245" vertex="1">
          <mxGeometry x="560" y="400.27" width="80" height="80" as="geometry" />
        </mxCell>
        <mxCell id="L4q9XZSvd_akfMlWm6T2-314" value="" style="rounded=0;whiteSpace=wrap;html=1;" parent="L4q9XZSvd_akfMlWm6T2-245" vertex="1">
          <mxGeometry x="720" y="400.27" width="80" height="80" as="geometry" />
        </mxCell>
        <mxCell id="L4q9XZSvd_akfMlWm6T2-315" value="" style="rounded=0;whiteSpace=wrap;html=1;" parent="L4q9XZSvd_akfMlWm6T2-245" vertex="1">
          <mxGeometry x="640" y="400.27" width="80" height="80" as="geometry" />
        </mxCell>
        <mxCell id="L4q9XZSvd_akfMlWm6T2-316" value="" style="rounded=0;whiteSpace=wrap;html=1;" parent="L4q9XZSvd_akfMlWm6T2-245" vertex="1">
          <mxGeometry x="80" y="640.27" width="80" height="80" as="geometry" />
        </mxCell>
        <mxCell id="L4q9XZSvd_akfMlWm6T2-317" value="" style="rounded=0;whiteSpace=wrap;html=1;" parent="L4q9XZSvd_akfMlWm6T2-245" vertex="1">
          <mxGeometry x="160" y="640.27" width="80" height="80" as="geometry" />
        </mxCell>
        <mxCell id="L4q9XZSvd_akfMlWm6T2-318" value="" style="rounded=0;whiteSpace=wrap;html=1;" parent="L4q9XZSvd_akfMlWm6T2-245" vertex="1">
          <mxGeometry x="240" y="640.27" width="80" height="80" as="geometry" />
        </mxCell>
        <mxCell id="L4q9XZSvd_akfMlWm6T2-319" value="" style="rounded=0;whiteSpace=wrap;html=1;" parent="L4q9XZSvd_akfMlWm6T2-245" vertex="1">
          <mxGeometry y="640.27" width="80" height="80" as="geometry" />
        </mxCell>
        <mxCell id="L4q9XZSvd_akfMlWm6T2-320" value="" style="rounded=0;whiteSpace=wrap;html=1;" parent="L4q9XZSvd_akfMlWm6T2-245" vertex="1">
          <mxGeometry x="320" y="640.27" width="80" height="80" as="geometry" />
        </mxCell>
        <mxCell id="L4q9XZSvd_akfMlWm6T2-321" value="" style="rounded=0;whiteSpace=wrap;html=1;" parent="L4q9XZSvd_akfMlWm6T2-245" vertex="1">
          <mxGeometry x="400" y="640.27" width="80" height="80" as="geometry" />
        </mxCell>
        <mxCell id="L4q9XZSvd_akfMlWm6T2-322" value="" style="rounded=0;whiteSpace=wrap;html=1;" parent="L4q9XZSvd_akfMlWm6T2-245" vertex="1">
          <mxGeometry x="480" y="640.27" width="80" height="80" as="geometry" />
        </mxCell>
        <mxCell id="L4q9XZSvd_akfMlWm6T2-323" value="" style="rounded=0;whiteSpace=wrap;html=1;" parent="L4q9XZSvd_akfMlWm6T2-245" vertex="1">
          <mxGeometry x="560" y="640.27" width="80" height="80" as="geometry" />
        </mxCell>
        <mxCell id="L4q9XZSvd_akfMlWm6T2-324" value="" style="rounded=0;whiteSpace=wrap;html=1;" parent="L4q9XZSvd_akfMlWm6T2-245" vertex="1">
          <mxGeometry x="720" y="640.27" width="80" height="80" as="geometry" />
        </mxCell>
        <mxCell id="L4q9XZSvd_akfMlWm6T2-325" value="" style="rounded=0;whiteSpace=wrap;html=1;" parent="L4q9XZSvd_akfMlWm6T2-245" vertex="1">
          <mxGeometry x="640" y="640.27" width="80" height="80" as="geometry" />
        </mxCell>
        <mxCell id="L4q9XZSvd_akfMlWm6T2-326" value="" style="rounded=0;whiteSpace=wrap;html=1;" parent="L4q9XZSvd_akfMlWm6T2-245" vertex="1">
          <mxGeometry x="80" y="560.27" width="80" height="80" as="geometry" />
        </mxCell>
        <mxCell id="L4q9XZSvd_akfMlWm6T2-327" value="" style="rounded=0;whiteSpace=wrap;html=1;" parent="L4q9XZSvd_akfMlWm6T2-245" vertex="1">
          <mxGeometry x="160" y="560.27" width="80" height="80" as="geometry" />
        </mxCell>
        <mxCell id="L4q9XZSvd_akfMlWm6T2-328" value="" style="rounded=0;whiteSpace=wrap;html=1;" parent="L4q9XZSvd_akfMlWm6T2-245" vertex="1">
          <mxGeometry x="240" y="560.27" width="80" height="80" as="geometry" />
        </mxCell>
        <mxCell id="L4q9XZSvd_akfMlWm6T2-329" value="" style="rounded=0;whiteSpace=wrap;html=1;" parent="L4q9XZSvd_akfMlWm6T2-245" vertex="1">
          <mxGeometry y="560.27" width="80" height="80" as="geometry" />
        </mxCell>
        <mxCell id="L4q9XZSvd_akfMlWm6T2-330" value="" style="rounded=0;whiteSpace=wrap;html=1;" parent="L4q9XZSvd_akfMlWm6T2-245" vertex="1">
          <mxGeometry x="320" y="560.27" width="80" height="80" as="geometry" />
        </mxCell>
        <mxCell id="L4q9XZSvd_akfMlWm6T2-331" value="" style="rounded=0;whiteSpace=wrap;html=1;" parent="L4q9XZSvd_akfMlWm6T2-245" vertex="1">
          <mxGeometry x="400" y="560.27" width="80" height="80" as="geometry" />
        </mxCell>
        <mxCell id="L4q9XZSvd_akfMlWm6T2-332" value="" style="rounded=0;whiteSpace=wrap;html=1;" parent="L4q9XZSvd_akfMlWm6T2-245" vertex="1">
          <mxGeometry x="480" y="560.27" width="80" height="80" as="geometry" />
        </mxCell>
        <mxCell id="L4q9XZSvd_akfMlWm6T2-333" value="" style="rounded=0;whiteSpace=wrap;html=1;" parent="L4q9XZSvd_akfMlWm6T2-245" vertex="1">
          <mxGeometry x="560" y="560.27" width="80" height="80" as="geometry" />
        </mxCell>
        <mxCell id="L4q9XZSvd_akfMlWm6T2-334" value="" style="rounded=0;whiteSpace=wrap;html=1;" parent="L4q9XZSvd_akfMlWm6T2-245" vertex="1">
          <mxGeometry x="720" y="560.27" width="80" height="80" as="geometry" />
        </mxCell>
        <mxCell id="L4q9XZSvd_akfMlWm6T2-335" value="" style="rounded=0;whiteSpace=wrap;html=1;" parent="L4q9XZSvd_akfMlWm6T2-245" vertex="1">
          <mxGeometry x="640" y="560.27" width="80" height="80" as="geometry" />
        </mxCell>
        <mxCell id="L4q9XZSvd_akfMlWm6T2-336" value="" style="rounded=0;whiteSpace=wrap;html=1;" parent="L4q9XZSvd_akfMlWm6T2-245" vertex="1">
          <mxGeometry x="80" y="720.27" width="80" height="80" as="geometry" />
        </mxCell>
        <mxCell id="L4q9XZSvd_akfMlWm6T2-337" value="" style="rounded=0;whiteSpace=wrap;html=1;" parent="L4q9XZSvd_akfMlWm6T2-245" vertex="1">
          <mxGeometry x="160" y="720.27" width="80" height="80" as="geometry" />
        </mxCell>
        <mxCell id="L4q9XZSvd_akfMlWm6T2-338" value="" style="rounded=0;whiteSpace=wrap;html=1;" parent="L4q9XZSvd_akfMlWm6T2-245" vertex="1">
          <mxGeometry x="240" y="720.27" width="80" height="80" as="geometry" />
        </mxCell>
        <mxCell id="L4q9XZSvd_akfMlWm6T2-339" value="" style="rounded=0;whiteSpace=wrap;html=1;" parent="L4q9XZSvd_akfMlWm6T2-245" vertex="1">
          <mxGeometry y="720.27" width="80" height="80" as="geometry" />
        </mxCell>
        <mxCell id="L4q9XZSvd_akfMlWm6T2-340" value="" style="rounded=0;whiteSpace=wrap;html=1;" parent="L4q9XZSvd_akfMlWm6T2-245" vertex="1">
          <mxGeometry x="320" y="720.27" width="80" height="80" as="geometry" />
        </mxCell>
        <mxCell id="L4q9XZSvd_akfMlWm6T2-341" value="" style="rounded=0;whiteSpace=wrap;html=1;" parent="L4q9XZSvd_akfMlWm6T2-245" vertex="1">
          <mxGeometry x="400" y="720.27" width="80" height="80" as="geometry" />
        </mxCell>
        <mxCell id="L4q9XZSvd_akfMlWm6T2-342" value="" style="rounded=0;whiteSpace=wrap;html=1;" parent="L4q9XZSvd_akfMlWm6T2-245" vertex="1">
          <mxGeometry x="480" y="720.27" width="80" height="80" as="geometry" />
        </mxCell>
        <mxCell id="L4q9XZSvd_akfMlWm6T2-343" value="" style="rounded=0;whiteSpace=wrap;html=1;" parent="L4q9XZSvd_akfMlWm6T2-245" vertex="1">
          <mxGeometry x="560" y="720.27" width="80" height="80" as="geometry" />
        </mxCell>
        <mxCell id="L4q9XZSvd_akfMlWm6T2-344" value="" style="rounded=0;whiteSpace=wrap;html=1;" parent="L4q9XZSvd_akfMlWm6T2-245" vertex="1">
          <mxGeometry x="720" y="720.27" width="80" height="80" as="geometry" />
        </mxCell>
        <mxCell id="L4q9XZSvd_akfMlWm6T2-345" value="" style="rounded=0;whiteSpace=wrap;html=1;" parent="L4q9XZSvd_akfMlWm6T2-245" vertex="1">
          <mxGeometry x="640" y="720.27" width="80" height="80" as="geometry" />
        </mxCell>
        <mxCell id="L4q9XZSvd_akfMlWm6T2-346" value="" style="shape=mxgraph.signs.transportation.airplane_5;html=1;pointerEvents=1;fillColor=#EA6B66;strokeColor=none;verticalLabelPosition=bottom;verticalAlign=top;align=center;rotation=-90;" parent="L4q9XZSvd_akfMlWm6T2-245" vertex="1">
          <mxGeometry x="741.25" y="736.27" width="37.5" height="48" as="geometry" />
        </mxCell>
        <mxCell id="L4q9XZSvd_akfMlWm6T2-347" value="" style="shape=mxgraph.signs.transportation.airplane_5;html=1;pointerEvents=1;fillColor=#0967FA;strokeColor=none;verticalLabelPosition=bottom;verticalAlign=top;align=center;rotation=-180;" parent="L4q9XZSvd_akfMlWm6T2-245" vertex="1">
          <mxGeometry x="100" y="16" width="37.5" height="48" as="geometry" />
        </mxCell>
        <mxCell id="L4q9XZSvd_akfMlWm6T2-348" value="" style="ellipse;whiteSpace=wrap;html=1;aspect=fixed;fillColor=#EA6B66;strokeColor=#EA6B66;" parent="L4q9XZSvd_akfMlWm6T2-245" vertex="1">
          <mxGeometry x="264.5" y="424.77" width="31" height="31" as="geometry" />
        </mxCell>
        <mxCell id="L4q9XZSvd_akfMlWm6T2-349" value="" style="group" parent="L4q9XZSvd_akfMlWm6T2-245" vertex="1" connectable="0">
          <mxGeometry x="505" y="505.27" width="30" height="30" as="geometry" />
        </mxCell>
        <mxCell id="L4q9XZSvd_akfMlWm6T2-350" value="" style="ellipse;whiteSpace=wrap;html=1;aspect=fixed;fillColor=#0967FA;strokeColor=#0967FA;" parent="L4q9XZSvd_akfMlWm6T2-349" vertex="1">
          <mxGeometry width="30" height="30" as="geometry" />
        </mxCell>
        <mxCell id="L4q9XZSvd_akfMlWm6T2-351" value="" style="shape=mxgraph.signs.transportation.airplane_5;html=1;pointerEvents=1;fillColor=#009900;strokeColor=none;verticalLabelPosition=bottom;verticalAlign=top;align=center;rotation=-180;" parent="L4q9XZSvd_akfMlWm6T2-245" vertex="1">
          <mxGeometry x="581.25" y="16" width="37.5" height="48" as="geometry" />
        </mxCell>
        <mxCell id="L4q9XZSvd_akfMlWm6T2-352" value="" style="group;fillColor=none;gradientColor=default;" parent="L4q9XZSvd_akfMlWm6T2-245" vertex="1" connectable="0">
          <mxGeometry x="25" y="744" width="30" height="30" as="geometry" />
        </mxCell>
        <mxCell id="L4q9XZSvd_akfMlWm6T2-353" value="" style="ellipse;whiteSpace=wrap;html=1;aspect=fixed;fillColor=#009900;strokeColor=#009900;" parent="L4q9XZSvd_akfMlWm6T2-352" vertex="1">
          <mxGeometry width="30" height="30" as="geometry" />
        </mxCell>
        <mxCell id="L4q9XZSvd_akfMlWm6T2-354" value="" style="shape=mxgraph.signs.transportation.airplane_5;html=1;pointerEvents=1;fillColor=#FF8000;strokeColor=none;verticalLabelPosition=bottom;verticalAlign=top;align=center;rotation=90;" parent="L4q9XZSvd_akfMlWm6T2-245" vertex="1">
          <mxGeometry x="101.25" y="656.27" width="37.5" height="48" as="geometry" />
        </mxCell>
        <mxCell id="L4q9XZSvd_akfMlWm6T2-355" value="" style="ellipse;whiteSpace=wrap;html=1;aspect=fixed;fillColor=#FF8000;strokeColor=#FF8000;" parent="L4q9XZSvd_akfMlWm6T2-245" vertex="1">
          <mxGeometry x="745" y="25" width="30" height="30" as="geometry" />
        </mxCell>
        <mxCell id="L4q9XZSvd_akfMlWm6T2-356" value="" style="shape=mxgraph.signs.transportation.airplane_5;html=1;pointerEvents=1;fillColor=#6600CC;strokeColor=none;verticalLabelPosition=bottom;verticalAlign=top;align=center;rotation=-180;" parent="L4q9XZSvd_akfMlWm6T2-245" vertex="1">
          <mxGeometry x="341.25" y="416.27" width="37.5" height="48" as="geometry" />
        </mxCell>
        <mxCell id="L4q9XZSvd_akfMlWm6T2-357" value="" style="ellipse;whiteSpace=wrap;html=1;aspect=fixed;fillColor=#6600CC;strokeColor=none;" parent="L4q9XZSvd_akfMlWm6T2-245" vertex="1">
          <mxGeometry x="24.5" y="24.5" width="31" height="31" as="geometry" />
        </mxCell>
        <mxCell id="60P3BRVn1bayOMwkvm1S-3" value="&lt;h1&gt;Restricted&lt;/h1&gt;" style="text;html=1;align=center;verticalAlign=middle;resizable=0;points=[];autosize=1;strokeColor=none;fillColor=none;" vertex="1" parent="1">
          <mxGeometry x="2240" y="1360" width="140" height="70" as="geometry" />
        </mxCell>
        <mxCell id="60P3BRVn1bayOMwkvm1S-32" value="" style="rounded=0;whiteSpace=wrap;html=1;" vertex="1" parent="1">
          <mxGeometry x="2240" y="1522" width="80" height="80" as="geometry" />
        </mxCell>
        <mxCell id="60P3BRVn1bayOMwkvm1S-33" value="" style="rounded=0;whiteSpace=wrap;html=1;" vertex="1" parent="1">
          <mxGeometry x="2320" y="1522" width="80" height="80" as="geometry" />
        </mxCell>
        <mxCell id="60P3BRVn1bayOMwkvm1S-34" value="" style="rounded=0;whiteSpace=wrap;html=1;" vertex="1" parent="1">
          <mxGeometry x="2400" y="1522" width="80" height="80" as="geometry" />
        </mxCell>
        <mxCell id="60P3BRVn1bayOMwkvm1S-35" value="" style="rounded=0;whiteSpace=wrap;html=1;" vertex="1" parent="1">
          <mxGeometry x="2560" y="1522" width="80" height="80" as="geometry" />
        </mxCell>
        <mxCell id="60P3BRVn1bayOMwkvm1S-36" value="" style="rounded=0;whiteSpace=wrap;html=1;" vertex="1" parent="1">
          <mxGeometry x="2480" y="1522" width="80" height="80" as="geometry" />
        </mxCell>
        <mxCell id="60P3BRVn1bayOMwkvm1S-40" value="" style="rounded=0;whiteSpace=wrap;html=1;" vertex="1" parent="1">
          <mxGeometry x="2240" y="1442" width="80" height="80" as="geometry" />
        </mxCell>
        <mxCell id="60P3BRVn1bayOMwkvm1S-41" value="" style="rounded=0;whiteSpace=wrap;html=1;" vertex="1" parent="1">
          <mxGeometry x="2320" y="1442" width="80" height="80" as="geometry" />
        </mxCell>
        <mxCell id="60P3BRVn1bayOMwkvm1S-42" value="" style="rounded=0;whiteSpace=wrap;html=1;" vertex="1" parent="1">
          <mxGeometry x="2400" y="1442" width="80" height="80" as="geometry" />
        </mxCell>
        <mxCell id="60P3BRVn1bayOMwkvm1S-43" value="" style="rounded=0;whiteSpace=wrap;html=1;" vertex="1" parent="1">
          <mxGeometry x="2560" y="1442" width="80" height="80" as="geometry" />
        </mxCell>
        <mxCell id="60P3BRVn1bayOMwkvm1S-44" value="" style="rounded=0;whiteSpace=wrap;html=1;" vertex="1" parent="1">
          <mxGeometry x="2480" y="1442" width="80" height="80" as="geometry" />
        </mxCell>
        <mxCell id="60P3BRVn1bayOMwkvm1S-48" value="" style="rounded=0;whiteSpace=wrap;html=1;" vertex="1" parent="1">
          <mxGeometry x="2240" y="1682" width="80" height="80" as="geometry" />
        </mxCell>
        <mxCell id="60P3BRVn1bayOMwkvm1S-49" value="" style="rounded=0;whiteSpace=wrap;html=1;" vertex="1" parent="1">
          <mxGeometry x="2320" y="1682" width="80" height="80" as="geometry" />
        </mxCell>
        <mxCell id="60P3BRVn1bayOMwkvm1S-50" value="" style="rounded=0;whiteSpace=wrap;html=1;" vertex="1" parent="1">
          <mxGeometry x="2400" y="1682" width="80" height="80" as="geometry" />
        </mxCell>
        <mxCell id="60P3BRVn1bayOMwkvm1S-51" value="" style="rounded=0;whiteSpace=wrap;html=1;" vertex="1" parent="1">
          <mxGeometry x="2560" y="1682" width="80" height="80" as="geometry" />
        </mxCell>
        <mxCell id="60P3BRVn1bayOMwkvm1S-52" value="" style="rounded=0;whiteSpace=wrap;html=1;" vertex="1" parent="1">
          <mxGeometry x="2480" y="1682" width="80" height="80" as="geometry" />
        </mxCell>
        <mxCell id="60P3BRVn1bayOMwkvm1S-56" value="" style="rounded=0;whiteSpace=wrap;html=1;" vertex="1" parent="1">
          <mxGeometry x="2240" y="1602" width="80" height="80" as="geometry" />
        </mxCell>
        <mxCell id="60P3BRVn1bayOMwkvm1S-57" value="" style="rounded=0;whiteSpace=wrap;html=1;" vertex="1" parent="1">
          <mxGeometry x="2320" y="1602" width="80" height="80" as="geometry" />
        </mxCell>
        <mxCell id="60P3BRVn1bayOMwkvm1S-59" value="" style="rounded=0;whiteSpace=wrap;html=1;" vertex="1" parent="1">
          <mxGeometry x="2560" y="1602" width="80" height="80" as="geometry" />
        </mxCell>
        <mxCell id="60P3BRVn1bayOMwkvm1S-60" value="" style="rounded=0;whiteSpace=wrap;html=1;" vertex="1" parent="1">
          <mxGeometry x="2480" y="1602" width="80" height="80" as="geometry" />
        </mxCell>
        <mxCell id="60P3BRVn1bayOMwkvm1S-64" value="" style="rounded=0;whiteSpace=wrap;html=1;" vertex="1" parent="1">
          <mxGeometry x="2240" y="1762" width="80" height="80" as="geometry" />
        </mxCell>
        <mxCell id="60P3BRVn1bayOMwkvm1S-65" value="" style="rounded=0;whiteSpace=wrap;html=1;" vertex="1" parent="1">
          <mxGeometry x="2320" y="1762" width="80" height="80" as="geometry" />
        </mxCell>
        <mxCell id="60P3BRVn1bayOMwkvm1S-66" value="" style="rounded=0;whiteSpace=wrap;html=1;" vertex="1" parent="1">
          <mxGeometry x="2400" y="1762" width="80" height="80" as="geometry" />
        </mxCell>
        <mxCell id="60P3BRVn1bayOMwkvm1S-67" value="" style="rounded=0;whiteSpace=wrap;html=1;" vertex="1" parent="1">
          <mxGeometry x="2560" y="1762" width="80" height="80" as="geometry" />
        </mxCell>
        <mxCell id="60P3BRVn1bayOMwkvm1S-68" value="" style="rounded=0;whiteSpace=wrap;html=1;" vertex="1" parent="1">
          <mxGeometry x="2480" y="1762" width="80" height="80" as="geometry" />
        </mxCell>
        <mxCell id="60P3BRVn1bayOMwkvm1S-69" value="" style="shape=mxgraph.signs.transportation.airplane_5;html=1;pointerEvents=1;fillColor=#EA6B66;strokeColor=none;verticalLabelPosition=bottom;verticalAlign=top;align=center;rotation=90;" vertex="1" parent="1">
          <mxGeometry x="2261.25" y="1778" width="37.5" height="48" as="geometry" />
        </mxCell>
        <mxCell id="60P3BRVn1bayOMwkvm1S-70" value="" style="ellipse;whiteSpace=wrap;html=1;aspect=fixed;fillColor=#EA6B66;strokeColor=#EA6B66;" vertex="1" parent="1">
          <mxGeometry x="2584.5" y="1467.23" width="31" height="31" as="geometry" />
        </mxCell>
        <mxCell id="60P3BRVn1bayOMwkvm1S-83" value="" style="group" vertex="1" connectable="0" parent="1">
          <mxGeometry x="2330" y="1537" width="60" height="50" as="geometry" />
        </mxCell>
        <mxCell id="60P3BRVn1bayOMwkvm1S-84" value="" style="verticalLabelPosition=bottom;verticalAlign=top;html=1;shape=mxgraph.basic.flash;fillColor=#FFFF00;" vertex="1" parent="60P3BRVn1bayOMwkvm1S-83">
          <mxGeometry x="12.857142857142856" y="22.727272727272727" width="12.857142857142856" height="22.727272727272727" as="geometry" />
        </mxCell>
        <mxCell id="60P3BRVn1bayOMwkvm1S-85" value="" style="verticalLabelPosition=bottom;verticalAlign=top;html=1;shape=mxgraph.basic.flash;fillColor=#FFFF00;" vertex="1" parent="60P3BRVn1bayOMwkvm1S-83">
          <mxGeometry x="30" y="27.272727272727273" width="12.857142857142856" height="22.727272727272727" as="geometry" />
        </mxCell>
        <mxCell id="60P3BRVn1bayOMwkvm1S-86" value="&lt;font color=&quot;#9933ff&quot;&gt;????&lt;/font&gt;" style="ellipse;shape=cloud;whiteSpace=wrap;html=1;fillColor=#CCCCCC;" vertex="1" parent="60P3BRVn1bayOMwkvm1S-83">
          <mxGeometry width="51.42857142857142" height="36.36363636363636" as="geometry" />
        </mxCell>
        <mxCell id="60P3BRVn1bayOMwkvm1S-103" value="" style="group" vertex="1" connectable="0" parent="1">
          <mxGeometry x="2570" y="1778" width="60" height="50" as="geometry" />
        </mxCell>
        <mxCell id="60P3BRVn1bayOMwkvm1S-104" value="" style="verticalLabelPosition=bottom;verticalAlign=top;html=1;shape=mxgraph.basic.flash;fillColor=#FFFF00;" vertex="1" parent="60P3BRVn1bayOMwkvm1S-103">
          <mxGeometry x="12.857142857142856" y="22.727272727272727" width="12.857142857142856" height="22.727272727272727" as="geometry" />
        </mxCell>
        <mxCell id="60P3BRVn1bayOMwkvm1S-105" value="" style="verticalLabelPosition=bottom;verticalAlign=top;html=1;shape=mxgraph.basic.flash;fillColor=#FFFF00;" vertex="1" parent="60P3BRVn1bayOMwkvm1S-103">
          <mxGeometry x="30" y="27.272727272727273" width="12.857142857142856" height="22.727272727272727" as="geometry" />
        </mxCell>
        <mxCell id="60P3BRVn1bayOMwkvm1S-106" value="&lt;font color=&quot;#9933ff&quot;&gt;????&lt;/font&gt;" style="ellipse;shape=cloud;whiteSpace=wrap;html=1;fillColor=#CCCCCC;" vertex="1" parent="60P3BRVn1bayOMwkvm1S-103">
          <mxGeometry width="51.42857142857142" height="36.36363636363636" as="geometry" />
        </mxCell>
        <mxCell id="60P3BRVn1bayOMwkvm1S-111" value="" style="group" vertex="1" connectable="0" parent="1">
          <mxGeometry x="2330" y="1617" width="60" height="50" as="geometry" />
        </mxCell>
        <mxCell id="60P3BRVn1bayOMwkvm1S-112" value="" style="verticalLabelPosition=bottom;verticalAlign=top;html=1;shape=mxgraph.basic.flash;fillColor=#FFFF00;" vertex="1" parent="60P3BRVn1bayOMwkvm1S-111">
          <mxGeometry x="12.857142857142856" y="22.727272727272727" width="12.857142857142856" height="22.727272727272727" as="geometry" />
        </mxCell>
        <mxCell id="60P3BRVn1bayOMwkvm1S-113" value="" style="verticalLabelPosition=bottom;verticalAlign=top;html=1;shape=mxgraph.basic.flash;fillColor=#FFFF00;" vertex="1" parent="60P3BRVn1bayOMwkvm1S-111">
          <mxGeometry x="30" y="27.272727272727273" width="12.857142857142856" height="22.727272727272727" as="geometry" />
        </mxCell>
        <mxCell id="60P3BRVn1bayOMwkvm1S-114" value="&lt;font color=&quot;#9933ff&quot;&gt;????&lt;/font&gt;" style="ellipse;shape=cloud;whiteSpace=wrap;html=1;fillColor=#CCCCCC;" vertex="1" parent="60P3BRVn1bayOMwkvm1S-111">
          <mxGeometry width="51.42857142857142" height="36.36363636363636" as="geometry" />
        </mxCell>
        <mxCell id="60P3BRVn1bayOMwkvm1S-115" value="" style="group" vertex="1" connectable="0" parent="1">
          <mxGeometry x="2490" y="1697" width="60" height="50" as="geometry" />
        </mxCell>
        <mxCell id="60P3BRVn1bayOMwkvm1S-116" value="" style="verticalLabelPosition=bottom;verticalAlign=top;html=1;shape=mxgraph.basic.flash;fillColor=#FFFF00;" vertex="1" parent="60P3BRVn1bayOMwkvm1S-115">
          <mxGeometry x="12.857142857142856" y="22.727272727272727" width="12.857142857142856" height="22.727272727272727" as="geometry" />
        </mxCell>
        <mxCell id="60P3BRVn1bayOMwkvm1S-117" value="" style="verticalLabelPosition=bottom;verticalAlign=top;html=1;shape=mxgraph.basic.flash;fillColor=#FFFF00;" vertex="1" parent="60P3BRVn1bayOMwkvm1S-115">
          <mxGeometry x="30" y="27.272727272727273" width="12.857142857142856" height="22.727272727272727" as="geometry" />
        </mxCell>
        <mxCell id="60P3BRVn1bayOMwkvm1S-118" value="&lt;font color=&quot;#9933ff&quot;&gt;????&lt;/font&gt;" style="ellipse;shape=cloud;whiteSpace=wrap;html=1;fillColor=#CCCCCC;" vertex="1" parent="60P3BRVn1bayOMwkvm1S-115">
          <mxGeometry width="51.42857142857142" height="36.36363636363636" as="geometry" />
        </mxCell>
        <mxCell id="60P3BRVn1bayOMwkvm1S-147" value="" style="group" vertex="1" connectable="0" parent="1">
          <mxGeometry x="2250" y="1457.73" width="60" height="50" as="geometry" />
        </mxCell>
        <mxCell id="60P3BRVn1bayOMwkvm1S-148" value="" style="verticalLabelPosition=bottom;verticalAlign=top;html=1;shape=mxgraph.basic.flash;fillColor=#FFFF00;" vertex="1" parent="60P3BRVn1bayOMwkvm1S-147">
          <mxGeometry x="12.857142857142856" y="22.727272727272727" width="12.857142857142856" height="22.727272727272727" as="geometry" />
        </mxCell>
        <mxCell id="60P3BRVn1bayOMwkvm1S-149" value="" style="verticalLabelPosition=bottom;verticalAlign=top;html=1;shape=mxgraph.basic.flash;fillColor=#FFFF00;" vertex="1" parent="60P3BRVn1bayOMwkvm1S-147">
          <mxGeometry x="30" y="27.272727272727273" width="12.857142857142856" height="22.727272727272727" as="geometry" />
        </mxCell>
        <mxCell id="60P3BRVn1bayOMwkvm1S-150" value="&lt;font color=&quot;#9933ff&quot;&gt;????&lt;/font&gt;" style="ellipse;shape=cloud;whiteSpace=wrap;html=1;fillColor=#CCCCCC;" vertex="1" parent="60P3BRVn1bayOMwkvm1S-147">
          <mxGeometry width="51.42857142857142" height="36.36363636363636" as="geometry" />
        </mxCell>
        <mxCell id="60P3BRVn1bayOMwkvm1S-159" value="" style="group" vertex="1" connectable="0" parent="1">
          <mxGeometry x="2410" y="1700" width="60" height="50" as="geometry" />
        </mxCell>
        <mxCell id="60P3BRVn1bayOMwkvm1S-160" value="" style="verticalLabelPosition=bottom;verticalAlign=top;html=1;shape=mxgraph.basic.flash;fillColor=#FFFF00;" vertex="1" parent="60P3BRVn1bayOMwkvm1S-159">
          <mxGeometry x="12.857142857142856" y="22.727272727272727" width="12.857142857142856" height="22.727272727272727" as="geometry" />
        </mxCell>
        <mxCell id="60P3BRVn1bayOMwkvm1S-161" value="" style="verticalLabelPosition=bottom;verticalAlign=top;html=1;shape=mxgraph.basic.flash;fillColor=#FFFF00;" vertex="1" parent="60P3BRVn1bayOMwkvm1S-159">
          <mxGeometry x="30" y="27.272727272727273" width="12.857142857142856" height="22.727272727272727" as="geometry" />
        </mxCell>
        <mxCell id="60P3BRVn1bayOMwkvm1S-162" value="&lt;font color=&quot;#9933ff&quot;&gt;????&lt;/font&gt;" style="ellipse;shape=cloud;whiteSpace=wrap;html=1;fillColor=#CCCCCC;" vertex="1" parent="60P3BRVn1bayOMwkvm1S-159">
          <mxGeometry width="51.42857142857142" height="36.36363636363636" as="geometry" />
        </mxCell>
        <mxCell id="60P3BRVn1bayOMwkvm1S-163" value="" style="group" vertex="1" connectable="0" parent="1">
          <mxGeometry x="2250" y="1540" width="60" height="50" as="geometry" />
        </mxCell>
        <mxCell id="60P3BRVn1bayOMwkvm1S-164" value="" style="verticalLabelPosition=bottom;verticalAlign=top;html=1;shape=mxgraph.basic.flash;fillColor=#FFFF00;" vertex="1" parent="60P3BRVn1bayOMwkvm1S-163">
          <mxGeometry x="12.857142857142856" y="22.727272727272727" width="12.857142857142856" height="22.727272727272727" as="geometry" />
        </mxCell>
        <mxCell id="60P3BRVn1bayOMwkvm1S-165" value="" style="verticalLabelPosition=bottom;verticalAlign=top;html=1;shape=mxgraph.basic.flash;fillColor=#FFFF00;" vertex="1" parent="60P3BRVn1bayOMwkvm1S-163">
          <mxGeometry x="30" y="27.272727272727273" width="12.857142857142856" height="22.727272727272727" as="geometry" />
        </mxCell>
        <mxCell id="60P3BRVn1bayOMwkvm1S-166" value="&lt;font color=&quot;#9933ff&quot;&gt;????&lt;/font&gt;" style="ellipse;shape=cloud;whiteSpace=wrap;html=1;fillColor=#CCCCCC;" vertex="1" parent="60P3BRVn1bayOMwkvm1S-163">
          <mxGeometry width="51.42857142857142" height="36.36363636363636" as="geometry" />
        </mxCell>
        <mxCell id="60P3BRVn1bayOMwkvm1S-167" value="" style="group" vertex="1" connectable="0" parent="1">
          <mxGeometry x="2490" y="1780" width="60" height="50" as="geometry" />
        </mxCell>
        <mxCell id="60P3BRVn1bayOMwkvm1S-168" value="" style="verticalLabelPosition=bottom;verticalAlign=top;html=1;shape=mxgraph.basic.flash;fillColor=#FFFF00;" vertex="1" parent="60P3BRVn1bayOMwkvm1S-167">
          <mxGeometry x="12.857142857142856" y="22.727272727272727" width="12.857142857142856" height="22.727272727272727" as="geometry" />
        </mxCell>
        <mxCell id="60P3BRVn1bayOMwkvm1S-169" value="" style="verticalLabelPosition=bottom;verticalAlign=top;html=1;shape=mxgraph.basic.flash;fillColor=#FFFF00;" vertex="1" parent="60P3BRVn1bayOMwkvm1S-167">
          <mxGeometry x="30" y="27.272727272727273" width="12.857142857142856" height="22.727272727272727" as="geometry" />
        </mxCell>
        <mxCell id="60P3BRVn1bayOMwkvm1S-170" value="&lt;font color=&quot;#9933ff&quot;&gt;????&lt;/font&gt;" style="ellipse;shape=cloud;whiteSpace=wrap;html=1;fillColor=#CCCCCC;" vertex="1" parent="60P3BRVn1bayOMwkvm1S-167">
          <mxGeometry width="51.42857142857142" height="36.36363636363636" as="geometry" />
        </mxCell>
        <mxCell id="60P3BRVn1bayOMwkvm1S-171" value="" style="rounded=0;whiteSpace=wrap;html=1;" vertex="1" parent="1">
          <mxGeometry x="2400" y="1602" width="80" height="80" as="geometry" />
        </mxCell>
        <mxCell id="60P3BRVn1bayOMwkvm1S-87" value="" style="group" vertex="1" connectable="0" parent="1">
          <mxGeometry x="2414" y="1617" width="60" height="50" as="geometry" />
        </mxCell>
        <mxCell id="60P3BRVn1bayOMwkvm1S-88" value="" style="verticalLabelPosition=bottom;verticalAlign=top;html=1;shape=mxgraph.basic.flash;fillColor=#FFFF00;" vertex="1" parent="60P3BRVn1bayOMwkvm1S-87">
          <mxGeometry x="12.857142857142856" y="22.727272727272727" width="12.857142857142856" height="22.727272727272727" as="geometry" />
        </mxCell>
        <mxCell id="60P3BRVn1bayOMwkvm1S-89" value="" style="verticalLabelPosition=bottom;verticalAlign=top;html=1;shape=mxgraph.basic.flash;fillColor=#FFFF00;" vertex="1" parent="60P3BRVn1bayOMwkvm1S-87">
          <mxGeometry x="30" y="27.272727272727273" width="12.857142857142856" height="22.727272727272727" as="geometry" />
        </mxCell>
        <mxCell id="60P3BRVn1bayOMwkvm1S-90" value="&lt;font color=&quot;#9933ff&quot;&gt;????&lt;/font&gt;" style="ellipse;shape=cloud;whiteSpace=wrap;html=1;fillColor=#CCCCCC;" vertex="1" parent="60P3BRVn1bayOMwkvm1S-87">
          <mxGeometry width="51.42857142857142" height="36.36363636363636" as="geometry" />
        </mxCell>
        <mxCell id="60P3BRVn1bayOMwkvm1S-174" value="" style="group;flipV=0;flipH=1;" vertex="1" connectable="0" parent="1">
          <mxGeometry x="2000" y="359.73" width="640" height="640.27" as="geometry" />
        </mxCell>
        <mxCell id="L4q9XZSvd_akfMlWm6T2-220" value="" style="group;fillColor=default;container=0;flipV=0;" parent="60P3BRVn1bayOMwkvm1S-174" vertex="1" connectable="0">
          <mxGeometry width="640" height="640.27" as="geometry" />
        </mxCell>
        <mxCell id="L4q9XZSvd_akfMlWm6T2-141" value="" style="rounded=0;whiteSpace=wrap;html=1;flipV=0;" parent="60P3BRVn1bayOMwkvm1S-174" vertex="1">
          <mxGeometry x="560" y="80" width="80" height="80" as="geometry" />
        </mxCell>
        <mxCell id="L4q9XZSvd_akfMlWm6T2-142" value="" style="rounded=0;whiteSpace=wrap;html=1;flipV=0;" parent="60P3BRVn1bayOMwkvm1S-174" vertex="1">
          <mxGeometry x="480" y="80" width="80" height="80" as="geometry" />
        </mxCell>
        <mxCell id="L4q9XZSvd_akfMlWm6T2-144" value="" style="rounded=0;whiteSpace=wrap;html=1;flipV=0;" parent="60P3BRVn1bayOMwkvm1S-174" vertex="1">
          <mxGeometry x="400" y="80" width="80" height="80" as="geometry" />
        </mxCell>
        <mxCell id="L4q9XZSvd_akfMlWm6T2-145" value="" style="rounded=0;whiteSpace=wrap;html=1;flipV=0;" parent="60P3BRVn1bayOMwkvm1S-174" vertex="1">
          <mxGeometry x="320" y="80" width="80" height="80" as="geometry" />
        </mxCell>
        <mxCell id="L4q9XZSvd_akfMlWm6T2-146" value="" style="rounded=0;whiteSpace=wrap;html=1;flipV=0;" parent="60P3BRVn1bayOMwkvm1S-174" vertex="1">
          <mxGeometry x="240" y="80" width="80" height="80" as="geometry" />
        </mxCell>
        <mxCell id="L4q9XZSvd_akfMlWm6T2-147" value="" style="rounded=0;whiteSpace=wrap;html=1;flipV=0;" parent="60P3BRVn1bayOMwkvm1S-174" vertex="1">
          <mxGeometry x="160" y="80" width="80" height="80" as="geometry" />
        </mxCell>
        <mxCell id="L4q9XZSvd_akfMlWm6T2-148" value="" style="rounded=0;whiteSpace=wrap;html=1;flipV=0;" parent="60P3BRVn1bayOMwkvm1S-174" vertex="1">
          <mxGeometry y="80" width="80" height="80" as="geometry" />
        </mxCell>
        <mxCell id="L4q9XZSvd_akfMlWm6T2-149" value="" style="rounded=0;whiteSpace=wrap;html=1;flipV=0;" parent="60P3BRVn1bayOMwkvm1S-174" vertex="1">
          <mxGeometry x="80" y="80" width="80" height="80" as="geometry" />
        </mxCell>
        <mxCell id="L4q9XZSvd_akfMlWm6T2-151" value="" style="rounded=0;whiteSpace=wrap;html=1;flipV=0;" parent="60P3BRVn1bayOMwkvm1S-174" vertex="1">
          <mxGeometry x="560" width="80" height="80" as="geometry" />
        </mxCell>
        <mxCell id="L4q9XZSvd_akfMlWm6T2-152" value="" style="rounded=0;whiteSpace=wrap;html=1;flipV=0;" parent="60P3BRVn1bayOMwkvm1S-174" vertex="1">
          <mxGeometry x="480" width="80" height="80" as="geometry" />
        </mxCell>
        <mxCell id="L4q9XZSvd_akfMlWm6T2-154" value="" style="rounded=0;whiteSpace=wrap;html=1;flipV=0;" parent="60P3BRVn1bayOMwkvm1S-174" vertex="1">
          <mxGeometry x="400" width="80" height="80" as="geometry" />
        </mxCell>
        <mxCell id="L4q9XZSvd_akfMlWm6T2-155" value="" style="rounded=0;whiteSpace=wrap;html=1;flipV=0;" parent="60P3BRVn1bayOMwkvm1S-174" vertex="1">
          <mxGeometry x="320" width="80" height="80" as="geometry" />
        </mxCell>
        <mxCell id="L4q9XZSvd_akfMlWm6T2-156" value="" style="rounded=0;whiteSpace=wrap;html=1;flipV=0;" parent="60P3BRVn1bayOMwkvm1S-174" vertex="1">
          <mxGeometry x="240" width="80" height="80" as="geometry" />
        </mxCell>
        <mxCell id="L4q9XZSvd_akfMlWm6T2-157" value="" style="rounded=0;whiteSpace=wrap;html=1;flipV=0;" parent="60P3BRVn1bayOMwkvm1S-174" vertex="1">
          <mxGeometry x="160" width="80" height="80" as="geometry" />
        </mxCell>
        <mxCell id="L4q9XZSvd_akfMlWm6T2-158" value="" style="rounded=0;whiteSpace=wrap;html=1;flipV=0;" parent="60P3BRVn1bayOMwkvm1S-174" vertex="1">
          <mxGeometry width="80" height="80" as="geometry" />
        </mxCell>
        <mxCell id="L4q9XZSvd_akfMlWm6T2-159" value="" style="rounded=0;whiteSpace=wrap;html=1;flipV=0;" parent="60P3BRVn1bayOMwkvm1S-174" vertex="1">
          <mxGeometry x="80" width="80" height="80" as="geometry" />
        </mxCell>
        <mxCell id="L4q9XZSvd_akfMlWm6T2-161" value="" style="rounded=0;whiteSpace=wrap;html=1;flipV=0;" parent="60P3BRVn1bayOMwkvm1S-174" vertex="1">
          <mxGeometry x="560" y="160" width="80" height="80" as="geometry" />
        </mxCell>
        <mxCell id="L4q9XZSvd_akfMlWm6T2-162" value="" style="rounded=0;whiteSpace=wrap;html=1;flipV=0;" parent="60P3BRVn1bayOMwkvm1S-174" vertex="1">
          <mxGeometry x="480" y="160" width="80" height="80" as="geometry" />
        </mxCell>
        <mxCell id="L4q9XZSvd_akfMlWm6T2-164" value="" style="rounded=0;whiteSpace=wrap;html=1;flipV=0;" parent="60P3BRVn1bayOMwkvm1S-174" vertex="1">
          <mxGeometry x="400" y="160" width="80" height="80" as="geometry" />
        </mxCell>
        <mxCell id="L4q9XZSvd_akfMlWm6T2-165" value="" style="rounded=0;whiteSpace=wrap;html=1;flipV=0;" parent="60P3BRVn1bayOMwkvm1S-174" vertex="1">
          <mxGeometry x="320" y="160" width="80" height="80" as="geometry" />
        </mxCell>
        <mxCell id="L4q9XZSvd_akfMlWm6T2-166" value="" style="rounded=0;whiteSpace=wrap;html=1;flipV=0;" parent="60P3BRVn1bayOMwkvm1S-174" vertex="1">
          <mxGeometry x="240" y="160" width="80" height="80" as="geometry" />
        </mxCell>
        <mxCell id="L4q9XZSvd_akfMlWm6T2-167" value="" style="rounded=0;whiteSpace=wrap;html=1;flipV=0;" parent="60P3BRVn1bayOMwkvm1S-174" vertex="1">
          <mxGeometry x="160" y="160" width="80" height="80" as="geometry" />
        </mxCell>
        <mxCell id="L4q9XZSvd_akfMlWm6T2-168" value="" style="rounded=0;whiteSpace=wrap;html=1;flipV=0;" parent="60P3BRVn1bayOMwkvm1S-174" vertex="1">
          <mxGeometry y="160" width="80" height="80" as="geometry" />
        </mxCell>
        <mxCell id="L4q9XZSvd_akfMlWm6T2-169" value="" style="rounded=0;whiteSpace=wrap;html=1;flipV=0;" parent="60P3BRVn1bayOMwkvm1S-174" vertex="1">
          <mxGeometry x="80" y="160" width="80" height="80" as="geometry" />
        </mxCell>
        <mxCell id="L4q9XZSvd_akfMlWm6T2-171" value="" style="rounded=0;whiteSpace=wrap;html=1;flipV=0;" parent="60P3BRVn1bayOMwkvm1S-174" vertex="1">
          <mxGeometry x="560" y="320.27" width="80" height="80" as="geometry" />
        </mxCell>
        <mxCell id="L4q9XZSvd_akfMlWm6T2-172" value="" style="rounded=0;whiteSpace=wrap;html=1;flipV=0;" parent="60P3BRVn1bayOMwkvm1S-174" vertex="1">
          <mxGeometry x="480" y="320.27" width="80" height="80" as="geometry" />
        </mxCell>
        <mxCell id="L4q9XZSvd_akfMlWm6T2-174" value="" style="rounded=0;whiteSpace=wrap;html=1;flipV=0;" parent="60P3BRVn1bayOMwkvm1S-174" vertex="1">
          <mxGeometry x="400" y="320.27" width="80" height="80" as="geometry" />
        </mxCell>
        <mxCell id="L4q9XZSvd_akfMlWm6T2-175" value="" style="rounded=0;whiteSpace=wrap;html=1;flipV=0;" parent="60P3BRVn1bayOMwkvm1S-174" vertex="1">
          <mxGeometry x="320" y="320.27" width="80" height="80" as="geometry" />
        </mxCell>
        <mxCell id="L4q9XZSvd_akfMlWm6T2-176" value="" style="rounded=0;whiteSpace=wrap;html=1;flipV=0;" parent="60P3BRVn1bayOMwkvm1S-174" vertex="1">
          <mxGeometry x="240" y="320.27" width="80" height="80" as="geometry" />
        </mxCell>
        <mxCell id="L4q9XZSvd_akfMlWm6T2-177" value="" style="rounded=0;whiteSpace=wrap;html=1;flipV=0;" parent="60P3BRVn1bayOMwkvm1S-174" vertex="1">
          <mxGeometry x="160" y="320.27" width="80" height="80" as="geometry" />
        </mxCell>
        <mxCell id="L4q9XZSvd_akfMlWm6T2-178" value="" style="rounded=0;whiteSpace=wrap;html=1;flipV=0;" parent="60P3BRVn1bayOMwkvm1S-174" vertex="1">
          <mxGeometry y="320.27" width="80" height="80" as="geometry" />
        </mxCell>
        <mxCell id="L4q9XZSvd_akfMlWm6T2-179" value="" style="rounded=0;whiteSpace=wrap;html=1;flipV=0;" parent="60P3BRVn1bayOMwkvm1S-174" vertex="1">
          <mxGeometry x="80" y="320.27" width="80" height="80" as="geometry" />
        </mxCell>
        <mxCell id="L4q9XZSvd_akfMlWm6T2-181" value="" style="rounded=0;whiteSpace=wrap;html=1;flipV=0;" parent="60P3BRVn1bayOMwkvm1S-174" vertex="1">
          <mxGeometry x="560" y="240.26999999999998" width="80" height="80" as="geometry" />
        </mxCell>
        <mxCell id="L4q9XZSvd_akfMlWm6T2-182" value="" style="rounded=0;whiteSpace=wrap;html=1;flipV=0;" parent="60P3BRVn1bayOMwkvm1S-174" vertex="1">
          <mxGeometry x="480" y="240.26999999999998" width="80" height="80" as="geometry" />
        </mxCell>
        <mxCell id="L4q9XZSvd_akfMlWm6T2-184" value="" style="rounded=0;whiteSpace=wrap;html=1;flipV=0;" parent="60P3BRVn1bayOMwkvm1S-174" vertex="1">
          <mxGeometry x="400" y="240.26999999999998" width="80" height="80" as="geometry" />
        </mxCell>
        <mxCell id="L4q9XZSvd_akfMlWm6T2-185" value="" style="rounded=0;whiteSpace=wrap;html=1;flipV=0;" parent="60P3BRVn1bayOMwkvm1S-174" vertex="1">
          <mxGeometry x="320" y="240.26999999999998" width="80" height="80" as="geometry" />
        </mxCell>
        <mxCell id="L4q9XZSvd_akfMlWm6T2-186" value="" style="rounded=0;whiteSpace=wrap;html=1;flipV=0;" parent="60P3BRVn1bayOMwkvm1S-174" vertex="1">
          <mxGeometry x="240" y="240.26999999999998" width="80" height="80" as="geometry" />
        </mxCell>
        <mxCell id="L4q9XZSvd_akfMlWm6T2-187" value="" style="rounded=0;whiteSpace=wrap;html=1;flipV=0;" parent="60P3BRVn1bayOMwkvm1S-174" vertex="1">
          <mxGeometry x="160" y="240.26999999999998" width="80" height="80" as="geometry" />
        </mxCell>
        <mxCell id="L4q9XZSvd_akfMlWm6T2-188" value="" style="rounded=0;whiteSpace=wrap;html=1;flipV=0;" parent="60P3BRVn1bayOMwkvm1S-174" vertex="1">
          <mxGeometry y="240.26999999999998" width="80" height="80" as="geometry" />
        </mxCell>
        <mxCell id="L4q9XZSvd_akfMlWm6T2-189" value="" style="rounded=0;whiteSpace=wrap;html=1;flipV=0;" parent="60P3BRVn1bayOMwkvm1S-174" vertex="1">
          <mxGeometry x="80" y="240.26999999999998" width="80" height="80" as="geometry" />
        </mxCell>
        <mxCell id="L4q9XZSvd_akfMlWm6T2-191" value="" style="rounded=0;whiteSpace=wrap;html=1;flipV=0;" parent="60P3BRVn1bayOMwkvm1S-174" vertex="1">
          <mxGeometry x="560" y="480.27" width="80" height="80" as="geometry" />
        </mxCell>
        <mxCell id="L4q9XZSvd_akfMlWm6T2-192" value="" style="rounded=0;whiteSpace=wrap;html=1;flipV=0;" parent="60P3BRVn1bayOMwkvm1S-174" vertex="1">
          <mxGeometry x="480" y="480.27" width="80" height="80" as="geometry" />
        </mxCell>
        <mxCell id="L4q9XZSvd_akfMlWm6T2-194" value="" style="rounded=0;whiteSpace=wrap;html=1;flipV=0;" parent="60P3BRVn1bayOMwkvm1S-174" vertex="1">
          <mxGeometry x="400" y="480.27" width="80" height="80" as="geometry" />
        </mxCell>
        <mxCell id="L4q9XZSvd_akfMlWm6T2-195" value="" style="rounded=0;whiteSpace=wrap;html=1;flipV=0;" parent="60P3BRVn1bayOMwkvm1S-174" vertex="1">
          <mxGeometry x="320" y="480.27" width="80" height="80" as="geometry" />
        </mxCell>
        <mxCell id="L4q9XZSvd_akfMlWm6T2-196" value="" style="rounded=0;whiteSpace=wrap;html=1;flipV=0;" parent="60P3BRVn1bayOMwkvm1S-174" vertex="1">
          <mxGeometry x="240" y="480.27" width="80" height="80" as="geometry" />
        </mxCell>
        <mxCell id="L4q9XZSvd_akfMlWm6T2-197" value="" style="rounded=0;whiteSpace=wrap;html=1;flipV=0;" parent="60P3BRVn1bayOMwkvm1S-174" vertex="1">
          <mxGeometry x="160" y="480.27" width="80" height="80" as="geometry" />
        </mxCell>
        <mxCell id="L4q9XZSvd_akfMlWm6T2-198" value="" style="rounded=0;whiteSpace=wrap;html=1;flipV=0;" parent="60P3BRVn1bayOMwkvm1S-174" vertex="1">
          <mxGeometry y="480.27" width="80" height="80" as="geometry" />
        </mxCell>
        <mxCell id="L4q9XZSvd_akfMlWm6T2-199" value="" style="rounded=0;whiteSpace=wrap;html=1;flipV=0;" parent="60P3BRVn1bayOMwkvm1S-174" vertex="1">
          <mxGeometry x="80" y="480.27" width="80" height="80" as="geometry" />
        </mxCell>
        <mxCell id="L4q9XZSvd_akfMlWm6T2-201" value="" style="rounded=0;whiteSpace=wrap;html=1;flipV=0;" parent="60P3BRVn1bayOMwkvm1S-174" vertex="1">
          <mxGeometry x="560" y="400.27" width="80" height="80" as="geometry" />
        </mxCell>
        <mxCell id="L4q9XZSvd_akfMlWm6T2-202" value="" style="rounded=0;whiteSpace=wrap;html=1;flipV=0;" parent="60P3BRVn1bayOMwkvm1S-174" vertex="1">
          <mxGeometry x="480" y="400.27" width="80" height="80" as="geometry" />
        </mxCell>
        <mxCell id="L4q9XZSvd_akfMlWm6T2-204" value="" style="rounded=0;whiteSpace=wrap;html=1;flipV=0;" parent="60P3BRVn1bayOMwkvm1S-174" vertex="1">
          <mxGeometry x="400" y="400.27" width="80" height="80" as="geometry" />
        </mxCell>
        <mxCell id="L4q9XZSvd_akfMlWm6T2-205" value="" style="rounded=0;whiteSpace=wrap;html=1;flipV=0;" parent="60P3BRVn1bayOMwkvm1S-174" vertex="1">
          <mxGeometry x="320" y="400.27" width="80" height="80" as="geometry" />
        </mxCell>
        <mxCell id="L4q9XZSvd_akfMlWm6T2-206" value="" style="rounded=0;whiteSpace=wrap;html=1;flipV=0;" parent="60P3BRVn1bayOMwkvm1S-174" vertex="1">
          <mxGeometry x="240" y="400.27" width="80" height="80" as="geometry" />
        </mxCell>
        <mxCell id="L4q9XZSvd_akfMlWm6T2-207" value="" style="rounded=0;whiteSpace=wrap;html=1;flipV=0;" parent="60P3BRVn1bayOMwkvm1S-174" vertex="1">
          <mxGeometry x="160" y="400.27" width="80" height="80" as="geometry" />
        </mxCell>
        <mxCell id="L4q9XZSvd_akfMlWm6T2-208" value="" style="rounded=0;whiteSpace=wrap;html=1;flipV=0;" parent="60P3BRVn1bayOMwkvm1S-174" vertex="1">
          <mxGeometry y="400.27" width="80" height="80" as="geometry" />
        </mxCell>
        <mxCell id="L4q9XZSvd_akfMlWm6T2-209" value="" style="rounded=0;whiteSpace=wrap;html=1;flipV=0;" parent="60P3BRVn1bayOMwkvm1S-174" vertex="1">
          <mxGeometry x="80" y="400.27" width="80" height="80" as="geometry" />
        </mxCell>
        <mxCell id="L4q9XZSvd_akfMlWm6T2-211" value="" style="rounded=0;whiteSpace=wrap;html=1;flipV=0;" parent="60P3BRVn1bayOMwkvm1S-174" vertex="1">
          <mxGeometry x="560" y="560.27" width="80" height="80" as="geometry" />
        </mxCell>
        <mxCell id="L4q9XZSvd_akfMlWm6T2-212" value="" style="rounded=0;whiteSpace=wrap;html=1;flipV=0;" parent="60P3BRVn1bayOMwkvm1S-174" vertex="1">
          <mxGeometry x="480" y="560.27" width="80" height="80" as="geometry" />
        </mxCell>
        <mxCell id="L4q9XZSvd_akfMlWm6T2-214" value="" style="rounded=0;whiteSpace=wrap;html=1;flipV=0;" parent="60P3BRVn1bayOMwkvm1S-174" vertex="1">
          <mxGeometry x="400" y="560.27" width="80" height="80" as="geometry" />
        </mxCell>
        <mxCell id="L4q9XZSvd_akfMlWm6T2-215" value="" style="rounded=0;whiteSpace=wrap;html=1;flipV=0;" parent="60P3BRVn1bayOMwkvm1S-174" vertex="1">
          <mxGeometry x="320" y="560.27" width="80" height="80" as="geometry" />
        </mxCell>
        <mxCell id="L4q9XZSvd_akfMlWm6T2-216" value="" style="rounded=0;whiteSpace=wrap;html=1;flipV=0;" parent="60P3BRVn1bayOMwkvm1S-174" vertex="1">
          <mxGeometry x="240" y="560.27" width="80" height="80" as="geometry" />
        </mxCell>
        <mxCell id="L4q9XZSvd_akfMlWm6T2-217" value="" style="rounded=0;whiteSpace=wrap;html=1;flipV=0;" parent="60P3BRVn1bayOMwkvm1S-174" vertex="1">
          <mxGeometry x="160" y="560.27" width="80" height="80" as="geometry" />
        </mxCell>
        <mxCell id="L4q9XZSvd_akfMlWm6T2-218" value="" style="rounded=0;whiteSpace=wrap;html=1;flipV=0;" parent="60P3BRVn1bayOMwkvm1S-174" vertex="1">
          <mxGeometry y="560.27" width="80" height="80" as="geometry" />
        </mxCell>
        <mxCell id="L4q9XZSvd_akfMlWm6T2-219" value="" style="rounded=0;whiteSpace=wrap;html=1;flipV=0;" parent="60P3BRVn1bayOMwkvm1S-174" vertex="1">
          <mxGeometry x="80" y="560.27" width="80" height="80" as="geometry" />
        </mxCell>
        <mxCell id="L4q9XZSvd_akfMlWm6T2-221" value="" style="shape=mxgraph.signs.transportation.airplane_5;html=1;pointerEvents=1;fillColor=#EA6B66;strokeColor=none;verticalLabelPosition=bottom;verticalAlign=top;align=center;rotation=-90;flipV=1;flipH=0;" parent="60P3BRVn1bayOMwkvm1S-174" vertex="1">
          <mxGeometry x="21.25" y="576.27" width="37.5" height="48" as="geometry" />
        </mxCell>
        <mxCell id="L4q9XZSvd_akfMlWm6T2-233" value="" style="ellipse;whiteSpace=wrap;html=1;aspect=fixed;fillColor=#EA6B66;strokeColor=#EA6B66;flipV=0;" parent="60P3BRVn1bayOMwkvm1S-174" vertex="1">
          <mxGeometry x="584.5" y="24.5" width="31" height="31" as="geometry" />
        </mxCell>
        <mxCell id="L4q9XZSvd_akfMlWm6T2-222" value="" style="group;flipV=0;" parent="60P3BRVn1bayOMwkvm1S-174" vertex="1" connectable="0">
          <mxGeometry x="570" y="580" width="60" height="50" as="geometry" />
        </mxCell>
        <mxCell id="L4q9XZSvd_akfMlWm6T2-223" value="" style="verticalLabelPosition=bottom;verticalAlign=top;html=1;shape=mxgraph.basic.flash;fillColor=#FFFF00;" parent="L4q9XZSvd_akfMlWm6T2-222" vertex="1">
          <mxGeometry x="12.857142857142856" y="22.727272727272727" width="12.857142857142856" height="22.727272727272727" as="geometry" />
        </mxCell>
        <mxCell id="L4q9XZSvd_akfMlWm6T2-224" value="" style="verticalLabelPosition=bottom;verticalAlign=top;html=1;shape=mxgraph.basic.flash;fillColor=#FFFF00;" parent="L4q9XZSvd_akfMlWm6T2-222" vertex="1">
          <mxGeometry x="30" y="27.272727272727273" width="12.857142857142856" height="22.727272727272727" as="geometry" />
        </mxCell>
        <mxCell id="L4q9XZSvd_akfMlWm6T2-225" value="&lt;font color=&quot;#9933ff&quot;&gt;????&lt;/font&gt;" style="ellipse;shape=cloud;whiteSpace=wrap;html=1;fillColor=#CCCCCC;" parent="L4q9XZSvd_akfMlWm6T2-222" vertex="1">
          <mxGeometry width="51.42857142857142" height="36.36363636363636" as="geometry" />
        </mxCell>
        <mxCell id="L4q9XZSvd_akfMlWm6T2-359" value="" style="group;flipV=0;" parent="60P3BRVn1bayOMwkvm1S-174" vertex="1" connectable="0">
          <mxGeometry x="410" y="415.27" width="60" height="50" as="geometry" />
        </mxCell>
        <mxCell id="L4q9XZSvd_akfMlWm6T2-360" value="" style="verticalLabelPosition=bottom;verticalAlign=top;html=1;shape=mxgraph.basic.flash;fillColor=#FFFF00;" parent="L4q9XZSvd_akfMlWm6T2-359" vertex="1">
          <mxGeometry x="12.857142857142856" y="22.727272727272727" width="12.857142857142856" height="22.727272727272727" as="geometry" />
        </mxCell>
        <mxCell id="L4q9XZSvd_akfMlWm6T2-361" value="" style="verticalLabelPosition=bottom;verticalAlign=top;html=1;shape=mxgraph.basic.flash;fillColor=#FFFF00;" parent="L4q9XZSvd_akfMlWm6T2-359" vertex="1">
          <mxGeometry x="30" y="27.272727272727273" width="12.857142857142856" height="22.727272727272727" as="geometry" />
        </mxCell>
        <mxCell id="L4q9XZSvd_akfMlWm6T2-362" value="&lt;font color=&quot;#9933ff&quot;&gt;????&lt;/font&gt;" style="ellipse;shape=cloud;whiteSpace=wrap;html=1;fillColor=#CCCCCC;" parent="L4q9XZSvd_akfMlWm6T2-359" vertex="1">
          <mxGeometry width="51.42857142857142" height="36.36363636363636" as="geometry" />
        </mxCell>
        <mxCell id="L4q9XZSvd_akfMlWm6T2-363" value="" style="group;flipV=0;" parent="60P3BRVn1bayOMwkvm1S-174" vertex="1" connectable="0">
          <mxGeometry x="490" y="495.27" width="60" height="50" as="geometry" />
        </mxCell>
        <mxCell id="L4q9XZSvd_akfMlWm6T2-364" value="" style="verticalLabelPosition=bottom;verticalAlign=top;html=1;shape=mxgraph.basic.flash;fillColor=#FFFF00;" parent="L4q9XZSvd_akfMlWm6T2-363" vertex="1">
          <mxGeometry x="12.857142857142856" y="22.727272727272727" width="12.857142857142856" height="22.727272727272727" as="geometry" />
        </mxCell>
        <mxCell id="L4q9XZSvd_akfMlWm6T2-365" value="" style="verticalLabelPosition=bottom;verticalAlign=top;html=1;shape=mxgraph.basic.flash;fillColor=#FFFF00;" parent="L4q9XZSvd_akfMlWm6T2-363" vertex="1">
          <mxGeometry x="30" y="27.272727272727273" width="12.857142857142856" height="22.727272727272727" as="geometry" />
        </mxCell>
        <mxCell id="L4q9XZSvd_akfMlWm6T2-366" value="&lt;font color=&quot;#9933ff&quot;&gt;????&lt;/font&gt;" style="ellipse;shape=cloud;whiteSpace=wrap;html=1;fillColor=#CCCCCC;" parent="L4q9XZSvd_akfMlWm6T2-363" vertex="1">
          <mxGeometry width="51.42857142857142" height="36.36363636363636" as="geometry" />
        </mxCell>
        <mxCell id="L4q9XZSvd_akfMlWm6T2-367" value="" style="group;flipV=0;" parent="60P3BRVn1bayOMwkvm1S-174" vertex="1" connectable="0">
          <mxGeometry x="249" y="256" width="60" height="50" as="geometry" />
        </mxCell>
        <mxCell id="L4q9XZSvd_akfMlWm6T2-368" value="" style="verticalLabelPosition=bottom;verticalAlign=top;html=1;shape=mxgraph.basic.flash;fillColor=#FFFF00;" parent="L4q9XZSvd_akfMlWm6T2-367" vertex="1">
          <mxGeometry x="12.857142857142856" y="22.727272727272727" width="12.857142857142856" height="22.727272727272727" as="geometry" />
        </mxCell>
        <mxCell id="L4q9XZSvd_akfMlWm6T2-369" value="" style="verticalLabelPosition=bottom;verticalAlign=top;html=1;shape=mxgraph.basic.flash;fillColor=#FFFF00;" parent="L4q9XZSvd_akfMlWm6T2-367" vertex="1">
          <mxGeometry x="30" y="27.272727272727273" width="12.857142857142856" height="22.727272727272727" as="geometry" />
        </mxCell>
        <mxCell id="L4q9XZSvd_akfMlWm6T2-370" value="&lt;font color=&quot;#9933ff&quot;&gt;????&lt;/font&gt;" style="ellipse;shape=cloud;whiteSpace=wrap;html=1;fillColor=#CCCCCC;" parent="L4q9XZSvd_akfMlWm6T2-367" vertex="1">
          <mxGeometry width="51.42857142857142" height="36.36363636363636" as="geometry" />
        </mxCell>
        <mxCell id="L4q9XZSvd_akfMlWm6T2-371" value="" style="group;flipV=0;" parent="60P3BRVn1bayOMwkvm1S-174" vertex="1" connectable="0">
          <mxGeometry x="330" y="335.27" width="60" height="50" as="geometry" />
        </mxCell>
        <mxCell id="L4q9XZSvd_akfMlWm6T2-372" value="" style="verticalLabelPosition=bottom;verticalAlign=top;html=1;shape=mxgraph.basic.flash;fillColor=#FFFF00;" parent="L4q9XZSvd_akfMlWm6T2-371" vertex="1">
          <mxGeometry x="12.857142857142856" y="22.727272727272727" width="12.857142857142856" height="22.727272727272727" as="geometry" />
        </mxCell>
        <mxCell id="L4q9XZSvd_akfMlWm6T2-373" value="" style="verticalLabelPosition=bottom;verticalAlign=top;html=1;shape=mxgraph.basic.flash;fillColor=#FFFF00;" parent="L4q9XZSvd_akfMlWm6T2-371" vertex="1">
          <mxGeometry x="30" y="27.272727272727273" width="12.857142857142856" height="22.727272727272727" as="geometry" />
        </mxCell>
        <mxCell id="L4q9XZSvd_akfMlWm6T2-374" value="&lt;font color=&quot;#9933ff&quot;&gt;????&lt;/font&gt;" style="ellipse;shape=cloud;whiteSpace=wrap;html=1;fillColor=#CCCCCC;" parent="L4q9XZSvd_akfMlWm6T2-371" vertex="1">
          <mxGeometry width="51.42857142857142" height="36.36363636363636" as="geometry" />
        </mxCell>
        <mxCell id="L4q9XZSvd_akfMlWm6T2-375" value="" style="group;flipV=0;" parent="60P3BRVn1bayOMwkvm1S-174" vertex="1" connectable="0">
          <mxGeometry x="166" y="175" width="60" height="50" as="geometry" />
        </mxCell>
        <mxCell id="L4q9XZSvd_akfMlWm6T2-376" value="" style="verticalLabelPosition=bottom;verticalAlign=top;html=1;shape=mxgraph.basic.flash;fillColor=#FFFF00;" parent="L4q9XZSvd_akfMlWm6T2-375" vertex="1">
          <mxGeometry x="12.857142857142856" y="22.727272727272727" width="12.857142857142856" height="22.727272727272727" as="geometry" />
        </mxCell>
        <mxCell id="L4q9XZSvd_akfMlWm6T2-377" value="" style="verticalLabelPosition=bottom;verticalAlign=top;html=1;shape=mxgraph.basic.flash;fillColor=#FFFF00;" parent="L4q9XZSvd_akfMlWm6T2-375" vertex="1">
          <mxGeometry x="30" y="27.272727272727273" width="12.857142857142856" height="22.727272727272727" as="geometry" />
        </mxCell>
        <mxCell id="L4q9XZSvd_akfMlWm6T2-378" value="&lt;font color=&quot;#9933ff&quot;&gt;????&lt;/font&gt;" style="ellipse;shape=cloud;whiteSpace=wrap;html=1;fillColor=#CCCCCC;" parent="L4q9XZSvd_akfMlWm6T2-375" vertex="1">
          <mxGeometry width="51.42857142857142" height="36.36363636363636" as="geometry" />
        </mxCell>
        <mxCell id="L4q9XZSvd_akfMlWm6T2-379" value="" style="group;flipV=0;" parent="60P3BRVn1bayOMwkvm1S-174" vertex="1" connectable="0">
          <mxGeometry x="86" y="95" width="60" height="50" as="geometry" />
        </mxCell>
        <mxCell id="L4q9XZSvd_akfMlWm6T2-380" value="" style="verticalLabelPosition=bottom;verticalAlign=top;html=1;shape=mxgraph.basic.flash;fillColor=#FFFF00;" parent="L4q9XZSvd_akfMlWm6T2-379" vertex="1">
          <mxGeometry x="12.857142857142856" y="22.727272727272727" width="12.857142857142856" height="22.727272727272727" as="geometry" />
        </mxCell>
        <mxCell id="L4q9XZSvd_akfMlWm6T2-381" value="" style="verticalLabelPosition=bottom;verticalAlign=top;html=1;shape=mxgraph.basic.flash;fillColor=#FFFF00;" parent="L4q9XZSvd_akfMlWm6T2-379" vertex="1">
          <mxGeometry x="30" y="27.272727272727273" width="12.857142857142856" height="22.727272727272727" as="geometry" />
        </mxCell>
        <mxCell id="L4q9XZSvd_akfMlWm6T2-382" value="&lt;font color=&quot;#9933ff&quot;&gt;????&lt;/font&gt;" style="ellipse;shape=cloud;whiteSpace=wrap;html=1;fillColor=#CCCCCC;" parent="L4q9XZSvd_akfMlWm6T2-379" vertex="1">
          <mxGeometry width="51.42857142857142" height="36.36363636363636" as="geometry" />
        </mxCell>
        <mxCell id="L4q9XZSvd_akfMlWm6T2-383" value="" style="group;flipV=0;" parent="60P3BRVn1bayOMwkvm1S-174" vertex="1" connectable="0">
          <mxGeometry x="490" y="580" width="60" height="50" as="geometry" />
        </mxCell>
        <mxCell id="L4q9XZSvd_akfMlWm6T2-384" value="" style="verticalLabelPosition=bottom;verticalAlign=top;html=1;shape=mxgraph.basic.flash;fillColor=#FFFF00;" parent="L4q9XZSvd_akfMlWm6T2-383" vertex="1">
          <mxGeometry x="12.857142857142856" y="22.727272727272727" width="12.857142857142856" height="22.727272727272727" as="geometry" />
        </mxCell>
        <mxCell id="L4q9XZSvd_akfMlWm6T2-385" value="" style="verticalLabelPosition=bottom;verticalAlign=top;html=1;shape=mxgraph.basic.flash;fillColor=#FFFF00;" parent="L4q9XZSvd_akfMlWm6T2-383" vertex="1">
          <mxGeometry x="30" y="27.272727272727273" width="12.857142857142856" height="22.727272727272727" as="geometry" />
        </mxCell>
        <mxCell id="L4q9XZSvd_akfMlWm6T2-386" value="&lt;font color=&quot;#9933ff&quot;&gt;????&lt;/font&gt;" style="ellipse;shape=cloud;whiteSpace=wrap;html=1;fillColor=#CCCCCC;" parent="L4q9XZSvd_akfMlWm6T2-383" vertex="1">
          <mxGeometry width="51.42857142857142" height="36.36363636363636" as="geometry" />
        </mxCell>
        <mxCell id="L4q9XZSvd_akfMlWm6T2-387" value="" style="group;flipV=0;" parent="60P3BRVn1bayOMwkvm1S-174" vertex="1" connectable="0">
          <mxGeometry x="330" y="415.27" width="60" height="50" as="geometry" />
        </mxCell>
        <mxCell id="L4q9XZSvd_akfMlWm6T2-388" value="" style="verticalLabelPosition=bottom;verticalAlign=top;html=1;shape=mxgraph.basic.flash;fillColor=#FFFF00;" parent="L4q9XZSvd_akfMlWm6T2-387" vertex="1">
          <mxGeometry x="12.857142857142856" y="22.727272727272727" width="12.857142857142856" height="22.727272727272727" as="geometry" />
        </mxCell>
        <mxCell id="L4q9XZSvd_akfMlWm6T2-389" value="" style="verticalLabelPosition=bottom;verticalAlign=top;html=1;shape=mxgraph.basic.flash;fillColor=#FFFF00;" parent="L4q9XZSvd_akfMlWm6T2-387" vertex="1">
          <mxGeometry x="30" y="27.272727272727273" width="12.857142857142856" height="22.727272727272727" as="geometry" />
        </mxCell>
        <mxCell id="L4q9XZSvd_akfMlWm6T2-390" value="&lt;font color=&quot;#9933ff&quot;&gt;????&lt;/font&gt;" style="ellipse;shape=cloud;whiteSpace=wrap;html=1;fillColor=#CCCCCC;" parent="L4q9XZSvd_akfMlWm6T2-387" vertex="1">
          <mxGeometry width="51.42857142857142" height="36.36363636363636" as="geometry" />
        </mxCell>
        <mxCell id="L4q9XZSvd_akfMlWm6T2-391" value="" style="group;flipV=0;" parent="60P3BRVn1bayOMwkvm1S-174" vertex="1" connectable="0">
          <mxGeometry x="410" y="495.27" width="60" height="50" as="geometry" />
        </mxCell>
        <mxCell id="L4q9XZSvd_akfMlWm6T2-392" value="" style="verticalLabelPosition=bottom;verticalAlign=top;html=1;shape=mxgraph.basic.flash;fillColor=#FFFF00;" parent="L4q9XZSvd_akfMlWm6T2-391" vertex="1">
          <mxGeometry x="12.857142857142856" y="22.727272727272727" width="12.857142857142856" height="22.727272727272727" as="geometry" />
        </mxCell>
        <mxCell id="L4q9XZSvd_akfMlWm6T2-393" value="" style="verticalLabelPosition=bottom;verticalAlign=top;html=1;shape=mxgraph.basic.flash;fillColor=#FFFF00;" parent="L4q9XZSvd_akfMlWm6T2-391" vertex="1">
          <mxGeometry x="30" y="27.272727272727273" width="12.857142857142856" height="22.727272727272727" as="geometry" />
        </mxCell>
        <mxCell id="L4q9XZSvd_akfMlWm6T2-394" value="&lt;font color=&quot;#9933ff&quot;&gt;????&lt;/font&gt;" style="ellipse;shape=cloud;whiteSpace=wrap;html=1;fillColor=#CCCCCC;" parent="L4q9XZSvd_akfMlWm6T2-391" vertex="1">
          <mxGeometry width="51.42857142857142" height="36.36363636363636" as="geometry" />
        </mxCell>
        <mxCell id="L4q9XZSvd_akfMlWm6T2-395" value="" style="group;flipV=0;" parent="60P3BRVn1bayOMwkvm1S-174" vertex="1" connectable="0">
          <mxGeometry x="170" y="256" width="60" height="50" as="geometry" />
        </mxCell>
        <mxCell id="L4q9XZSvd_akfMlWm6T2-396" value="" style="verticalLabelPosition=bottom;verticalAlign=top;html=1;shape=mxgraph.basic.flash;fillColor=#FFFF00;" parent="L4q9XZSvd_akfMlWm6T2-395" vertex="1">
          <mxGeometry x="12.857142857142856" y="22.727272727272727" width="12.857142857142856" height="22.727272727272727" as="geometry" />
        </mxCell>
        <mxCell id="L4q9XZSvd_akfMlWm6T2-397" value="" style="verticalLabelPosition=bottom;verticalAlign=top;html=1;shape=mxgraph.basic.flash;fillColor=#FFFF00;" parent="L4q9XZSvd_akfMlWm6T2-395" vertex="1">
          <mxGeometry x="30" y="27.272727272727273" width="12.857142857142856" height="22.727272727272727" as="geometry" />
        </mxCell>
        <mxCell id="L4q9XZSvd_akfMlWm6T2-398" value="&lt;font color=&quot;#9933ff&quot;&gt;????&lt;/font&gt;" style="ellipse;shape=cloud;whiteSpace=wrap;html=1;fillColor=#CCCCCC;" parent="L4q9XZSvd_akfMlWm6T2-395" vertex="1">
          <mxGeometry width="51.42857142857142" height="36.36363636363636" as="geometry" />
        </mxCell>
        <mxCell id="L4q9XZSvd_akfMlWm6T2-399" value="" style="group;flipV=0;" parent="60P3BRVn1bayOMwkvm1S-174" vertex="1" connectable="0">
          <mxGeometry x="249" y="335.27" width="60" height="50" as="geometry" />
        </mxCell>
        <mxCell id="L4q9XZSvd_akfMlWm6T2-400" value="" style="verticalLabelPosition=bottom;verticalAlign=top;html=1;shape=mxgraph.basic.flash;fillColor=#FFFF00;" parent="L4q9XZSvd_akfMlWm6T2-399" vertex="1">
          <mxGeometry x="12.857142857142856" y="22.727272727272727" width="12.857142857142856" height="22.727272727272727" as="geometry" />
        </mxCell>
        <mxCell id="L4q9XZSvd_akfMlWm6T2-401" value="" style="verticalLabelPosition=bottom;verticalAlign=top;html=1;shape=mxgraph.basic.flash;fillColor=#FFFF00;" parent="L4q9XZSvd_akfMlWm6T2-399" vertex="1">
          <mxGeometry x="30" y="27.272727272727273" width="12.857142857142856" height="22.727272727272727" as="geometry" />
        </mxCell>
        <mxCell id="L4q9XZSvd_akfMlWm6T2-402" value="&lt;font color=&quot;#9933ff&quot;&gt;????&lt;/font&gt;" style="ellipse;shape=cloud;whiteSpace=wrap;html=1;fillColor=#CCCCCC;" parent="L4q9XZSvd_akfMlWm6T2-399" vertex="1">
          <mxGeometry width="51.42857142857142" height="36.36363636363636" as="geometry" />
        </mxCell>
        <mxCell id="L4q9XZSvd_akfMlWm6T2-403" value="" style="group;flipV=0;" parent="60P3BRVn1bayOMwkvm1S-174" vertex="1" connectable="0">
          <mxGeometry x="86" y="175" width="60" height="50" as="geometry" />
        </mxCell>
        <mxCell id="L4q9XZSvd_akfMlWm6T2-404" value="" style="verticalLabelPosition=bottom;verticalAlign=top;html=1;shape=mxgraph.basic.flash;fillColor=#FFFF00;" parent="L4q9XZSvd_akfMlWm6T2-403" vertex="1">
          <mxGeometry x="12.857142857142856" y="22.727272727272727" width="12.857142857142856" height="22.727272727272727" as="geometry" />
        </mxCell>
        <mxCell id="L4q9XZSvd_akfMlWm6T2-405" value="" style="verticalLabelPosition=bottom;verticalAlign=top;html=1;shape=mxgraph.basic.flash;fillColor=#FFFF00;" parent="L4q9XZSvd_akfMlWm6T2-403" vertex="1">
          <mxGeometry x="30" y="27.272727272727273" width="12.857142857142856" height="22.727272727272727" as="geometry" />
        </mxCell>
        <mxCell id="L4q9XZSvd_akfMlWm6T2-406" value="&lt;font color=&quot;#9933ff&quot;&gt;????&lt;/font&gt;" style="ellipse;shape=cloud;whiteSpace=wrap;html=1;fillColor=#CCCCCC;" parent="L4q9XZSvd_akfMlWm6T2-403" vertex="1">
          <mxGeometry width="51.42857142857142" height="36.36363636363636" as="geometry" />
        </mxCell>
        <mxCell id="L4q9XZSvd_akfMlWm6T2-407" value="" style="group;flipV=0;" parent="60P3BRVn1bayOMwkvm1S-174" vertex="1" connectable="0">
          <mxGeometry x="10" y="95" width="60" height="50" as="geometry" />
        </mxCell>
        <mxCell id="L4q9XZSvd_akfMlWm6T2-408" value="" style="verticalLabelPosition=bottom;verticalAlign=top;html=1;shape=mxgraph.basic.flash;fillColor=#FFFF00;" parent="L4q9XZSvd_akfMlWm6T2-407" vertex="1">
          <mxGeometry x="12.857142857142856" y="22.727272727272727" width="12.857142857142856" height="22.727272727272727" as="geometry" />
        </mxCell>
        <mxCell id="L4q9XZSvd_akfMlWm6T2-409" value="" style="verticalLabelPosition=bottom;verticalAlign=top;html=1;shape=mxgraph.basic.flash;fillColor=#FFFF00;" parent="L4q9XZSvd_akfMlWm6T2-407" vertex="1">
          <mxGeometry x="30" y="27.272727272727273" width="12.857142857142856" height="22.727272727272727" as="geometry" />
        </mxCell>
        <mxCell id="L4q9XZSvd_akfMlWm6T2-410" value="&lt;font color=&quot;#9933ff&quot;&gt;????&lt;/font&gt;" style="ellipse;shape=cloud;whiteSpace=wrap;html=1;fillColor=#CCCCCC;" parent="L4q9XZSvd_akfMlWm6T2-407" vertex="1">
          <mxGeometry width="51.42857142857142" height="36.36363636363636" as="geometry" />
        </mxCell>
        <mxCell id="L4q9XZSvd_akfMlWm6T2-411" value="" style="group;flipV=0;" parent="60P3BRVn1bayOMwkvm1S-174" vertex="1" connectable="0">
          <mxGeometry x="10" y="15" width="60" height="50" as="geometry" />
        </mxCell>
        <mxCell id="L4q9XZSvd_akfMlWm6T2-412" value="" style="verticalLabelPosition=bottom;verticalAlign=top;html=1;shape=mxgraph.basic.flash;fillColor=#FFFF00;" parent="L4q9XZSvd_akfMlWm6T2-411" vertex="1">
          <mxGeometry x="12.857142857142856" y="22.727272727272727" width="12.857142857142856" height="22.727272727272727" as="geometry" />
        </mxCell>
        <mxCell id="L4q9XZSvd_akfMlWm6T2-413" value="" style="verticalLabelPosition=bottom;verticalAlign=top;html=1;shape=mxgraph.basic.flash;fillColor=#FFFF00;" parent="L4q9XZSvd_akfMlWm6T2-411" vertex="1">
          <mxGeometry x="30" y="27.272727272727273" width="12.857142857142856" height="22.727272727272727" as="geometry" />
        </mxCell>
        <mxCell id="L4q9XZSvd_akfMlWm6T2-414" value="&lt;font color=&quot;#9933ff&quot;&gt;????&lt;/font&gt;" style="ellipse;shape=cloud;whiteSpace=wrap;html=1;fillColor=#CCCCCC;" parent="L4q9XZSvd_akfMlWm6T2-411" vertex="1">
          <mxGeometry width="51.42857142857142" height="36.36363636363636" as="geometry" />
        </mxCell>
        <mxCell id="L4q9XZSvd_akfMlWm6T2-416" value="" style="group;flipV=0;" parent="60P3BRVn1bayOMwkvm1S-174" vertex="1" connectable="0">
          <mxGeometry x="570" y="498" width="60" height="50" as="geometry" />
        </mxCell>
        <mxCell id="L4q9XZSvd_akfMlWm6T2-417" value="" style="verticalLabelPosition=bottom;verticalAlign=top;html=1;shape=mxgraph.basic.flash;fillColor=#FFFF00;" parent="L4q9XZSvd_akfMlWm6T2-416" vertex="1">
          <mxGeometry x="12.857142857142856" y="22.727272727272727" width="12.857142857142856" height="22.727272727272727" as="geometry" />
        </mxCell>
        <mxCell id="L4q9XZSvd_akfMlWm6T2-418" value="" style="verticalLabelPosition=bottom;verticalAlign=top;html=1;shape=mxgraph.basic.flash;fillColor=#FFFF00;" parent="L4q9XZSvd_akfMlWm6T2-416" vertex="1">
          <mxGeometry x="30" y="27.272727272727273" width="12.857142857142856" height="22.727272727272727" as="geometry" />
        </mxCell>
        <mxCell id="L4q9XZSvd_akfMlWm6T2-419" value="&lt;font color=&quot;#9933ff&quot;&gt;????&lt;/font&gt;" style="ellipse;shape=cloud;whiteSpace=wrap;html=1;fillColor=#CCCCCC;" parent="L4q9XZSvd_akfMlWm6T2-416" vertex="1">
          <mxGeometry width="51.42857142857142" height="36.36363636363636" as="geometry" />
        </mxCell>
        <mxCell id="L4q9XZSvd_akfMlWm6T2-420" value="" style="group;flipV=0;" parent="60P3BRVn1bayOMwkvm1S-174" vertex="1" connectable="0">
          <mxGeometry x="410" y="335.27" width="60" height="50" as="geometry" />
        </mxCell>
        <mxCell id="L4q9XZSvd_akfMlWm6T2-421" value="" style="verticalLabelPosition=bottom;verticalAlign=top;html=1;shape=mxgraph.basic.flash;fillColor=#FFFF00;" parent="L4q9XZSvd_akfMlWm6T2-420" vertex="1">
          <mxGeometry x="12.857142857142856" y="22.727272727272727" width="12.857142857142856" height="22.727272727272727" as="geometry" />
        </mxCell>
        <mxCell id="L4q9XZSvd_akfMlWm6T2-422" value="" style="verticalLabelPosition=bottom;verticalAlign=top;html=1;shape=mxgraph.basic.flash;fillColor=#FFFF00;" parent="L4q9XZSvd_akfMlWm6T2-420" vertex="1">
          <mxGeometry x="30" y="27.272727272727273" width="12.857142857142856" height="22.727272727272727" as="geometry" />
        </mxCell>
        <mxCell id="L4q9XZSvd_akfMlWm6T2-423" value="&lt;font color=&quot;#9933ff&quot;&gt;????&lt;/font&gt;" style="ellipse;shape=cloud;whiteSpace=wrap;html=1;fillColor=#CCCCCC;" parent="L4q9XZSvd_akfMlWm6T2-420" vertex="1">
          <mxGeometry width="51.42857142857142" height="36.36363636363636" as="geometry" />
        </mxCell>
        <mxCell id="L4q9XZSvd_akfMlWm6T2-424" value="" style="group;flipV=0;" parent="60P3BRVn1bayOMwkvm1S-174" vertex="1" connectable="0">
          <mxGeometry x="490" y="415.27" width="60" height="50" as="geometry" />
        </mxCell>
        <mxCell id="L4q9XZSvd_akfMlWm6T2-425" value="" style="verticalLabelPosition=bottom;verticalAlign=top;html=1;shape=mxgraph.basic.flash;fillColor=#FFFF00;" parent="L4q9XZSvd_akfMlWm6T2-424" vertex="1">
          <mxGeometry x="12.857142857142856" y="22.727272727272727" width="12.857142857142856" height="22.727272727272727" as="geometry" />
        </mxCell>
        <mxCell id="L4q9XZSvd_akfMlWm6T2-426" value="" style="verticalLabelPosition=bottom;verticalAlign=top;html=1;shape=mxgraph.basic.flash;fillColor=#FFFF00;" parent="L4q9XZSvd_akfMlWm6T2-424" vertex="1">
          <mxGeometry x="30" y="27.272727272727273" width="12.857142857142856" height="22.727272727272727" as="geometry" />
        </mxCell>
        <mxCell id="L4q9XZSvd_akfMlWm6T2-427" value="&lt;font color=&quot;#9933ff&quot;&gt;????&lt;/font&gt;" style="ellipse;shape=cloud;whiteSpace=wrap;html=1;fillColor=#CCCCCC;" parent="L4q9XZSvd_akfMlWm6T2-424" vertex="1">
          <mxGeometry width="51.42857142857142" height="36.36363636363636" as="geometry" />
        </mxCell>
        <mxCell id="L4q9XZSvd_akfMlWm6T2-428" value="" style="group;flipV=0;" parent="60P3BRVn1bayOMwkvm1S-174" vertex="1" connectable="0">
          <mxGeometry x="250" y="173" width="60" height="50" as="geometry" />
        </mxCell>
        <mxCell id="L4q9XZSvd_akfMlWm6T2-429" value="" style="verticalLabelPosition=bottom;verticalAlign=top;html=1;shape=mxgraph.basic.flash;fillColor=#FFFF00;" parent="L4q9XZSvd_akfMlWm6T2-428" vertex="1">
          <mxGeometry x="12.857142857142856" y="22.727272727272727" width="12.857142857142856" height="22.727272727272727" as="geometry" />
        </mxCell>
        <mxCell id="L4q9XZSvd_akfMlWm6T2-430" value="" style="verticalLabelPosition=bottom;verticalAlign=top;html=1;shape=mxgraph.basic.flash;fillColor=#FFFF00;" parent="L4q9XZSvd_akfMlWm6T2-428" vertex="1">
          <mxGeometry x="30" y="27.272727272727273" width="12.857142857142856" height="22.727272727272727" as="geometry" />
        </mxCell>
        <mxCell id="L4q9XZSvd_akfMlWm6T2-431" value="&lt;font color=&quot;#9933ff&quot;&gt;????&lt;/font&gt;" style="ellipse;shape=cloud;whiteSpace=wrap;html=1;fillColor=#CCCCCC;" parent="L4q9XZSvd_akfMlWm6T2-428" vertex="1">
          <mxGeometry width="51.42857142857142" height="36.36363636363636" as="geometry" />
        </mxCell>
        <mxCell id="L4q9XZSvd_akfMlWm6T2-432" value="" style="group;flipV=0;" parent="60P3BRVn1bayOMwkvm1S-174" vertex="1" connectable="0">
          <mxGeometry x="330" y="256" width="60" height="50" as="geometry" />
        </mxCell>
        <mxCell id="L4q9XZSvd_akfMlWm6T2-433" value="" style="verticalLabelPosition=bottom;verticalAlign=top;html=1;shape=mxgraph.basic.flash;fillColor=#FFFF00;" parent="L4q9XZSvd_akfMlWm6T2-432" vertex="1">
          <mxGeometry x="12.857142857142856" y="22.727272727272727" width="12.857142857142856" height="22.727272727272727" as="geometry" />
        </mxCell>
        <mxCell id="L4q9XZSvd_akfMlWm6T2-434" value="" style="verticalLabelPosition=bottom;verticalAlign=top;html=1;shape=mxgraph.basic.flash;fillColor=#FFFF00;" parent="L4q9XZSvd_akfMlWm6T2-432" vertex="1">
          <mxGeometry x="30" y="27.272727272727273" width="12.857142857142856" height="22.727272727272727" as="geometry" />
        </mxCell>
        <mxCell id="L4q9XZSvd_akfMlWm6T2-435" value="&lt;font color=&quot;#9933ff&quot;&gt;????&lt;/font&gt;" style="ellipse;shape=cloud;whiteSpace=wrap;html=1;fillColor=#CCCCCC;" parent="L4q9XZSvd_akfMlWm6T2-432" vertex="1">
          <mxGeometry width="51.42857142857142" height="36.36363636363636" as="geometry" />
        </mxCell>
        <mxCell id="L4q9XZSvd_akfMlWm6T2-436" value="" style="group;flipV=0;" parent="60P3BRVn1bayOMwkvm1S-174" vertex="1" connectable="0">
          <mxGeometry x="166" y="95" width="60" height="50" as="geometry" />
        </mxCell>
        <mxCell id="L4q9XZSvd_akfMlWm6T2-437" value="" style="verticalLabelPosition=bottom;verticalAlign=top;html=1;shape=mxgraph.basic.flash;fillColor=#FFFF00;" parent="L4q9XZSvd_akfMlWm6T2-436" vertex="1">
          <mxGeometry x="12.857142857142856" y="22.727272727272727" width="12.857142857142856" height="22.727272727272727" as="geometry" />
        </mxCell>
        <mxCell id="L4q9XZSvd_akfMlWm6T2-438" value="" style="verticalLabelPosition=bottom;verticalAlign=top;html=1;shape=mxgraph.basic.flash;fillColor=#FFFF00;" parent="L4q9XZSvd_akfMlWm6T2-436" vertex="1">
          <mxGeometry x="30" y="27.272727272727273" width="12.857142857142856" height="22.727272727272727" as="geometry" />
        </mxCell>
        <mxCell id="L4q9XZSvd_akfMlWm6T2-439" value="&lt;font color=&quot;#9933ff&quot;&gt;????&lt;/font&gt;" style="ellipse;shape=cloud;whiteSpace=wrap;html=1;fillColor=#CCCCCC;" parent="L4q9XZSvd_akfMlWm6T2-436" vertex="1">
          <mxGeometry width="51.42857142857142" height="36.36363636363636" as="geometry" />
        </mxCell>
        <mxCell id="L4q9XZSvd_akfMlWm6T2-440" value="" style="group;flipV=0;" parent="60P3BRVn1bayOMwkvm1S-174" vertex="1" connectable="0">
          <mxGeometry x="86" y="15" width="60" height="50" as="geometry" />
        </mxCell>
        <mxCell id="L4q9XZSvd_akfMlWm6T2-441" value="" style="verticalLabelPosition=bottom;verticalAlign=top;html=1;shape=mxgraph.basic.flash;fillColor=#FFFF00;" parent="L4q9XZSvd_akfMlWm6T2-440" vertex="1">
          <mxGeometry x="12.857142857142856" y="22.727272727272727" width="12.857142857142856" height="22.727272727272727" as="geometry" />
        </mxCell>
        <mxCell id="L4q9XZSvd_akfMlWm6T2-442" value="" style="verticalLabelPosition=bottom;verticalAlign=top;html=1;shape=mxgraph.basic.flash;fillColor=#FFFF00;" parent="L4q9XZSvd_akfMlWm6T2-440" vertex="1">
          <mxGeometry x="30" y="27.272727272727273" width="12.857142857142856" height="22.727272727272727" as="geometry" />
        </mxCell>
        <mxCell id="L4q9XZSvd_akfMlWm6T2-443" value="&lt;font color=&quot;#9933ff&quot;&gt;????&lt;/font&gt;" style="ellipse;shape=cloud;whiteSpace=wrap;html=1;fillColor=#CCCCCC;" parent="L4q9XZSvd_akfMlWm6T2-440" vertex="1">
          <mxGeometry width="51.42857142857142" height="36.36363636363636" as="geometry" />
        </mxCell>
      </root>
    </mxGraphModel>
  </diagram>
</mxfile>
